<?xml version="1.0" encoding="UTF-8" standalone="no"?>
<!-- Created with Inkscape (http://www.inkscape.org/) -->

<svg
   xmlns:dc="http://purl.org/dc/elements/1.1/"
   xmlns:cc="http://creativecommons.org/ns#"
   xmlns:rdf="http://www.w3.org/1999/02/22-rdf-syntax-ns#"
   xmlns:svg="http://www.w3.org/2000/svg"
   xmlns="http://www.w3.org/2000/svg"
   xmlns:sodipodi="http://sodipodi.sourceforge.net/DTD/sodipodi-0.dtd"
   xmlns:inkscape="http://www.inkscape.org/namespaces/inkscape"
   width="1000"
   height="400"
   viewBox="0 0 1000 400.00001"
   id="svg2"
   version="1.1"
   inkscape:version="0.91 r13725"
   sodipodi:docname="infographic.svg">
  <defs
     id="defs4">
    <style
       id="style3422"
       type="text/css">
   
    .fil0 {fill:black}
   
  </style>
  </defs>
  <sodipodi:namedview
     id="base"
     pagecolor="#ffffff"
     bordercolor="#666666"
     borderopacity="1.0"
     inkscape:pageopacity="0.0"
     inkscape:pageshadow="2"
     inkscape:zoom="0.88"
     inkscape:cx="566.57076"
     inkscape:cy="278.62069"
     inkscape:document-units="px"
     inkscape:current-layer="text3361-8"
     showgrid="false"
     units="px"
     inkscape:window-width="1920"
     inkscape:window-height="1019"
     inkscape:window-x="0"
     inkscape:window-y="0"
     inkscape:window-maximized="1"
     showguides="true" />
  <metadata
     id="metadata7">
    <rdf:RDF>
      <cc:Work
         rdf:about="">
        <dc:format>image/svg+xml</dc:format>
        <dc:type
           rdf:resource="http://purl.org/dc/dcmitype/StillImage" />
        <dc:title />
      </cc:Work>
    </rdf:RDF>
  </metadata>
  <g
     inkscape:label="Layer 1"
     inkscape:groupmode="layer"
     id="layer1"
     transform="translate(0,-652.36222)">
    <text
       xml:space="preserve"
       style="font-style:normal;font-weight:normal;font-size:40px;line-height:125%;font-family:sans-serif;letter-spacing:0px;word-spacing:0px;fill:#000000;fill-opacity:1;stroke:none;stroke-width:1px;stroke-linecap:butt;stroke-linejoin:miter;stroke-opacity:1"
       x="308.57144"
       y="338.07648"
       id="text3336"
       sodipodi:linespacing="125%"><tspan
         sodipodi:role="line"
         id="tspan3338"
         x="308.57144"
         y="338.07648" /></text>
    <rect
       style="fill:#1c366b;fill-opacity:1"
       id="rect3359"
       width="1000"
       height="400"
       x="0"
       y="652.36218" />
    <g
       style="font-style:normal;font-weight:normal;font-size:40px;line-height:125%;font-family:sans-serif;letter-spacing:0px;word-spacing:0px;fill:#ffffff;fill-opacity:1;stroke:none;stroke-width:1px;stroke-linecap:butt;stroke-linejoin:miter;stroke-opacity:1"
       id="text3361">
      <path
         style="font-style:normal;font-variant:normal;font-weight:bold;font-stretch:normal;font-size:27.5px;font-family:Montserrat;-inkscape-font-specification:'Montserrat Bold';fill:#ffffff"
         d="M 164.41992 289.7207 L 164.41992 296.89844 C 163.34742 295.68844 161.80719 295.10938 159.99219 295.10938 C 155.81219 295.10938 152.59375 298.07906 152.59375 302.72656 C 152.59375 307.37406 155.81219 310.3457 159.99219 310.3457 C 161.97219 310.3457 163.53883 309.71242 164.61133 308.41992 L 164.61133 310.125 L 168.70898 310.125 L 168.70898 289.7207 L 164.41992 289.7207 z M 191.76367 289.7207 L 191.76367 310.125 L 193.7168 310.125 L 193.7168 302.53516 C 193.7168 299.23516 195.66984 297.31055 198.77734 297.31055 C 201.52734 297.31055 203.12109 298.87719 203.12109 301.92969 L 203.12109 310.125 L 205.07422 310.125 L 205.07422 301.73828 C 205.07422 297.58578 202.65477 295.55078 199.13477 295.55078 C 196.68727 295.55078 194.7893 296.51195 193.7168 298.18945 L 193.7168 289.7207 L 191.76367 289.7207 z M 286.02734 289.7207 L 286.02734 310.125 L 287.98047 310.125 L 287.98047 306 L 291.39062 302.86523 L 297.21875 310.125 L 299.61133 310.125 L 292.84766 301.57227 L 299.03516 295.66016 L 296.61523 295.66016 L 287.98047 303.55273 L 287.98047 289.7207 L 286.02734 289.7207 z M 89.705078 290.54492 C 84.232578 290.54492 81.59375 293.26656 81.59375 296.53906 C 81.59375 303.68906 92.785156 301.21586 92.785156 304.81836 C 92.785156 306.00086 91.714219 306.88086 89.074219 306.88086 C 86.764219 306.88086 84.343203 306.05555 82.720703 304.87305 L 81.208984 308.22656 C 82.913984 309.54656 85.994375 310.45508 89.046875 310.45508 C 94.546875 310.45508 97.212891 307.70578 97.212891 304.48828 C 97.212891 297.42078 86.021484 299.86781 86.021484 296.32031 C 86.021484 295.11031 87.037734 294.11914 89.677734 294.11914 C 91.382734 294.11914 93.226172 294.61531 95.013672 295.63281 L 96.388672 292.25 C 94.601172 291.1225 92.125078 290.54492 89.705078 290.54492 z M 180.92188 292.49805 L 180.92188 295.66016 L 178.33789 295.66016 L 178.33789 297.31055 L 180.92188 297.31055 L 180.92188 306.05469 C 180.92188 308.72219 182.4357 310.26172 185.1582 310.26172 C 186.2857 310.26172 187.44094 309.93164 188.21094 309.24414 L 187.52344 307.8418 C 186.97344 308.3368 186.17445 308.58594 185.37695 308.58594 C 183.75445 308.58594 182.875 307.65031 182.875 305.94531 L 182.875 297.31055 L 187.27539 297.31055 L 187.27539 295.66016 L 182.875 295.66016 L 182.875 292.49805 L 180.92188 292.49805 z M 108.72656 295.10938 C 106.74656 295.10938 105.15258 295.74266 104.08008 297.03516 L 104.08008 295.33008 L 99.982422 295.33008 L 99.982422 315.46094 L 104.27148 315.46094 L 104.27148 308.55664 C 105.37148 309.76664 106.88406 310.3457 108.72656 310.3457 C 112.87906 310.3457 116.09766 307.37406 116.09766 302.72656 C 116.09766 298.07906 112.87906 295.10938 108.72656 295.10938 z M 125.73438 295.10938 C 121.22437 295.10938 117.8418 298.29906 117.8418 302.72656 C 117.8418 307.12656 121.17016 310.3457 126.28516 310.3457 C 128.95266 310.3457 131.01367 309.52062 132.38867 307.95312 L 130.10742 305.47656 C 129.08992 306.43906 127.96203 306.9082 126.39453 306.9082 C 124.13953 306.9082 122.57266 305.78 122.16016 303.9375 L 133.35156 303.9375 C 133.37906 303.58 133.43359 303.1132 133.43359 302.7832 C 133.43359 298.0257 130.07937 295.10938 125.73438 295.10938 z M 143.08398 295.10938 C 138.57398 295.10938 135.19141 298.29906 135.19141 302.72656 C 135.19141 307.12656 138.51781 310.3457 143.63281 310.3457 C 146.30031 310.3457 148.36328 309.52062 149.73828 307.95312 L 147.45508 305.47656 C 146.43758 306.43906 145.30969 306.9082 143.74219 306.9082 C 141.48719 306.9082 139.92031 305.78 139.50781 303.9375 L 150.70117 303.9375 C 150.72867 303.58 150.7832 303.1132 150.7832 302.7832 C 150.7832 298.0257 147.42898 295.10938 143.08398 295.10938 z M 216.06641 295.55078 C 211.99641 295.55078 208.99805 298.60258 208.99805 302.89258 C 208.99805 307.18258 212.07789 310.26172 216.58789 310.26172 C 218.87039 310.26172 220.87938 309.43844 222.17188 307.89844 L 221.07031 306.63281 C 219.97031 307.89781 218.40258 308.5293 216.64258 308.5293 C 213.48008 308.5293 211.17117 306.52305 210.95117 303.49805 L 223.05078 303.49805 C 223.05078 303.27805 223.07813 303.05758 223.07812 302.89258 C 223.07812 298.54758 220.13641 295.55078 216.06641 295.55078 z M 263.90234 295.55078 C 259.66734 295.55078 256.5332 298.60258 256.5332 302.89258 C 256.5332 307.18258 259.66734 310.26172 263.90234 310.26172 C 268.13734 310.26172 271.24414 307.18258 271.24414 302.89258 C 271.24414 298.60258 268.13734 295.55078 263.90234 295.55078 z M 282.51953 295.55078 C 279.85203 295.55078 278.00906 296.56719 277.10156 298.49219 L 277.10156 295.66016 L 275.23047 295.66016 L 275.23047 310.125 L 277.18359 310.125 L 277.18359 302.75586 C 277.18359 299.34586 279.02578 297.41992 282.05078 297.41992 C 282.18828 297.41992 282.35453 297.44727 282.51953 297.44727 L 282.51953 295.55078 z M 231.74805 295.66016 L 237.19141 310.125 L 239.03516 310.125 L 243.59961 298.27344 L 248.16406 310.125 L 250.00781 310.125 L 255.48047 295.66016 L 253.69141 295.66016 L 249.09961 307.95312 L 244.48047 295.66016 L 242.80273 295.66016 L 238.1543 307.95312 L 233.61719 295.66016 L 231.74805 295.66016 z M 216.06641 297.22656 C 218.89891 297.22656 220.96148 299.20656 221.20898 302.03906 L 210.95117 302.03906 C 211.19867 299.20656 213.26141 297.22656 216.06641 297.22656 z M 263.90234 297.25586 C 266.98234 297.25586 269.26563 299.51008 269.26562 302.89258 C 269.26562 306.27508 266.98234 308.5293 263.90234 308.5293 C 260.82234 308.5293 258.51172 306.27508 258.51172 302.89258 C 258.51172 299.51008 260.82234 297.25586 263.90234 297.25586 z M 125.76172 298.35547 C 127.68672 298.35547 129.09008 299.56555 129.39258 301.43555 L 122.10352 301.43555 C 122.40602 299.53805 123.80922 298.35547 125.76172 298.35547 z M 143.11133 298.35547 C 145.03633 298.35547 146.43773 299.56555 146.74023 301.43555 L 139.45312 301.43555 C 139.75563 299.53805 141.15883 298.35547 143.11133 298.35547 z M 107.98438 298.63086 C 110.12937 298.63086 111.75195 300.16906 111.75195 302.72656 C 111.75195 305.28406 110.12938 306.82422 107.98438 306.82422 C 105.83938 306.82422 104.2168 305.28406 104.2168 302.72656 C 104.2168 300.16906 105.83937 298.63086 107.98438 298.63086 z M 160.73438 298.63086 C 162.85188 298.63086 164.50195 300.16906 164.50195 302.72656 C 164.50195 305.28406 162.85188 306.82422 160.73438 306.82422 C 158.58937 306.82422 156.93945 305.28406 156.93945 302.72656 C 156.93945 300.16906 158.58938 298.63086 160.73438 298.63086 z M 246.54492 324.0957 L 246.54492 332.78516 C 245.33492 330.91516 243.35492 329.92578 241.04492 329.92578 C 236.91992 329.92578 233.83984 332.89508 233.83984 337.26758 C 233.83984 341.64008 236.91992 344.63672 241.04492 344.63672 C 243.43742 344.63672 245.44445 343.59313 246.62695 341.64062 L 246.62695 344.5 L 248.49805 344.5 L 248.49805 324.0957 L 246.54492 324.0957 z M 146.35547 329.92578 C 142.12047 329.92578 138.98633 332.97758 138.98633 337.26758 C 138.98633 341.55758 142.12047 344.63672 146.35547 344.63672 C 150.59047 344.63672 153.69922 341.55758 153.69922 337.26758 C 153.69922 332.97758 150.59047 329.92578 146.35547 329.92578 z M 190.7832 329.92578 C 188.2807 329.92578 186.3282 330.94313 185.2832 332.70312 L 185.2832 330.03516 L 183.41211 330.03516 L 183.41211 344.5 L 185.36523 344.5 L 185.36523 336.91016 C 185.36523 333.61016 187.31828 331.68555 190.42578 331.68555 C 193.17578 331.68555 194.76953 333.25219 194.76953 336.30469 L 194.76953 344.5 L 196.72266 344.5 L 196.72266 336.11328 C 196.72266 331.96078 194.3032 329.92578 190.7832 329.92578 z M 207.71289 329.92578 C 203.64289 329.92578 200.64648 332.97758 200.64648 337.26758 C 200.64648 341.55758 203.72633 344.63672 208.23633 344.63672 C 210.51883 344.63672 212.52586 343.81344 213.81836 342.27344 L 212.71875 341.00781 C 211.61875 342.27281 210.05102 342.9043 208.29102 342.9043 C 205.12852 342.9043 202.81961 340.89805 202.59961 337.87305 L 214.69922 337.87305 C 214.69922 337.65305 214.72656 337.43258 214.72656 337.26758 C 214.72656 332.92258 211.78289 329.92578 207.71289 329.92578 z M 224.31055 329.92578 C 220.24055 329.92578 217.24219 332.97758 217.24219 337.26758 C 217.24219 341.55758 220.32398 344.63672 224.83398 344.63672 C 227.11648 344.63672 229.12352 343.81344 230.41602 342.27344 L 229.31641 341.00781 C 228.21641 342.27281 226.64867 342.9043 224.88867 342.9043 C 221.72617 342.9043 219.41531 340.89805 219.19531 337.87305 L 231.29492 337.87305 C 231.29492 337.65305 231.32227 337.43258 231.32227 337.26758 C 231.32227 332.92258 228.38055 329.92578 224.31055 329.92578 z M 123.24609 330.03516 L 129.70898 344.47266 L 129.07617 345.875 C 128.25117 347.68996 127.37258 348.29492 126.08008 348.29492 C 125.03508 348.29492 124.15445 347.91027 123.43945 347.19531 L 122.53125 348.65234 C 123.41125 349.53234 124.70328 349.97266 126.05078 349.97266 C 128.11328 349.97266 129.65328 349.06488 130.86328 346.23242 L 138.09766 330.03516 L 136.17188 330.03516 L 130.72656 342.32812 L 125.28125 330.03516 L 123.24609 330.03516 z M 157.54688 330.03516 L 157.54688 338.42188 C 157.54688 342.57438 159.96734 344.63672 163.65234 344.63672 C 165.96234 344.63672 167.83211 343.61937 168.84961 341.85938 L 168.84961 344.5 L 170.7207 344.5 L 170.7207 330.03516 L 168.76758 330.03516 L 168.76758 337.625 C 168.76758 340.925 166.8707 342.87695 163.8457 342.87695 C 161.0957 342.87695 159.5 341.31047 159.5 338.23047 L 159.5 330.03516 L 157.54688 330.03516 z M 207.71289 331.60156 C 210.54539 331.60156 212.60797 333.58156 212.85547 336.41406 L 202.59961 336.41406 C 202.84711 333.58156 204.90789 331.60156 207.71289 331.60156 z M 224.31055 331.60156 C 227.14305 331.60156 229.20563 333.58156 229.45312 336.41406 L 219.19531 336.41406 C 219.44281 333.58156 221.50555 331.60156 224.31055 331.60156 z M 146.35547 331.63086 C 149.43547 331.63086 151.71875 333.88508 151.71875 337.26758 C 151.71875 340.65008 149.43547 342.9043 146.35547 342.9043 C 143.27547 342.9043 140.9668 340.65008 140.9668 337.26758 C 140.9668 333.88508 143.27547 331.63086 146.35547 331.63086 z M 241.20898 331.63086 C 244.26148 331.63086 246.57227 333.88508 246.57227 337.26758 C 246.57227 340.65008 244.26148 342.9043 241.20898 342.9043 C 238.12898 342.9043 235.82031 340.65008 235.82031 337.26758 C 235.82031 333.88508 238.12898 331.63086 241.20898 331.63086 z M 254.12695 341.64062 C 253.32945 341.64062 252.66992 342.2725 252.66992 343.125 C 252.66992 343.9775 253.32945 344.63672 254.12695 344.63672 C 254.92445 344.63672 255.61328 343.9775 255.61328 343.125 C 255.61328 342.2725 254.92445 341.64062 254.12695 341.64062 z "
         transform="translate(0,652.36222)"
         id="path4200" />
    </g>
    <g
       style="font-style:normal;font-weight:normal;font-size:40px;line-height:125%;font-family:sans-serif;letter-spacing:0px;word-spacing:0px;fill:#ffffff;fill-opacity:1;stroke:none;stroke-width:1px;stroke-linecap:butt;stroke-linejoin:miter;stroke-opacity:1"
       id="text3361-5">
      <path
         style="font-style:normal;font-variant:normal;font-weight:bold;font-stretch:normal;font-size:27.5px;font-family:Montserrat;-inkscape-font-specification:'Montserrat Bold';fill:#ffffff"
         d="M 443.0625 288.48242 C 441.4675 288.48242 440.39648 289.5275 440.39648 290.875 C 440.39648 292.2225 441.4675 293.26758 443.0625 293.26758 C 444.6575 293.26758 445.73047 292.22297 445.73047 290.79297 C 445.73047 289.47297 444.6575 288.48242 443.0625 288.48242 z M 422.87109 289.7207 L 422.87109 310.125 L 427.16211 310.125 L 427.16211 306.35742 L 429.22461 304.32227 L 433.89844 310.125 L 439.0957 310.125 L 432.38672 301.59961 L 438.54688 295.33008 L 433.43164 295.33008 L 427.16211 301.26953 L 427.16211 289.7207 L 422.87109 289.7207 z M 487.85156 289.7207 L 487.85156 310.125 L 489.80469 310.125 L 489.80469 302.53516 C 489.80469 299.23516 491.75773 297.31055 494.86523 297.31055 C 497.61523 297.31055 499.20898 298.87719 499.20898 301.92969 L 499.20898 310.125 L 501.16211 310.125 L 501.16211 301.73828 C 501.16211 297.58578 498.74266 295.55078 495.22266 295.55078 C 492.77516 295.55078 490.87719 296.51195 489.80469 298.18945 L 489.80469 289.7207 L 487.85156 289.7207 z M 582.11523 289.7207 L 582.11523 310.125 L 584.06836 310.125 L 584.06836 306 L 587.47656 302.86523 L 593.30664 310.125 L 595.69922 310.125 L 588.93555 301.57227 L 595.12305 295.66016 L 592.70312 295.66016 L 584.06836 303.55273 L 584.06836 289.7207 L 582.11523 289.7207 z M 412.5957 290.54492 C 407.1232 290.54492 404.48242 293.26656 404.48242 296.53906 C 404.48242 303.68906 415.67578 301.21586 415.67578 304.81836 C 415.67578 306.00086 414.60289 306.88086 411.96289 306.88086 C 409.65289 306.88086 407.23383 306.05555 405.61133 304.87305 L 404.09766 308.22656 C 405.80266 309.54656 408.88305 310.45508 411.93555 310.45508 C 417.43555 310.45508 420.10352 307.70578 420.10352 304.48828 C 420.10352 297.42078 408.91016 299.86781 408.91016 296.32031 C 408.91016 295.11031 409.92836 294.11914 412.56836 294.11914 C 414.27336 294.11914 416.11484 294.61531 417.90234 295.63281 L 419.27734 292.25 C 417.48984 291.1225 415.0157 290.54492 412.5957 290.54492 z M 477.00977 292.49805 L 477.00977 295.66016 L 474.42578 295.66016 L 474.42578 297.31055 L 477.00977 297.31055 L 477.00977 306.05469 C 477.00977 308.72219 478.52359 310.26172 481.24609 310.26172 C 482.37359 310.26172 483.52883 309.93164 484.29883 309.24414 L 483.61133 307.8418 C 483.06133 308.3368 482.26234 308.58594 481.46484 308.58594 C 479.84234 308.58594 478.96289 307.65031 478.96289 305.94531 L 478.96289 297.31055 L 483.36328 297.31055 L 483.36328 295.66016 L 478.96289 295.66016 L 478.96289 292.49805 L 477.00977 292.49805 z M 457.93555 295.10938 C 455.95555 295.10938 454.35961 295.74266 453.28711 297.03516 L 453.28711 295.33008 L 449.18945 295.33008 L 449.18945 315.46094 L 453.48047 315.46094 L 453.48047 308.55664 C 454.58047 309.76664 456.09305 310.3457 457.93555 310.3457 C 462.08805 310.3457 465.30469 307.37406 465.30469 302.72656 C 465.30469 298.07906 462.08805 295.10938 457.93555 295.10938 z M 440.91797 295.33008 L 440.91797 310.125 L 445.20898 310.125 L 445.20898 295.33008 L 440.91797 295.33008 z M 512.1543 295.55078 C 508.0843 295.55078 505.08594 298.60258 505.08594 302.89258 C 505.08594 307.18258 508.16578 310.26172 512.67578 310.26172 C 514.95828 310.26172 516.96531 309.43844 518.25781 307.89844 L 517.1582 306.63281 C 516.0582 307.89781 514.49047 308.5293 512.73047 308.5293 C 509.56797 308.5293 507.25906 306.52305 507.03906 303.49805 L 519.13867 303.49805 C 519.13867 303.27805 519.16602 303.05758 519.16602 302.89258 C 519.16602 298.54758 516.2243 295.55078 512.1543 295.55078 z M 559.99023 295.55078 C 555.75523 295.55078 552.62109 298.60258 552.62109 302.89258 C 552.62109 307.18258 555.75523 310.26172 559.99023 310.26172 C 564.22523 310.26172 567.33203 307.18258 567.33203 302.89258 C 567.33203 298.60258 564.22523 295.55078 559.99023 295.55078 z M 578.60742 295.55078 C 575.93992 295.55078 574.09695 296.56719 573.18945 298.49219 L 573.18945 295.66016 L 571.31836 295.66016 L 571.31836 310.125 L 573.27148 310.125 L 573.27148 302.75586 C 573.27148 299.34586 575.11367 297.41992 578.13867 297.41992 C 578.27617 297.41992 578.44242 297.44727 578.60742 297.44727 L 578.60742 295.55078 z M 527.83594 295.66016 L 533.2793 310.125 L 535.12305 310.125 L 539.6875 298.27344 L 544.25195 310.125 L 546.0957 310.125 L 551.56836 295.66016 L 549.7793 295.66016 L 545.1875 307.95312 L 540.56836 295.66016 L 538.89062 295.66016 L 534.24219 307.95312 L 529.70508 295.66016 L 527.83594 295.66016 z M 512.1543 297.22656 C 514.9868 297.22656 517.04938 299.20656 517.29688 302.03906 L 507.03906 302.03906 C 507.28656 299.20656 509.3493 297.22656 512.1543 297.22656 z M 559.99023 297.25586 C 563.07023 297.25586 565.35352 299.51008 565.35352 302.89258 C 565.35352 306.27508 563.07023 308.5293 559.99023 308.5293 C 556.91023 308.5293 554.59961 306.27508 554.59961 302.89258 C 554.59961 299.51008 556.91023 297.25586 559.99023 297.25586 z M 457.19336 298.63086 C 459.33836 298.63086 460.95898 300.16906 460.95898 302.72656 C 460.95898 305.28406 459.33836 306.82422 457.19336 306.82422 C 455.04836 306.82422 453.42578 305.28406 453.42578 302.72656 C 453.42578 300.16906 455.04836 298.63086 457.19336 298.63086 z M 503.66602 324.0957 L 503.66602 332.78516 C 502.45602 330.91516 500.47602 329.92578 498.16602 329.92578 C 494.04102 329.92578 490.96094 332.89508 490.96094 337.26758 C 490.96094 341.64008 494.04102 344.63672 498.16602 344.63672 C 500.55852 344.63672 502.56555 343.59313 503.74805 341.64062 L 503.74805 344.5 L 505.61719 344.5 L 505.61719 324.0957 L 503.66602 324.0957 z M 546.10938 325.25 L 546.24609 332.50977 L 547.70508 332.50977 L 547.8418 325.25 L 546.10938 325.25 z M 552.79688 326.87305 L 552.79688 330.03516 L 550.21094 330.03516 L 550.21094 331.68555 L 552.79688 331.68555 L 552.79688 340.42969 C 552.79688 343.09719 554.30875 344.63672 557.03125 344.63672 C 558.15875 344.63672 559.31398 344.30664 560.08398 343.61914 L 559.39648 342.2168 C 558.84648 342.7118 558.04945 342.96094 557.25195 342.96094 C 555.62945 342.96094 554.75 342.02531 554.75 340.32031 L 554.75 331.68555 L 559.14844 331.68555 L 559.14844 330.03516 L 554.75 330.03516 L 554.75 326.87305 L 552.79688 326.87305 z M 455.36133 329.92578 C 451.12633 329.92578 447.99219 332.97758 447.99219 337.26758 C 447.99219 341.55758 451.12633 344.63672 455.36133 344.63672 C 459.59633 344.63672 462.70312 341.55758 462.70312 337.26758 C 462.70312 332.97758 459.59633 329.92578 455.36133 329.92578 z M 516.96875 329.92578 C 512.73375 329.92578 509.59766 332.97758 509.59766 337.26758 C 509.59766 341.55758 512.73375 344.63672 516.96875 344.63672 C 521.20375 344.63672 524.31055 341.55758 524.31055 337.26758 C 524.31055 332.97758 521.20375 329.92578 516.96875 329.92578 z M 535.66602 329.92578 C 533.16352 329.92578 531.21102 330.94313 530.16602 332.70312 L 530.16602 330.03516 L 528.29688 330.03516 L 528.29688 344.5 L 530.25 344.5 L 530.25 336.91016 C 530.25 333.61016 532.20109 331.68555 535.30859 331.68555 C 538.05859 331.68555 539.6543 333.25219 539.6543 336.30469 L 539.6543 344.5 L 541.60742 344.5 L 541.60742 336.11328 C 541.60742 331.96078 539.18602 329.92578 535.66602 329.92578 z M 432.25195 330.03516 L 438.71484 344.47266 L 438.08203 345.875 C 437.25703 347.68996 436.37648 348.29492 435.08398 348.29492 C 434.03898 348.29492 433.16031 347.91027 432.44531 347.19531 L 431.53711 348.65234 C 432.41711 349.53234 433.70914 349.97266 435.05664 349.97266 C 437.11914 349.97266 438.65914 349.06488 439.86914 346.23242 L 447.10156 330.03516 L 445.17773 330.03516 L 439.73242 342.32812 L 434.28711 330.03516 L 432.25195 330.03516 z M 466.55273 330.03516 L 466.55273 338.42188 C 466.55273 342.57438 468.9732 344.63672 472.6582 344.63672 C 474.9682 344.63672 476.83797 343.61937 477.85547 341.85938 L 477.85547 344.5 L 479.72461 344.5 L 479.72461 330.03516 L 477.77344 330.03516 L 477.77344 337.625 C 477.77344 340.925 475.87461 342.87695 472.84961 342.87695 C 470.09961 342.87695 468.50586 341.31047 468.50586 338.23047 L 468.50586 330.03516 L 466.55273 330.03516 z M 455.36133 331.63086 C 458.44133 331.63086 460.72461 333.88508 460.72461 337.26758 C 460.72461 340.65008 458.44133 342.9043 455.36133 342.9043 C 452.28133 342.9043 449.9707 340.65008 449.9707 337.26758 C 449.9707 333.88508 452.28133 331.63086 455.36133 331.63086 z M 498.33008 331.63086 C 501.38258 331.63086 503.69336 333.88508 503.69336 337.26758 C 503.69336 340.65008 501.38258 342.9043 498.33008 342.9043 C 495.25008 342.9043 492.93945 340.65008 492.93945 337.26758 C 492.93945 333.88508 495.25008 331.63086 498.33008 331.63086 z M 516.96875 331.63086 C 520.04875 331.63086 522.33008 333.88508 522.33008 337.26758 C 522.33008 340.65008 520.04875 342.9043 516.96875 342.9043 C 513.88875 342.9043 511.57812 340.65008 511.57812 337.26758 C 511.57812 333.88508 513.88875 331.63086 516.96875 331.63086 z M 564.09961 341.64062 C 563.30211 341.64062 562.64258 342.2725 562.64258 343.125 C 562.64258 343.9775 563.30211 344.63672 564.09961 344.63672 C 564.89711 344.63672 565.58398 343.9775 565.58398 343.125 C 565.58398 342.2725 564.89711 341.64062 564.09961 341.64062 z "
         transform="translate(0,652.36222)"
         id="path4159" />
    </g>
    <g
       style="font-style:normal;font-weight:normal;font-size:40px;line-height:125%;font-family:sans-serif;letter-spacing:0px;word-spacing:0px;fill:#ffffff;fill-opacity:1;stroke:none;stroke-width:1px;stroke-linecap:butt;stroke-linejoin:miter;stroke-opacity:1"
       id="text3361-8">
      <path
         style="font-style:normal;font-variant:normal;font-weight:bold;font-stretch:normal;font-size:27.5px;font-family:montserrat;-inkscape-font-specification:'montserrat Bold';text-align:center;text-anchor:middle;fill:#ffffff"
         d="M 858.58594 289.60938 C 855.75344 289.60938 854.21289 291.31539 854.21289 293.90039 L 854.21289 295.6875 L 851.62695 295.6875 L 851.62695 297.33789 L 854.21289 297.33789 L 854.21289 310.15234 L 856.16602 310.15234 L 856.16602 297.33789 L 860.56445 297.33789 L 860.56445 295.6875 L 856.10938 295.6875 L 856.10938 293.98242 C 856.10938 292.19492 856.99047 291.25977 858.66797 291.25977 C 859.49297 291.25977 860.2625 291.50711 860.8125 291.97461 L 861.47266 290.51758 C 860.75766 289.91258 859.65844 289.60938 858.58594 289.60938 z M 758.32422 290.57227 C 752.85172 290.57227 750.21094 293.29586 750.21094 296.56836 C 750.21094 303.71836 761.4043 301.2432 761.4043 304.8457 C 761.4043 306.0282 760.33141 306.9082 757.69141 306.9082 C 755.38141 306.9082 752.96039 306.08289 751.33789 304.90039 L 749.82617 308.25586 C 751.53117 309.57586 754.61156 310.48242 757.66406 310.48242 C 763.16406 310.48242 765.83008 307.73312 765.83008 304.51562 C 765.83008 297.44813 754.63867 299.89516 754.63867 296.34766 C 754.63867 295.13766 755.65492 294.14844 758.29492 294.14844 C 759.99992 294.14844 761.84336 294.64266 763.63086 295.66016 L 765.00586 292.27734 C 763.21836 291.14984 760.74422 290.57227 758.32422 290.57227 z M 769.12109 292.08594 L 769.12109 295.6875 L 766.83984 295.6875 L 766.83984 298.98828 L 769.12109 298.98828 L 769.12109 305.06445 C 769.12109 308.58445 771.15594 310.37305 774.64844 310.37305 C 775.96844 310.37305 777.26258 310.07 778.14258 309.4375 L 776.98633 306.41211 C 776.51883 306.76961 775.88641 306.96289 775.25391 306.96289 C 774.09891 306.96289 773.41211 306.27477 773.41211 305.00977 L 773.41211 298.98828 L 777.09766 298.98828 L 777.09766 295.6875 L 773.41211 295.6875 L 773.41211 292.08594 L 769.12109 292.08594 z M 786.54492 295.13672 C 784.17992 295.13672 781.78656 295.77078 780.16406 296.92578 L 781.70508 299.92188 C 782.77758 299.06938 784.3993 298.54688 785.9668 298.54688 C 788.2768 298.54688 789.37695 299.62039 789.37695 301.46289 L 785.9668 301.46289 C 781.4568 301.46289 779.61523 303.27813 779.61523 305.89062 C 779.61523 308.44813 781.67758 310.37305 785.14258 310.37305 C 787.31508 310.37305 788.85484 309.65805 789.65234 308.31055 L 789.65234 310.15234 L 793.66602 310.15234 L 793.66602 301.71094 C 793.66602 297.22844 791.05492 295.13672 786.54492 295.13672 z M 806.29492 295.13672 C 804.39742 295.13672 802.74648 295.7975 801.64648 297.0625 L 801.64648 295.35742 L 797.54883 295.35742 L 797.54883 310.15234 L 801.83984 310.15234 L 801.83984 302.72656 C 801.83984 300.08656 803.18648 298.84961 805.08398 298.84961 C 806.87148 298.84961 807.88867 299.9493 807.88867 302.3418 L 807.88867 310.15234 L 812.17969 310.15234 L 812.17969 302.72656 C 812.17969 300.08656 813.52617 298.84961 815.45117 298.84961 C 817.18367 298.84961 818.25781 299.9493 818.25781 302.3418 L 818.25781 310.15234 L 822.54688 310.15234 L 822.54688 301.68164 C 822.54688 297.17164 820.01609 295.13672 816.49609 295.13672 C 814.26859 295.13672 812.34461 296.04414 811.16211 297.55664 C 810.11711 295.93414 808.35742 295.13672 806.29492 295.13672 z M 835.13672 295.13672 C 833.15672 295.13672 831.56273 295.77 830.49023 297.0625 L 830.49023 295.35742 L 826.39258 295.35742 L 826.39258 315.48828 L 830.68164 315.48828 L 830.68164 308.58594 C 831.78164 309.79594 833.29422 310.37305 835.13672 310.37305 C 839.28922 310.37305 842.50781 307.40336 842.50781 302.75586 C 842.50781 298.10836 839.28922 295.13672 835.13672 295.13672 z M 868.87305 295.57812 C 864.63805 295.57812 861.50195 298.62992 861.50195 302.91992 C 861.50195 307.20992 864.63805 310.28906 868.87305 310.28906 C 873.10805 310.28906 876.21484 307.20992 876.21484 302.91992 C 876.21484 298.62992 873.10805 295.57812 868.87305 295.57812 z M 887.48828 295.57812 C 884.82078 295.57812 882.97781 296.59453 882.07031 298.51953 L 882.07031 295.6875 L 880.20117 295.6875 L 880.20117 310.15234 L 882.1543 310.15234 L 882.1543 302.7832 C 882.1543 299.3732 883.99648 297.44727 887.02148 297.44727 C 887.15898 297.44727 887.32328 297.47461 887.48828 297.47461 L 887.48828 295.57812 z M 868.87305 297.2832 C 871.95305 297.2832 874.23438 299.53742 874.23438 302.91992 C 874.23438 306.30242 871.95305 308.55664 868.87305 308.55664 C 865.79305 308.55664 863.48242 306.30242 863.48242 302.91992 C 863.48242 299.53742 865.79305 297.2832 868.87305 297.2832 z M 834.39453 298.6582 C 836.53953 298.6582 838.16211 300.19836 838.16211 302.75586 C 838.16211 305.31336 836.53953 306.85156 834.39453 306.85156 C 832.24953 306.85156 830.62695 305.31336 830.62695 302.75586 C 830.62695 300.19836 832.24953 298.6582 834.39453 298.6582 z M 786.43359 303.96484 L 789.37695 303.96484 L 789.37695 305.47656 C 788.88195 306.82406 787.64484 307.48438 786.21484 307.48438 C 784.70234 307.48438 783.79492 306.76977 783.79492 305.69727 C 783.79492 304.70727 784.42609 303.96484 786.43359 303.96484 z M 803.76562 324.12305 L 803.76562 332.8125 C 802.55562 330.9425 800.57562 329.95312 798.26562 329.95312 C 794.14062 329.95312 791.06055 332.92242 791.06055 337.29492 C 791.06055 341.66742 794.14062 344.66406 798.26562 344.66406 C 800.65813 344.66406 802.66516 343.62047 803.84766 341.66797 L 803.84766 344.52734 L 805.71875 344.52734 L 805.71875 324.12305 L 803.76562 324.12305 z M 846.14453 324.12305 C 845.34703 324.12305 844.71484 324.75555 844.71484 325.49805 C 844.71484 326.26805 845.34703 326.90039 846.14453 326.90039 C 846.96953 326.90039 847.57422 326.2682 847.57422 325.4707 C 847.57422 324.7282 846.94203 324.12305 846.14453 324.12305 z M 852.56641 324.12305 L 852.56641 344.52734 L 854.4375 344.52734 L 854.4375 341.66797 C 855.62 343.62047 857.62703 344.66406 860.01953 344.66406 C 864.14453 344.66406 867.22461 341.66742 867.22461 337.29492 C 867.22461 332.92242 864.14453 329.95312 860.01953 329.95312 C 857.70953 329.95312 855.72953 330.9425 854.51953 332.8125 L 854.51953 324.12305 L 852.56641 324.12305 z M 872.19531 324.12305 C 871.39781 324.12305 870.76367 324.75555 870.76367 325.49805 C 870.76367 326.26805 871.39781 326.90039 872.19531 326.90039 C 873.02031 326.90039 873.625 326.2682 873.625 325.4707 C 873.625 324.7282 872.99281 324.12305 872.19531 324.12305 z M 878.61719 324.12305 L 878.61719 344.52734 L 880.56836 344.52734 L 880.56836 324.12305 L 878.61719 324.12305 z M 887.01953 324.12305 C 886.22203 324.12305 885.58789 324.75555 885.58789 325.49805 C 885.58789 326.26805 886.22203 326.90039 887.01953 326.90039 C 887.84453 326.90039 888.44922 326.2682 888.44922 325.4707 C 888.44922 324.7282 887.81703 324.12305 887.01953 324.12305 z M 893.77148 326.90039 L 893.77148 330.0625 L 891.18555 330.0625 L 891.18555 331.71289 L 893.77148 331.71289 L 893.77148 340.45703 C 893.77148 343.12453 895.28336 344.66406 898.00586 344.66406 C 899.13336 344.66406 900.28859 344.33594 901.05859 343.64844 L 900.37109 342.24414 C 899.82109 342.73914 899.02406 342.98828 898.22656 342.98828 C 896.60406 342.98828 895.72266 342.05266 895.72266 340.34766 L 895.72266 331.71289 L 900.12305 331.71289 L 900.12305 330.0625 L 895.72266 330.0625 L 895.72266 326.90039 L 893.77148 326.90039 z M 726.06055 329.95312 C 723.39305 329.95312 721.55008 330.96953 720.64258 332.89453 L 720.64258 330.0625 L 718.77344 330.0625 L 718.77344 344.52734 L 720.72461 344.52734 L 720.72461 337.1582 C 720.72461 333.7482 722.56875 331.82227 725.59375 331.82227 C 725.73125 331.82227 725.89555 331.84961 726.06055 331.84961 L 726.06055 329.95312 z M 735.01758 329.95312 C 730.94758 329.95312 727.95117 333.00492 727.95117 337.29492 C 727.95117 341.58492 731.03102 344.66406 735.54102 344.66406 C 737.82352 344.66406 739.83055 343.84078 741.12305 342.30078 L 740.02344 341.03516 C 738.92344 342.30016 737.3557 342.93164 735.5957 342.93164 C 732.4332 342.93164 730.12234 340.92539 729.90234 337.90039 L 742.00195 337.90039 C 742.00195 337.68039 742.0293 337.45992 742.0293 337.29492 C 742.0293 332.94992 739.08758 329.95312 735.01758 329.95312 z M 753.45703 329.95312 C 751.06453 329.95312 749.0575 330.99687 747.875 332.92188 L 747.875 330.0625 L 746.00391 330.0625 L 746.00391 349.86328 L 747.95703 349.86328 L 747.95703 341.80469 C 749.16703 343.67469 751.14703 344.66406 753.45703 344.66406 C 757.58203 344.66406 760.66211 341.69492 760.66211 337.29492 C 760.66211 332.92242 757.58203 329.95312 753.45703 329.95312 z M 771.92969 329.95312 C 769.26219 329.95312 767.41922 330.96953 766.51172 332.89453 L 766.51172 330.0625 L 764.64258 330.0625 L 764.64258 344.52734 L 766.59375 344.52734 L 766.59375 337.1582 C 766.59375 333.7482 768.43789 331.82227 771.46289 331.82227 C 771.60039 331.82227 771.76469 331.84961 771.92969 331.84961 L 771.92969 329.95312 z M 781.18945 329.95312 C 776.95445 329.95312 773.82031 333.00492 773.82031 337.29492 C 773.82031 341.58492 776.95445 344.66406 781.18945 344.66406 C 785.42445 344.66406 788.53125 341.58492 788.53125 337.29492 C 788.53125 333.00492 785.42445 329.95312 781.18945 329.95312 z M 835.68164 329.95312 C 831.36414 329.95312 828.22852 332.97742 828.22852 337.29492 C 828.22852 341.61242 831.36414 344.66406 835.68164 344.66406 C 838.12914 344.66406 840.1907 343.67469 841.3457 341.80469 L 839.88867 340.81445 C 838.89867 342.27195 837.35914 342.93164 835.68164 342.93164 C 832.51914 342.93164 830.20898 340.70492 830.20898 337.29492 C 830.20898 333.91242 832.51914 331.6582 835.68164 331.6582 C 837.35914 331.6582 838.89867 332.34523 839.88867 333.80273 L 841.3457 332.8125 C 840.1907 330.915 838.12914 329.95312 835.68164 329.95312 z M 811.01758 330.0625 L 811.01758 338.44922 C 811.01758 342.60172 813.43805 344.66406 817.12305 344.66406 C 819.43305 344.66406 821.30281 343.64672 822.32031 341.88672 L 822.32031 344.52734 L 824.19141 344.52734 L 824.19141 330.0625 L 822.23828 330.0625 L 822.23828 337.65234 C 822.23828 340.95234 820.34141 342.9043 817.31641 342.9043 C 814.56641 342.9043 812.9707 341.33781 812.9707 338.25781 L 812.9707 330.0625 L 811.01758 330.0625 z M 845.1543 330.0625 L 845.1543 344.52734 L 847.10742 344.52734 L 847.10742 330.0625 L 845.1543 330.0625 z M 871.20508 330.0625 L 871.20508 344.52734 L 873.15625 344.52734 L 873.15625 330.0625 L 871.20508 330.0625 z M 886.0293 330.0625 L 886.0293 344.52734 L 887.98047 344.52734 L 887.98047 330.0625 L 886.0293 330.0625 z M 901.64844 330.0625 L 908.11133 344.5 L 907.47852 345.90234 C 906.65352 347.71733 905.77492 348.32227 904.48242 348.32227 C 903.43742 348.32227 902.5568 347.93765 901.8418 347.22266 L 900.93359 348.67969 C 901.81359 349.55969 903.10758 350 904.45508 350 C 906.51758 350 908.05758 349.09226 909.26758 346.25977 L 916.5 330.0625 L 914.57422 330.0625 L 909.12891 342.35547 L 903.68359 330.0625 L 901.64844 330.0625 z M 735.01758 331.63086 C 737.85008 331.63086 739.91266 333.61086 740.16016 336.44336 L 729.90234 336.44336 C 730.14984 333.61086 732.21258 331.63086 735.01758 331.63086 z M 753.32031 331.6582 C 756.37281 331.6582 758.70898 333.93992 758.70898 337.29492 C 758.70898 340.67742 756.37281 342.93164 753.32031 342.93164 C 750.24031 342.93164 747.92969 340.67742 747.92969 337.29492 C 747.92969 333.93992 750.24031 331.6582 753.32031 331.6582 z M 781.18945 331.6582 C 784.26945 331.6582 786.55273 333.91242 786.55273 337.29492 C 786.55273 340.67742 784.26945 342.93164 781.18945 342.93164 C 778.10945 342.93164 775.79883 340.67742 775.79883 337.29492 C 775.79883 333.91242 778.10945 331.6582 781.18945 331.6582 z M 798.42969 331.6582 C 801.48219 331.6582 803.79297 333.91242 803.79297 337.29492 C 803.79297 340.67742 801.48219 342.93164 798.42969 342.93164 C 795.34969 342.93164 793.04102 340.67742 793.04102 337.29492 C 793.04102 333.91242 795.34969 331.6582 798.42969 331.6582 z M 859.88281 331.6582 C 862.93531 331.6582 865.27148 333.91242 865.27148 337.29492 C 865.27148 340.67742 862.93531 342.93164 859.88281 342.93164 C 856.80281 342.93164 854.49219 340.67742 854.49219 337.29492 C 854.49219 333.91242 856.80281 331.6582 859.88281 331.6582 z M 918.55469 341.66797 C 917.75719 341.66797 917.09766 342.29984 917.09766 343.15234 C 917.09766 344.00484 917.75719 344.66406 918.55469 344.66406 C 919.35219 344.66406 920.04102 344.00484 920.04102 343.15234 C 920.04102 342.29984 919.35219 341.66797 918.55469 341.66797 z "
         transform="translate(0,652.36222)"
         id="path4241" />
    </g>
    <g
       style="clip-rule:evenodd;fill:#ffffff;fill-rule:evenodd;image-rendering:optimizeQuality;shape-rendering:geometricPrecision;text-rendering:geometricPrecision"
       id="g3424"
       transform="matrix(0.25062657,0,0,0.25062657,142.516,702.36222)">
      <polygon
         style="fill:#ffffff"
         class="fil0"
         points="93,798 383,166 187,219 263,0 93,0 0,389 198,336 "
         id="polygon3426" />
    </g>
    <g
       id="g3445"
       transform="matrix(1.6282048,0,0,1.6282048,737.95636,720.95198)"
       style="fill:#ffffff">
      <path
         style="fill:#ffffff"
         inkscape:connector-curvature="0"
         d="m 76.961,54.103 c 0,14.866 -12.095,26.961 -26.961,26.961 -14.866,0 -26.961,-12.095 -26.961,-26.961 0,-13.299 9.682,-24.372 22.365,-26.561 l 0,7.806 27.199,-15.704 -27.199,-15.707 0,8.462 C 24.422,14.695 8.039,32.519 8.039,54.103 c 0,23.137 18.824,41.96 41.961,41.96 23.138,0 41.961,-18.823 41.961,-41.961 l -15,0 z"
         id="path3447" />
    </g>
    <g
       style="fill:#ffffff;fill-rule:evenodd;stroke:none;stroke-width:1"
       id="g3471"
       transform="matrix(1.1918696,0,0,1.1918716,401.858,726.40215)">
      <g
         style="fill:#ffffff"
         transform="translate(-5443,-2493)"
         id="g3473">
        <path
           inkscape:connector-curvature="0"
           d="m 5605.7394,2504.894 -11.111,-10.034 c -1.679,-1.514 -4.264,-1.382 -5.78,0.295 l -84.505,93.568 -43.877,-39.627 c -1.674,-1.513 -4.263,-1.383 -5.78,0.295 l -10.035,11.11 c -0.727,0.805 -1.105,1.867 -1.049,2.951 0.055,1.084 0.538,2.101 1.344,2.829 l 57.938,52.326 c 0.555,0.501 1.25,0.817 1.984,0.946 0.3,0.07 0.608,0.105 0.92,0.105 0.067,0 0.135,-10e-4 0.202,-0.01 1.086,-0.053 2.107,-0.537 2.835,-1.344 l 97.209,-107.635 c 0.727,-0.805 1.105,-1.867 1.049,-2.951 -0.055,-1.083 -0.538,-2.101 -1.344,-2.829"
           id="path3475"
           style="fill:#ffffff" />
      </g>
    </g>
  </g>
</svg>
