<?xml version="1.0" encoding="UTF-8" standalone="no"?>
<!-- Created with Inkscape (http://www.inkscape.org/) -->

<svg
   xmlns:dc="http://purl.org/dc/elements/1.1/"
   xmlns:cc="http://creativecommons.org/ns#"
   xmlns:rdf="http://www.w3.org/1999/02/22-rdf-syntax-ns#"
   xmlns:svg="http://www.w3.org/2000/svg"
   xmlns="http://www.w3.org/2000/svg"
   xmlns:sodipodi="http://sodipodi.sourceforge.net/DTD/sodipodi-0.dtd"
   xmlns:inkscape="http://www.inkscape.org/namespaces/inkscape"
   width="1000"
   height="400"
   viewBox="0 0 1000 400.00001"
   id="svg2"
   version="1.1"
   inkscape:version="0.91 r13725"
   sodipodi:docname="infographic.svg">
  <defs
     id="defs4">
    <style
       id="style3422"
       type="text/css">
   
    .fil0 {fill:black}
   
  </style>
  </defs>
  <sodipodi:namedview
     id="base"
     pagecolor="#ffffff"
     bordercolor="#666666"
     borderopacity="1.0"
     inkscape:pageopacity="0.0"
     inkscape:pageshadow="2"
     inkscape:zoom="0.88"
     inkscape:cx="430.97913"
     inkscape:cy="278.62069"
     inkscape:document-units="px"
     inkscape:current-layer="layer1"
     showgrid="false"
     units="px"
     inkscape:window-width="1920"
     inkscape:window-height="1055"
     inkscape:window-x="1920"
     inkscape:window-y="0"
     inkscape:window-maximized="1"
     showguides="true" />
  <metadata
     id="metadata7">
    <rdf:RDF>
      <cc:Work
         rdf:about="">
        <dc:format>image/svg+xml</dc:format>
        <dc:type
           rdf:resource="http://purl.org/dc/dcmitype/StillImage" />
        <dc:title />
      </cc:Work>
    </rdf:RDF>
  </metadata>
  <g
     inkscape:label="Layer 1"
     inkscape:groupmode="layer"
     id="layer1"
     transform="translate(0,-652.36222)">
    <text
       xml:space="preserve"
       style="font-style:normal;font-weight:normal;font-size:40px;line-height:125%;font-family:sans-serif;letter-spacing:0px;word-spacing:0px;fill:#1c366b;fill-opacity:1;stroke:none;stroke-width:1px;stroke-linecap:butt;stroke-linejoin:miter;stroke-opacity:1;"
       x="308.57144"
       y="338.07648"
       id="text3336"
       sodipodi:linespacing="125%"><tspan
         sodipodi:role="line"
         id="tspan3338"
         x="308.57144"
         y="338.07648" /></text>
    <g
       style="font-style:normal;font-weight:normal;font-size:40px;line-height:125%;font-family:sans-serif;letter-spacing:0px;word-spacing:0px;fill:#1c366b;fill-opacity:1;stroke:none;stroke-width:1px;stroke-linecap:butt;stroke-linejoin:miter;stroke-opacity:1"
       id="text3361">
      <path
         style="font-style:normal;font-variant:normal;font-weight:bold;font-stretch:normal;font-family:montserrat;-inkscape-font-specification:'montserrat Bold';fill:#1c366b;fill-opacity:1"
         d="M 117.94922 289.7207 L 117.94922 310.125 L 122.23828 310.125 L 122.23828 289.7207 L 117.94922 289.7207 z M 207.04492 289.7207 L 207.04492 310.125 L 208.99805 310.125 L 208.99805 302.53516 C 208.99805 299.23516 210.95109 297.31055 214.05859 297.31055 C 216.80859 297.31055 218.40234 298.87719 218.40234 301.92969 L 218.40234 310.125 L 220.35547 310.125 L 220.35547 301.73828 C 220.35547 297.58578 217.93602 295.55078 214.41602 295.55078 C 211.96852 295.55078 210.07055 296.51195 208.99805 298.18945 L 208.99805 289.7207 L 207.04492 289.7207 z M 301.30859 289.7207 L 301.30859 310.125 L 303.25977 310.125 L 303.25977 306 L 306.66992 302.86523 L 312.5 310.125 L 314.89258 310.125 L 308.12891 301.57227 L 314.31641 295.66016 L 311.89453 295.66016 L 303.25977 303.55273 L 303.25977 289.7207 L 301.30859 289.7207 z M 74.425781 290.54492 C 68.953281 290.54492 66.3125 293.26656 66.3125 296.53906 C 66.3125 303.68906 77.505859 301.21586 77.505859 304.81836 C 77.505859 306.00086 76.432969 306.88086 73.792969 306.88086 C 71.482969 306.88086 69.061953 306.05555 67.439453 304.87305 L 65.927734 308.22656 C 67.632734 309.54656 70.713125 310.45508 73.765625 310.45508 C 79.265625 310.45508 81.933594 307.70578 81.933594 304.48828 C 81.933594 297.42078 70.740234 299.86781 70.740234 296.32031 C 70.740234 295.11031 71.758438 294.11914 74.398438 294.11914 C 76.103437 294.11914 77.944922 294.61531 79.732422 295.63281 L 81.107422 292.25 C 79.319922 291.1225 76.845781 290.54492 74.425781 290.54492 z M 196.20312 292.49805 L 196.20312 295.66016 L 193.61914 295.66016 L 193.61914 297.31055 L 196.20312 297.31055 L 196.20312 306.05469 C 196.20312 308.72219 197.715 310.26172 200.4375 310.26172 C 201.565 310.26172 202.72023 309.93164 203.49023 309.24414 L 202.80273 307.8418 C 202.25273 308.3368 201.4557 308.58594 200.6582 308.58594 C 199.0357 308.58594 198.15625 307.65031 198.15625 305.94531 L 198.15625 297.31055 L 202.55664 297.31055 L 202.55664 295.66016 L 198.15625 295.66016 L 198.15625 292.49805 L 196.20312 292.49805 z M 91.851562 295.10938 C 87.039062 295.10938 83.601562 298.27156 83.601562 302.72656 C 83.601562 307.18156 87.039062 310.3457 91.851562 310.3457 C 94.959063 310.3457 97.406016 308.97047 98.478516 306.60547 L 95.150391 304.78906 C 94.352891 306.21906 93.171719 306.82422 91.824219 306.82422 C 89.651719 306.82422 87.945313 305.31156 87.945312 302.72656 C 87.945312 300.14156 89.651719 298.63086 91.824219 298.63086 C 93.171719 298.63086 94.352891 299.26156 95.150391 300.66406 L 98.478516 298.87695 C 97.406016 296.45695 94.959063 295.10938 91.851562 295.10938 z M 106.94336 295.10938 C 104.57836 295.10938 102.185 295.74344 100.5625 296.89844 L 102.10352 299.89453 C 103.17602 299.04203 104.79773 298.51953 106.36523 298.51953 C 108.67523 298.51953 109.77539 299.59305 109.77539 301.43555 L 106.36523 301.43555 C 101.85523 301.43555 100.01367 303.25078 100.01367 305.86328 C 100.01367 308.42078 102.07602 310.3457 105.54102 310.3457 C 107.71352 310.3457 109.25328 309.6307 110.05078 308.2832 L 110.05078 310.125 L 114.06641 310.125 L 114.06641 301.68164 C 114.06641 297.19914 111.45336 295.10938 106.94336 295.10938 z M 133.01172 295.10938 C 128.50172 295.10938 125.11914 298.29906 125.11914 302.72656 C 125.11914 307.12656 128.4475 310.3457 133.5625 310.3457 C 136.23 310.3457 138.29297 309.52062 139.66797 307.95312 L 137.38477 305.47656 C 136.36727 306.43906 135.23937 306.9082 133.67188 306.9082 C 131.41688 306.9082 129.85 305.78 129.4375 303.9375 L 140.62891 303.9375 C 140.65641 303.58 140.71289 303.1132 140.71289 302.7832 C 140.71289 298.0257 137.35672 295.10938 133.01172 295.10938 z M 177.49023 295.55078 C 175.09773 295.55078 173.0907 296.59453 171.9082 298.51953 L 171.9082 295.66016 L 170.03906 295.66016 L 170.03906 315.46094 L 171.99023 315.46094 L 171.99023 307.40234 C 173.20023 309.27234 175.18023 310.26172 177.49023 310.26172 C 181.61523 310.26172 184.69531 307.29258 184.69531 302.89258 C 184.69531 298.52008 181.61523 295.55078 177.49023 295.55078 z M 231.34766 295.55078 C 227.27766 295.55078 224.2793 298.60258 224.2793 302.89258 C 224.2793 307.18258 227.35914 310.26172 231.86914 310.26172 C 234.15164 310.26172 236.15867 309.43844 237.45117 307.89844 L 236.35156 306.63281 C 235.25156 307.89781 233.68383 308.5293 231.92383 308.5293 C 228.76133 308.5293 226.45242 306.52305 226.23242 303.49805 L 238.33203 303.49805 C 238.33203 303.27805 238.35938 303.05758 238.35938 302.89258 C 238.35938 298.54758 235.41766 295.55078 231.34766 295.55078 z M 279.18359 295.55078 C 274.94859 295.55078 271.8125 298.60258 271.8125 302.89258 C 271.8125 307.18258 274.94859 310.26172 279.18359 310.26172 C 283.41859 310.26172 286.52539 307.18258 286.52539 302.89258 C 286.52539 298.60258 283.41859 295.55078 279.18359 295.55078 z M 297.79883 295.55078 C 295.13133 295.55078 293.29031 296.56719 292.38281 298.49219 L 292.38281 295.66016 L 290.51172 295.66016 L 290.51172 310.125 L 292.46484 310.125 L 292.46484 302.75586 C 292.46484 299.34586 294.30703 297.41992 297.33203 297.41992 C 297.46953 297.41992 297.63383 297.44727 297.79883 297.44727 L 297.79883 295.55078 z M 151.37109 295.66016 L 151.37109 304.04688 C 151.37109 308.19938 153.79156 310.26172 157.47656 310.26172 C 159.78656 310.26172 161.65633 309.24437 162.67383 307.48438 L 162.67383 310.125 L 164.54297 310.125 L 164.54297 295.66016 L 162.58984 295.66016 L 162.58984 303.25 C 162.58984 306.55 160.69297 308.50195 157.66797 308.50195 C 154.91797 308.50195 153.32227 306.93547 153.32227 303.85547 L 153.32227 295.66016 L 151.37109 295.66016 z M 247.02734 295.66016 L 252.47266 310.125 L 254.31641 310.125 L 258.88086 298.27344 L 263.44531 310.125 L 265.28906 310.125 L 270.75977 295.66016 L 268.97266 295.66016 L 264.38086 307.95312 L 259.75977 295.66016 L 258.08398 295.66016 L 253.43555 307.95312 L 248.89844 295.66016 L 247.02734 295.66016 z M 231.34766 297.22656 C 234.18016 297.22656 236.24078 299.20656 236.48828 302.03906 L 226.23242 302.03906 C 226.47992 299.20656 228.54266 297.22656 231.34766 297.22656 z M 177.35352 297.25586 C 180.40602 297.25586 182.74414 299.53758 182.74414 302.89258 C 182.74414 306.27508 180.40602 308.5293 177.35352 308.5293 C 174.27352 308.5293 171.96289 306.27508 171.96289 302.89258 C 171.96289 299.53758 174.27352 297.25586 177.35352 297.25586 z M 279.18359 297.25586 C 282.26359 297.25586 284.54492 299.51008 284.54492 302.89258 C 284.54492 306.27508 282.26359 308.5293 279.18359 308.5293 C 276.10359 308.5293 273.79297 306.27508 273.79297 302.89258 C 273.79297 299.51008 276.10359 297.25586 279.18359 297.25586 z M 133.03906 298.35547 C 134.96406 298.35547 136.36742 299.56555 136.66992 301.43555 L 129.38281 301.43555 C 129.68531 299.53805 131.08656 298.35547 133.03906 298.35547 z M 106.83398 303.9375 L 109.77539 303.9375 L 109.77539 305.44922 C 109.28039 306.79672 108.04328 307.45703 106.61328 307.45703 C 105.10078 307.45703 104.19336 306.74242 104.19336 305.66992 C 104.19336 304.67992 104.82648 303.9375 106.83398 303.9375 z M 246.54492 324.0957 L 246.54492 332.78516 C 245.33492 330.91516 243.35492 329.92578 241.04492 329.92578 C 236.91992 329.92578 233.83984 332.89508 233.83984 337.26758 C 233.83984 341.64008 236.91992 344.63672 241.04492 344.63672 C 243.43742 344.63672 245.44445 343.59313 246.62695 341.64062 L 246.62695 344.5 L 248.49805 344.5 L 248.49805 324.0957 L 246.54492 324.0957 z M 146.35547 329.92578 C 142.12047 329.92578 138.98633 332.97758 138.98633 337.26758 C 138.98633 341.55758 142.12047 344.63672 146.35547 344.63672 C 150.59047 344.63672 153.69922 341.55758 153.69922 337.26758 C 153.69922 332.97758 150.59047 329.92578 146.35547 329.92578 z M 190.7832 329.92578 C 188.2807 329.92578 186.3282 330.94313 185.2832 332.70312 L 185.2832 330.03516 L 183.41211 330.03516 L 183.41211 344.5 L 185.36523 344.5 L 185.36523 336.91016 C 185.36523 333.61016 187.31828 331.68555 190.42578 331.68555 C 193.17578 331.68555 194.76953 333.25219 194.76953 336.30469 L 194.76953 344.5 L 196.72266 344.5 L 196.72266 336.11328 C 196.72266 331.96078 194.3032 329.92578 190.7832 329.92578 z M 207.71289 329.92578 C 203.64289 329.92578 200.64648 332.97758 200.64648 337.26758 C 200.64648 341.55758 203.72633 344.63672 208.23633 344.63672 C 210.51883 344.63672 212.52586 343.81344 213.81836 342.27344 L 212.71875 341.00781 C 211.61875 342.27281 210.05102 342.9043 208.29102 342.9043 C 205.12852 342.9043 202.81961 340.89805 202.59961 337.87305 L 214.69922 337.87305 C 214.69922 337.65305 214.72656 337.43258 214.72656 337.26758 C 214.72656 332.92258 211.78289 329.92578 207.71289 329.92578 z M 224.31055 329.92578 C 220.24055 329.92578 217.24219 332.97758 217.24219 337.26758 C 217.24219 341.55758 220.32398 344.63672 224.83398 344.63672 C 227.11648 344.63672 229.12352 343.81344 230.41602 342.27344 L 229.31641 341.00781 C 228.21641 342.27281 226.64867 342.9043 224.88867 342.9043 C 221.72617 342.9043 219.41531 340.89805 219.19531 337.87305 L 231.29492 337.87305 C 231.29492 337.65305 231.32227 337.43258 231.32227 337.26758 C 231.32227 332.92258 228.38055 329.92578 224.31055 329.92578 z M 123.24609 330.03516 L 129.70898 344.47266 L 129.07617 345.875 C 128.25117 347.68996 127.37258 348.29492 126.08008 348.29492 C 125.03508 348.29492 124.15445 347.91027 123.43945 347.19531 L 122.53125 348.65234 C 123.41125 349.53234 124.70328 349.97266 126.05078 349.97266 C 128.11328 349.97266 129.65328 349.06488 130.86328 346.23242 L 138.09766 330.03516 L 136.17188 330.03516 L 130.72656 342.32812 L 125.28125 330.03516 L 123.24609 330.03516 z M 157.54688 330.03516 L 157.54688 338.42188 C 157.54688 342.57438 159.96734 344.63672 163.65234 344.63672 C 165.96234 344.63672 167.83211 343.61937 168.84961 341.85938 L 168.84961 344.5 L 170.7207 344.5 L 170.7207 330.03516 L 168.76758 330.03516 L 168.76758 337.625 C 168.76758 340.925 166.8707 342.87695 163.8457 342.87695 C 161.0957 342.87695 159.5 341.31047 159.5 338.23047 L 159.5 330.03516 L 157.54688 330.03516 z M 207.71289 331.60156 C 210.54539 331.60156 212.60797 333.58156 212.85547 336.41406 L 202.59961 336.41406 C 202.84711 333.58156 204.90789 331.60156 207.71289 331.60156 z M 224.31055 331.60156 C 227.14305 331.60156 229.20563 333.58156 229.45312 336.41406 L 219.19531 336.41406 C 219.44281 333.58156 221.50555 331.60156 224.31055 331.60156 z M 146.35547 331.63086 C 149.43547 331.63086 151.71875 333.88508 151.71875 337.26758 C 151.71875 340.65008 149.43547 342.9043 146.35547 342.9043 C 143.27547 342.9043 140.9668 340.65008 140.9668 337.26758 C 140.9668 333.88508 143.27547 331.63086 146.35547 331.63086 z M 241.20898 331.63086 C 244.26148 331.63086 246.57227 333.88508 246.57227 337.26758 C 246.57227 340.65008 244.26148 342.9043 241.20898 342.9043 C 238.12898 342.9043 235.82031 340.65008 235.82031 337.26758 C 235.82031 333.88508 238.12898 331.63086 241.20898 331.63086 z M 254.12695 341.64062 C 253.32945 341.64062 252.66992 342.2725 252.66992 343.125 C 252.66992 343.9775 253.32945 344.63672 254.12695 344.63672 C 254.92445 344.63672 255.61328 343.9775 255.61328 343.125 C 255.61328 342.2725 254.92445 341.64062 254.12695 341.64062 z "
         transform="translate(0,652.36222)"
         id="path4265" />
    </g>
    <g
       style="font-style:normal;font-weight:normal;font-size:40px;line-height:125%;font-family:sans-serif;letter-spacing:0px;word-spacing:0px;fill:#1c366b;fill-opacity:1;stroke:none;stroke-width:1px;stroke-linecap:butt;stroke-linejoin:miter;stroke-opacity:1"
       id="text3361-5">
      <path
         style="font-style:normal;font-variant:normal;font-weight:bold;font-stretch:normal;font-size:27.5px;font-family:Montserrat;-inkscape-font-specification:'Montserrat Bold';fill:#1c366b;fill-opacity:1"
         d="M 443.0625 288.48242 C 441.4675 288.48242 440.39648 289.5275 440.39648 290.875 C 440.39648 292.2225 441.4675 293.26758 443.0625 293.26758 C 444.6575 293.26758 445.73047 292.22297 445.73047 290.79297 C 445.73047 289.47297 444.6575 288.48242 443.0625 288.48242 z M 422.87109 289.7207 L 422.87109 310.125 L 427.16211 310.125 L 427.16211 306.35742 L 429.22461 304.32227 L 433.89844 310.125 L 439.0957 310.125 L 432.38672 301.59961 L 438.54688 295.33008 L 433.43164 295.33008 L 427.16211 301.26953 L 427.16211 289.7207 L 422.87109 289.7207 z M 487.85156 289.7207 L 487.85156 310.125 L 489.80469 310.125 L 489.80469 302.53516 C 489.80469 299.23516 491.75773 297.31055 494.86523 297.31055 C 497.61523 297.31055 499.20898 298.87719 499.20898 301.92969 L 499.20898 310.125 L 501.16211 310.125 L 501.16211 301.73828 C 501.16211 297.58578 498.74266 295.55078 495.22266 295.55078 C 492.77516 295.55078 490.87719 296.51195 489.80469 298.18945 L 489.80469 289.7207 L 487.85156 289.7207 z M 582.11523 289.7207 L 582.11523 310.125 L 584.06836 310.125 L 584.06836 306 L 587.47656 302.86523 L 593.30664 310.125 L 595.69922 310.125 L 588.93555 301.57227 L 595.12305 295.66016 L 592.70312 295.66016 L 584.06836 303.55273 L 584.06836 289.7207 L 582.11523 289.7207 z M 412.5957 290.54492 C 407.1232 290.54492 404.48242 293.26656 404.48242 296.53906 C 404.48242 303.68906 415.67578 301.21586 415.67578 304.81836 C 415.67578 306.00086 414.60289 306.88086 411.96289 306.88086 C 409.65289 306.88086 407.23383 306.05555 405.61133 304.87305 L 404.09766 308.22656 C 405.80266 309.54656 408.88305 310.45508 411.93555 310.45508 C 417.43555 310.45508 420.10352 307.70578 420.10352 304.48828 C 420.10352 297.42078 408.91016 299.86781 408.91016 296.32031 C 408.91016 295.11031 409.92836 294.11914 412.56836 294.11914 C 414.27336 294.11914 416.11484 294.61531 417.90234 295.63281 L 419.27734 292.25 C 417.48984 291.1225 415.0157 290.54492 412.5957 290.54492 z M 477.00977 292.49805 L 477.00977 295.66016 L 474.42578 295.66016 L 474.42578 297.31055 L 477.00977 297.31055 L 477.00977 306.05469 C 477.00977 308.72219 478.52359 310.26172 481.24609 310.26172 C 482.37359 310.26172 483.52883 309.93164 484.29883 309.24414 L 483.61133 307.8418 C 483.06133 308.3368 482.26234 308.58594 481.46484 308.58594 C 479.84234 308.58594 478.96289 307.65031 478.96289 305.94531 L 478.96289 297.31055 L 483.36328 297.31055 L 483.36328 295.66016 L 478.96289 295.66016 L 478.96289 292.49805 L 477.00977 292.49805 z M 457.93555 295.10938 C 455.95555 295.10938 454.35961 295.74266 453.28711 297.03516 L 453.28711 295.33008 L 449.18945 295.33008 L 449.18945 315.46094 L 453.48047 315.46094 L 453.48047 308.55664 C 454.58047 309.76664 456.09305 310.3457 457.93555 310.3457 C 462.08805 310.3457 465.30469 307.37406 465.30469 302.72656 C 465.30469 298.07906 462.08805 295.10938 457.93555 295.10938 z M 440.91797 295.33008 L 440.91797 310.125 L 445.20898 310.125 L 445.20898 295.33008 L 440.91797 295.33008 z M 512.1543 295.55078 C 508.0843 295.55078 505.08594 298.60258 505.08594 302.89258 C 505.08594 307.18258 508.16578 310.26172 512.67578 310.26172 C 514.95828 310.26172 516.96531 309.43844 518.25781 307.89844 L 517.1582 306.63281 C 516.0582 307.89781 514.49047 308.5293 512.73047 308.5293 C 509.56797 308.5293 507.25906 306.52305 507.03906 303.49805 L 519.13867 303.49805 C 519.13867 303.27805 519.16602 303.05758 519.16602 302.89258 C 519.16602 298.54758 516.2243 295.55078 512.1543 295.55078 z M 559.99023 295.55078 C 555.75523 295.55078 552.62109 298.60258 552.62109 302.89258 C 552.62109 307.18258 555.75523 310.26172 559.99023 310.26172 C 564.22523 310.26172 567.33203 307.18258 567.33203 302.89258 C 567.33203 298.60258 564.22523 295.55078 559.99023 295.55078 z M 578.60742 295.55078 C 575.93992 295.55078 574.09695 296.56719 573.18945 298.49219 L 573.18945 295.66016 L 571.31836 295.66016 L 571.31836 310.125 L 573.27148 310.125 L 573.27148 302.75586 C 573.27148 299.34586 575.11367 297.41992 578.13867 297.41992 C 578.27617 297.41992 578.44242 297.44727 578.60742 297.44727 L 578.60742 295.55078 z M 527.83594 295.66016 L 533.2793 310.125 L 535.12305 310.125 L 539.6875 298.27344 L 544.25195 310.125 L 546.0957 310.125 L 551.56836 295.66016 L 549.7793 295.66016 L 545.1875 307.95312 L 540.56836 295.66016 L 538.89062 295.66016 L 534.24219 307.95312 L 529.70508 295.66016 L 527.83594 295.66016 z M 512.1543 297.22656 C 514.9868 297.22656 517.04938 299.20656 517.29688 302.03906 L 507.03906 302.03906 C 507.28656 299.20656 509.3493 297.22656 512.1543 297.22656 z M 559.99023 297.25586 C 563.07023 297.25586 565.35352 299.51008 565.35352 302.89258 C 565.35352 306.27508 563.07023 308.5293 559.99023 308.5293 C 556.91023 308.5293 554.59961 306.27508 554.59961 302.89258 C 554.59961 299.51008 556.91023 297.25586 559.99023 297.25586 z M 457.19336 298.63086 C 459.33836 298.63086 460.95898 300.16906 460.95898 302.72656 C 460.95898 305.28406 459.33836 306.82422 457.19336 306.82422 C 455.04836 306.82422 453.42578 305.28406 453.42578 302.72656 C 453.42578 300.16906 455.04836 298.63086 457.19336 298.63086 z M 503.66602 324.0957 L 503.66602 332.78516 C 502.45602 330.91516 500.47602 329.92578 498.16602 329.92578 C 494.04102 329.92578 490.96094 332.89508 490.96094 337.26758 C 490.96094 341.64008 494.04102 344.63672 498.16602 344.63672 C 500.55852 344.63672 502.56555 343.59313 503.74805 341.64062 L 503.74805 344.5 L 505.61719 344.5 L 505.61719 324.0957 L 503.66602 324.0957 z M 546.10938 325.25 L 546.24609 332.50977 L 547.70508 332.50977 L 547.8418 325.25 L 546.10938 325.25 z M 552.79688 326.87305 L 552.79688 330.03516 L 550.21094 330.03516 L 550.21094 331.68555 L 552.79688 331.68555 L 552.79688 340.42969 C 552.79688 343.09719 554.30875 344.63672 557.03125 344.63672 C 558.15875 344.63672 559.31398 344.30664 560.08398 343.61914 L 559.39648 342.2168 C 558.84648 342.7118 558.04945 342.96094 557.25195 342.96094 C 555.62945 342.96094 554.75 342.02531 554.75 340.32031 L 554.75 331.68555 L 559.14844 331.68555 L 559.14844 330.03516 L 554.75 330.03516 L 554.75 326.87305 L 552.79688 326.87305 z M 455.36133 329.92578 C 451.12633 329.92578 447.99219 332.97758 447.99219 337.26758 C 447.99219 341.55758 451.12633 344.63672 455.36133 344.63672 C 459.59633 344.63672 462.70312 341.55758 462.70312 337.26758 C 462.70312 332.97758 459.59633 329.92578 455.36133 329.92578 z M 516.96875 329.92578 C 512.73375 329.92578 509.59766 332.97758 509.59766 337.26758 C 509.59766 341.55758 512.73375 344.63672 516.96875 344.63672 C 521.20375 344.63672 524.31055 341.55758 524.31055 337.26758 C 524.31055 332.97758 521.20375 329.92578 516.96875 329.92578 z M 535.66602 329.92578 C 533.16352 329.92578 531.21102 330.94313 530.16602 332.70312 L 530.16602 330.03516 L 528.29688 330.03516 L 528.29688 344.5 L 530.25 344.5 L 530.25 336.91016 C 530.25 333.61016 532.20109 331.68555 535.30859 331.68555 C 538.05859 331.68555 539.6543 333.25219 539.6543 336.30469 L 539.6543 344.5 L 541.60742 344.5 L 541.60742 336.11328 C 541.60742 331.96078 539.18602 329.92578 535.66602 329.92578 z M 432.25195 330.03516 L 438.71484 344.47266 L 438.08203 345.875 C 437.25703 347.68996 436.37648 348.29492 435.08398 348.29492 C 434.03898 348.29492 433.16031 347.91027 432.44531 347.19531 L 431.53711 348.65234 C 432.41711 349.53234 433.70914 349.97266 435.05664 349.97266 C 437.11914 349.97266 438.65914 349.06488 439.86914 346.23242 L 447.10156 330.03516 L 445.17773 330.03516 L 439.73242 342.32812 L 434.28711 330.03516 L 432.25195 330.03516 z M 466.55273 330.03516 L 466.55273 338.42188 C 466.55273 342.57438 468.9732 344.63672 472.6582 344.63672 C 474.9682 344.63672 476.83797 343.61937 477.85547 341.85938 L 477.85547 344.5 L 479.72461 344.5 L 479.72461 330.03516 L 477.77344 330.03516 L 477.77344 337.625 C 477.77344 340.925 475.87461 342.87695 472.84961 342.87695 C 470.09961 342.87695 468.50586 341.31047 468.50586 338.23047 L 468.50586 330.03516 L 466.55273 330.03516 z M 455.36133 331.63086 C 458.44133 331.63086 460.72461 333.88508 460.72461 337.26758 C 460.72461 340.65008 458.44133 342.9043 455.36133 342.9043 C 452.28133 342.9043 449.9707 340.65008 449.9707 337.26758 C 449.9707 333.88508 452.28133 331.63086 455.36133 331.63086 z M 498.33008 331.63086 C 501.38258 331.63086 503.69336 333.88508 503.69336 337.26758 C 503.69336 340.65008 501.38258 342.9043 498.33008 342.9043 C 495.25008 342.9043 492.93945 340.65008 492.93945 337.26758 C 492.93945 333.88508 495.25008 331.63086 498.33008 331.63086 z M 516.96875 331.63086 C 520.04875 331.63086 522.33008 333.88508 522.33008 337.26758 C 522.33008 340.65008 520.04875 342.9043 516.96875 342.9043 C 513.88875 342.9043 511.57812 340.65008 511.57812 337.26758 C 511.57812 333.88508 513.88875 331.63086 516.96875 331.63086 z M 564.09961 341.64062 C 563.30211 341.64062 562.64258 342.2725 562.64258 343.125 C 562.64258 343.9775 563.30211 344.63672 564.09961 344.63672 C 564.89711 344.63672 565.58398 343.9775 565.58398 343.125 C 565.58398 342.2725 564.89711 341.64062 564.09961 341.64062 z "
         transform="translate(0,652.36222)"
         id="path4224" />
    </g>
    <g
       style="font-style:normal;font-variant:normal;font-weight:normal;font-stretch:normal;font-size:40px;line-height:125%;font-family:montserrat;-inkscape-font-specification:montserrat;letter-spacing:0px;word-spacing:0px;fill:#1c366b;fill-opacity:1;stroke:none;stroke-width:1px;stroke-linecap:butt;stroke-linejoin:miter;stroke-opacity:1"
       id="text3361-8">
      <path
         style="font-style:normal;font-variant:normal;font-weight:bold;font-stretch:normal;font-family:montserrat;-inkscape-font-specification:'montserrat Bold';fill:#1c366b;fill-opacity:1"
         d="M 925.66992 289.60938 C 922.83742 289.60938 921.29688 291.31539 921.29688 293.90039 L 921.29688 295.6875 L 918.71289 295.6875 L 918.71289 297.33789 L 921.29688 297.33789 L 921.29688 310.15234 L 923.25 310.15234 L 923.25 297.33789 L 927.65039 297.33789 L 927.65039 295.6875 L 923.19531 295.6875 L 923.19531 293.98242 C 923.19531 292.19492 924.07445 291.25977 925.75195 291.25977 C 926.57695 291.25977 927.34844 291.50711 927.89844 291.97461 L 928.55859 290.51758 C 927.84359 289.91258 926.74242 289.60938 925.66992 289.60938 z M 804.38477 289.74805 C 803.58727 289.74805 802.95508 290.38055 802.95508 291.12305 C 802.95508 291.89305 803.58727 292.52539 804.38477 292.52539 C 805.20977 292.52539 805.81445 291.8932 805.81445 291.0957 C 805.81445 290.3532 805.18227 289.74805 804.38477 289.74805 z M 822.05469 289.74805 L 822.05469 298.4375 C 820.84469 296.5675 818.86469 295.57812 816.55469 295.57812 C 812.42969 295.57812 809.34961 298.54742 809.34961 302.91992 C 809.34961 307.29242 812.42969 310.28906 816.55469 310.28906 C 818.94719 310.28906 820.95422 309.24547 822.13672 307.29297 L 822.13672 310.15234 L 824.00586 310.15234 L 824.00586 289.74805 L 822.05469 289.74805 z M 719.22266 290.57227 C 713.75016 290.57227 711.10938 293.29586 711.10938 296.56836 C 711.10938 303.71836 722.30273 301.2432 722.30273 304.8457 C 722.30273 306.0282 721.22984 306.9082 718.58984 306.9082 C 716.27984 306.9082 713.85883 306.08289 712.23633 304.90039 L 710.72461 308.25586 C 712.42961 309.57586 715.51 310.48242 718.5625 310.48242 C 724.0625 310.48242 726.72852 307.73312 726.72852 304.51562 C 726.72852 297.44813 715.53711 299.89516 715.53711 296.34766 C 715.53711 295.13766 716.55336 294.14844 719.19336 294.14844 C 720.89836 294.14844 722.7418 294.64266 724.5293 295.66016 L 725.9043 292.27734 C 724.1168 291.14984 721.64266 290.57227 719.22266 290.57227 z M 736.29102 295.13672 C 731.78102 295.13672 728.39844 298.32836 728.39844 302.75586 C 728.39844 307.15586 731.72484 310.37305 736.83984 310.37305 C 739.50734 310.37305 741.57031 309.54797 742.94531 307.98047 L 740.66211 305.50586 C 739.64461 306.46836 738.51867 306.93555 736.95117 306.93555 C 734.69617 306.93555 733.12734 305.80734 732.71484 303.96484 L 743.9082 303.96484 C 743.9357 303.60734 743.99023 303.14055 743.99023 302.81055 C 743.99023 298.05305 740.63602 295.13672 736.29102 295.13672 z M 753.63867 295.13672 C 749.12867 295.13672 745.74609 298.32836 745.74609 302.75586 C 745.74609 307.15586 749.07445 310.37305 754.18945 310.37305 C 756.85695 310.37305 758.91797 309.54797 760.29297 307.98047 L 758.01172 305.50586 C 756.99422 306.46836 755.86633 306.93555 754.29883 306.93555 C 752.04383 306.93555 750.47695 305.80734 750.06445 303.96484 L 761.25586 303.96484 C 761.28336 303.60734 761.33984 303.14055 761.33984 302.81055 C 761.33984 298.05305 757.98367 295.13672 753.63867 295.13672 z M 777.74414 295.57812 C 773.67414 295.57812 770.67773 298.62992 770.67773 302.91992 C 770.67773 307.20992 773.75758 310.28906 778.26758 310.28906 C 780.55008 310.28906 782.55711 309.46578 783.84961 307.92578 L 782.75 306.66016 C 781.65 307.92516 780.08227 308.55664 778.32227 308.55664 C 775.15977 308.55664 772.84891 306.55039 772.62891 303.52539 L 784.73047 303.52539 C 784.73047 303.30539 784.75781 303.08492 784.75781 302.91992 C 784.75781 298.57492 781.81414 295.57812 777.74414 295.57812 z M 835.05469 295.57812 C 830.98469 295.57812 827.98633 298.62992 827.98633 302.91992 C 827.98633 307.20992 831.06617 310.28906 835.57617 310.28906 C 837.85867 310.28906 839.86766 309.46578 841.16016 307.92578 L 840.05859 306.66016 C 838.95859 307.92516 837.39281 308.55664 835.63281 308.55664 C 832.47031 308.55664 830.15945 306.55039 829.93945 303.52539 L 842.03906 303.52539 C 842.03906 303.30539 842.06641 303.08492 842.06641 302.91992 C 842.06641 298.57492 839.12469 295.57812 835.05469 295.57812 z M 853.41016 295.57812 C 850.90766 295.57812 848.95516 296.59547 847.91016 298.35547 L 847.91016 295.6875 L 846.04102 295.6875 L 846.04102 310.15234 L 847.99414 310.15234 L 847.99414 302.5625 C 847.99414 299.2625 849.94523 297.33789 853.05273 297.33789 C 855.80273 297.33789 857.39844 298.90453 857.39844 301.95703 L 857.39844 310.15234 L 859.35156 310.15234 L 859.35156 301.76562 C 859.35156 297.61312 856.93016 295.57812 853.41016 295.57812 z M 870.72656 295.57812 C 866.40906 295.57812 863.27539 298.60242 863.27539 302.91992 C 863.27539 307.23742 866.40906 310.28906 870.72656 310.28906 C 873.17406 310.28906 875.23758 309.29969 876.39258 307.42969 L 874.93555 306.43945 C 873.94555 307.89695 872.40406 308.55664 870.72656 308.55664 C 867.56406 308.55664 865.25586 306.32992 865.25586 302.91992 C 865.25586 299.53742 867.56406 297.2832 870.72656 297.2832 C 872.40406 297.2832 873.94555 297.97023 874.93555 299.42773 L 876.39258 298.4375 C 875.23758 296.54 873.17406 295.57812 870.72656 295.57812 z M 885.54297 295.57812 C 881.47297 295.57812 878.47461 298.62992 878.47461 302.91992 C 878.47461 307.20992 881.55445 310.28906 886.06445 310.28906 C 888.34695 310.28906 890.35594 309.46578 891.64844 307.92578 L 890.54688 306.66016 C 889.44687 307.92516 887.88109 308.55664 886.12109 308.55664 C 882.95859 308.55664 880.64773 306.55039 880.42773 303.52539 L 892.52734 303.52539 C 892.52734 303.30539 892.55469 303.08492 892.55469 302.91992 C 892.55469 298.57492 889.61297 295.57812 885.54297 295.57812 z M 909.63867 295.57812 C 905.40367 295.57812 902.26953 298.62992 902.26953 302.91992 C 902.26953 307.20992 905.40367 310.28906 909.63867 310.28906 C 913.87367 310.28906 916.98242 307.20992 916.98242 302.91992 C 916.98242 298.62992 913.87367 295.57812 909.63867 295.57812 z M 785.76758 295.6875 L 792.17578 310.15234 L 794.18359 310.15234 L 800.61719 295.6875 L 798.69336 295.6875 L 793.2207 308.00781 L 787.80273 295.6875 L 785.76758 295.6875 z M 803.39453 295.6875 L 803.39453 310.15234 L 805.34766 310.15234 L 805.34766 295.6875 L 803.39453 295.6875 z M 777.74414 297.25586 C 780.57664 297.25586 782.63922 299.23586 782.88672 302.06836 L 772.62891 302.06836 C 772.87641 299.23586 774.93914 297.25586 777.74414 297.25586 z M 835.05469 297.25586 C 837.88719 297.25586 839.94977 299.23586 840.19727 302.06836 L 829.93945 302.06836 C 830.18695 299.23586 832.24969 297.25586 835.05469 297.25586 z M 885.54297 297.25586 C 888.37547 297.25586 890.43805 299.23586 890.68555 302.06836 L 880.42773 302.06836 C 880.67523 299.23586 882.73797 297.25586 885.54297 297.25586 z M 816.71875 297.2832 C 819.77125 297.2832 822.08203 299.53742 822.08203 302.91992 C 822.08203 306.30242 819.77125 308.55664 816.71875 308.55664 C 813.63875 308.55664 811.33008 306.30242 811.33008 302.91992 C 811.33008 299.53742 813.63875 297.2832 816.71875 297.2832 z M 909.63867 297.2832 C 912.71867 297.2832 915.00195 299.53742 915.00195 302.91992 C 915.00195 306.30242 912.71867 308.55664 909.63867 308.55664 C 906.55867 308.55664 904.25 306.30242 904.25 302.91992 C 904.25 299.53742 906.55867 297.2832 909.63867 297.2832 z M 736.31836 298.38281 C 738.24336 298.38281 739.64477 299.59289 739.94727 301.46289 L 732.66016 301.46289 C 732.96266 299.56539 734.36586 298.38281 736.31836 298.38281 z M 753.66602 298.38281 C 755.59102 298.38281 756.99437 299.59289 757.29688 301.46289 L 750.00977 301.46289 C 750.31227 299.56539 751.71352 298.38281 753.66602 298.38281 z M 803.76562 324.12305 L 803.76562 332.8125 C 802.55562 330.9425 800.57562 329.95312 798.26562 329.95312 C 794.14062 329.95312 791.06055 332.92242 791.06055 337.29492 C 791.06055 341.66742 794.14062 344.66406 798.26562 344.66406 C 800.65813 344.66406 802.66516 343.62047 803.84766 341.66797 L 803.84766 344.52734 L 805.71875 344.52734 L 805.71875 324.12305 L 803.76562 324.12305 z M 846.14453 324.12305 C 845.34703 324.12305 844.71484 324.75555 844.71484 325.49805 C 844.71484 326.26805 845.34703 326.90039 846.14453 326.90039 C 846.96953 326.90039 847.57422 326.2682 847.57422 325.4707 C 847.57422 324.7282 846.94203 324.12305 846.14453 324.12305 z M 852.56641 324.12305 L 852.56641 344.52734 L 854.4375 344.52734 L 854.4375 341.66797 C 855.62 343.62047 857.62703 344.66406 860.01953 344.66406 C 864.14453 344.66406 867.22461 341.66742 867.22461 337.29492 C 867.22461 332.92242 864.14453 329.95312 860.01953 329.95312 C 857.70953 329.95312 855.72953 330.9425 854.51953 332.8125 L 854.51953 324.12305 L 852.56641 324.12305 z M 872.19531 324.12305 C 871.39781 324.12305 870.76367 324.75555 870.76367 325.49805 C 870.76367 326.26805 871.39781 326.90039 872.19531 326.90039 C 873.02031 326.90039 873.625 326.2682 873.625 325.4707 C 873.625 324.7282 872.99281 324.12305 872.19531 324.12305 z M 878.61719 324.12305 L 878.61719 344.52734 L 880.56836 344.52734 L 880.56836 324.12305 L 878.61719 324.12305 z M 887.01953 324.12305 C 886.22203 324.12305 885.58789 324.75555 885.58789 325.49805 C 885.58789 326.26805 886.22203 326.90039 887.01953 326.90039 C 887.84453 326.90039 888.44922 326.2682 888.44922 325.4707 C 888.44922 324.7282 887.81703 324.12305 887.01953 324.12305 z M 893.77148 326.90039 L 893.77148 330.0625 L 891.18555 330.0625 L 891.18555 331.71289 L 893.77148 331.71289 L 893.77148 340.45703 C 893.77148 343.12453 895.28336 344.66406 898.00586 344.66406 C 899.13336 344.66406 900.28859 344.33594 901.05859 343.64844 L 900.37109 342.24414 C 899.82109 342.73914 899.02406 342.98828 898.22656 342.98828 C 896.60406 342.98828 895.72266 342.05266 895.72266 340.34766 L 895.72266 331.71289 L 900.12305 331.71289 L 900.12305 330.0625 L 895.72266 330.0625 L 895.72266 326.90039 L 893.77148 326.90039 z M 726.06055 329.95312 C 723.39305 329.95312 721.55008 330.96953 720.64258 332.89453 L 720.64258 330.0625 L 718.77344 330.0625 L 718.77344 344.52734 L 720.72461 344.52734 L 720.72461 337.1582 C 720.72461 333.7482 722.56875 331.82227 725.59375 331.82227 C 725.73125 331.82227 725.89555 331.84961 726.06055 331.84961 L 726.06055 329.95312 z M 735.01758 329.95312 C 730.94758 329.95312 727.95117 333.00492 727.95117 337.29492 C 727.95117 341.58492 731.03102 344.66406 735.54102 344.66406 C 737.82352 344.66406 739.83055 343.84078 741.12305 342.30078 L 740.02344 341.03516 C 738.92344 342.30016 737.3557 342.93164 735.5957 342.93164 C 732.4332 342.93164 730.12234 340.92539 729.90234 337.90039 L 742.00195 337.90039 C 742.00195 337.68039 742.0293 337.45992 742.0293 337.29492 C 742.0293 332.94992 739.08758 329.95312 735.01758 329.95312 z M 753.45703 329.95312 C 751.06453 329.95312 749.0575 330.99687 747.875 332.92188 L 747.875 330.0625 L 746.00391 330.0625 L 746.00391 349.86328 L 747.95703 349.86328 L 747.95703 341.80469 C 749.16703 343.67469 751.14703 344.66406 753.45703 344.66406 C 757.58203 344.66406 760.66211 341.69492 760.66211 337.29492 C 760.66211 332.92242 757.58203 329.95312 753.45703 329.95312 z M 771.92969 329.95312 C 769.26219 329.95312 767.41922 330.96953 766.51172 332.89453 L 766.51172 330.0625 L 764.64258 330.0625 L 764.64258 344.52734 L 766.59375 344.52734 L 766.59375 337.1582 C 766.59375 333.7482 768.43789 331.82227 771.46289 331.82227 C 771.60039 331.82227 771.76469 331.84961 771.92969 331.84961 L 771.92969 329.95312 z M 781.18945 329.95312 C 776.95445 329.95312 773.82031 333.00492 773.82031 337.29492 C 773.82031 341.58492 776.95445 344.66406 781.18945 344.66406 C 785.42445 344.66406 788.53125 341.58492 788.53125 337.29492 C 788.53125 333.00492 785.42445 329.95312 781.18945 329.95312 z M 835.68164 329.95312 C 831.36414 329.95312 828.22852 332.97742 828.22852 337.29492 C 828.22852 341.61242 831.36414 344.66406 835.68164 344.66406 C 838.12914 344.66406 840.1907 343.67469 841.3457 341.80469 L 839.88867 340.81445 C 838.89867 342.27195 837.35914 342.93164 835.68164 342.93164 C 832.51914 342.93164 830.20898 340.70492 830.20898 337.29492 C 830.20898 333.91242 832.51914 331.6582 835.68164 331.6582 C 837.35914 331.6582 838.89867 332.34523 839.88867 333.80273 L 841.3457 332.8125 C 840.1907 330.915 838.12914 329.95312 835.68164 329.95312 z M 811.01758 330.0625 L 811.01758 338.44922 C 811.01758 342.60172 813.43805 344.66406 817.12305 344.66406 C 819.43305 344.66406 821.30281 343.64672 822.32031 341.88672 L 822.32031 344.52734 L 824.19141 344.52734 L 824.19141 330.0625 L 822.23828 330.0625 L 822.23828 337.65234 C 822.23828 340.95234 820.34141 342.9043 817.31641 342.9043 C 814.56641 342.9043 812.9707 341.33781 812.9707 338.25781 L 812.9707 330.0625 L 811.01758 330.0625 z M 845.1543 330.0625 L 845.1543 344.52734 L 847.10742 344.52734 L 847.10742 330.0625 L 845.1543 330.0625 z M 871.20508 330.0625 L 871.20508 344.52734 L 873.15625 344.52734 L 873.15625 330.0625 L 871.20508 330.0625 z M 886.0293 330.0625 L 886.0293 344.52734 L 887.98047 344.52734 L 887.98047 330.0625 L 886.0293 330.0625 z M 901.64844 330.0625 L 908.11133 344.5 L 907.47852 345.90234 C 906.65352 347.71733 905.77492 348.32227 904.48242 348.32227 C 903.43742 348.32227 902.5568 347.93765 901.8418 347.22266 L 900.93359 348.67969 C 901.81359 349.55969 903.10758 350 904.45508 350 C 906.51758 350 908.05758 349.09226 909.26758 346.25977 L 916.5 330.0625 L 914.57422 330.0625 L 909.12891 342.35547 L 903.68359 330.0625 L 901.64844 330.0625 z M 735.01758 331.63086 C 737.85008 331.63086 739.91266 333.61086 740.16016 336.44336 L 729.90234 336.44336 C 730.14984 333.61086 732.21258 331.63086 735.01758 331.63086 z M 753.32031 331.6582 C 756.37281 331.6582 758.70898 333.93992 758.70898 337.29492 C 758.70898 340.67742 756.37281 342.93164 753.32031 342.93164 C 750.24031 342.93164 747.92969 340.67742 747.92969 337.29492 C 747.92969 333.93992 750.24031 331.6582 753.32031 331.6582 z M 781.18945 331.6582 C 784.26945 331.6582 786.55273 333.91242 786.55273 337.29492 C 786.55273 340.67742 784.26945 342.93164 781.18945 342.93164 C 778.10945 342.93164 775.79883 340.67742 775.79883 337.29492 C 775.79883 333.91242 778.10945 331.6582 781.18945 331.6582 z M 798.42969 331.6582 C 801.48219 331.6582 803.79297 333.91242 803.79297 337.29492 C 803.79297 340.67742 801.48219 342.93164 798.42969 342.93164 C 795.34969 342.93164 793.04102 340.67742 793.04102 337.29492 C 793.04102 333.91242 795.34969 331.6582 798.42969 331.6582 z M 859.88281 331.6582 C 862.93531 331.6582 865.27148 333.91242 865.27148 337.29492 C 865.27148 340.67742 862.93531 342.93164 859.88281 342.93164 C 856.80281 342.93164 854.49219 340.67742 854.49219 337.29492 C 854.49219 333.91242 856.80281 331.6582 859.88281 331.6582 z M 918.55469 341.66797 C 917.75719 341.66797 917.09766 342.29984 917.09766 343.15234 C 917.09766 344.00484 917.75719 344.66406 918.55469 344.66406 C 919.35219 344.66406 920.04102 344.00484 920.04102 343.15234 C 920.04102 342.29984 919.35219 341.66797 918.55469 341.66797 z "
         transform="translate(0,652.36222)"
         id="path4165" />
    </g>
    <g
       id="g3445"
       transform="matrix(1.6282048,0,0,1.6282048,737.95636,720.95198)"
       style="fill:#1c366b;fill-opacity:1">
      <path
         style="fill:#1c366b;fill-opacity:1"
         inkscape:connector-curvature="0"
         d="m 76.961,54.103 c 0,14.866 -12.095,26.961 -26.961,26.961 -14.866,0 -26.961,-12.095 -26.961,-26.961 0,-13.299 9.682,-24.372 22.365,-26.561 l 0,7.806 27.199,-15.704 -27.199,-15.707 0,8.462 C 24.422,14.695 8.039,32.519 8.039,54.103 c 0,23.137 18.824,41.96 41.961,41.96 23.138,0 41.961,-18.823 41.961,-41.961 l -15,0 z"
         id="path3447" />
    </g>
    <flowRoot
       xml:space="preserve"
       id="flowRoot4189"
       style="fill:#1c366b;stroke:none;stroke-opacity:1;stroke-width:1px;stroke-linejoin:miter;stroke-linecap:butt;fill-opacity:1;font-family:sans-serif;font-style:normal;font-weight:normal;font-size:40px;line-height:125%;letter-spacing:0px;word-spacing:0px;"><flowRegion
         id="flowRegion4191"><rect
           id="rect4193"
           width="26.136364"
           height="203.40909"
           x="103.40909"
           y="-186.36363"
           style="fill:#1c366b;fill-opacity:1;" /></flowRegion><flowPara
         id="flowPara4195" /></flowRoot>    <g
       transform="matrix(5.7692308,0,0,5.7692308,-3182,-3553.407)"
       id="g4206"
       style="fill:#1c366b;fill-opacity:1">
      <g
         id="g4208"
         style="fill:#1c366b;fill-opacity:1">
        <polygon
           points="584,742 584,747 593,747 593,756 598,756 598,742 "
           id="polygon4210"
           style="fill:#1c366b;fill-opacity:1" />
        <polygon
           points="578,748 578,753 587,753 587,762 592,762 592,748 "
           id="polygon4212"
           style="fill:#1c366b;fill-opacity:1" />
        <rect
           x="572"
           y="754"
           width="14"
           height="14"
           id="rect4214"
           style="fill:#1c366b;fill-opacity:1" />
      </g>
    </g>
    <g
       id="g4266"
       transform="matrix(3.7406484,0,0,3.7406484,375.4362,672.74875)"
       style="fill:#1c366b;fill-opacity:1">
      <polygon
         points="59.2,19.2 54,14.6 27.8,44.5 12.2,29.5 7.4,34.6 28.2,54.7 "
         id="polygon4268"
         style="fill:#1c366b;fill-opacity:1" />
    </g>
  </g>
</svg>
