<?xml version="1.0" encoding="UTF-8" standalone="no"?>
<!-- Created with Inkscape (http://www.inkscape.org/) -->

<svg
   xmlns:dc="http://purl.org/dc/elements/1.1/"
   xmlns:cc="http://creativecommons.org/ns#"
   xmlns:rdf="http://www.w3.org/1999/02/22-rdf-syntax-ns#"
   xmlns:svg="http://www.w3.org/2000/svg"
   xmlns="http://www.w3.org/2000/svg"
   xmlns:sodipodi="http://sodipodi.sourceforge.net/DTD/sodipodi-0.dtd"
   xmlns:inkscape="http://www.inkscape.org/namespaces/inkscape"
   width="1000"
   height="500"
   viewBox="0 0 1000 500.00001"
   id="svg2"
   version="1.1"
   inkscape:version="0.91 r13725"
   sodipodi:docname="infographic.svg">
  <defs
     id="defs4">
    <style
       id="style3422"
       type="text/css">
   
    .fil0 {fill:black}
   
  </style>
  </defs>
  <sodipodi:namedview
     id="base"
     pagecolor="#ffffff"
     bordercolor="#666666"
     borderopacity="1.0"
     inkscape:pageopacity="0.0"
     inkscape:pageshadow="2"
     inkscape:zoom="1.2316035"
     inkscape:cx="512.92898"
     inkscape:cy="219.47601"
     inkscape:document-units="px"
     inkscape:current-layer="text3361-8"
     showgrid="false"
     units="px"
     inkscape:window-width="1920"
     inkscape:window-height="1019"
     inkscape:window-x="0"
     inkscape:window-y="0"
     inkscape:window-maximized="1"
     showguides="true" />
  <metadata
     id="metadata7">
    <rdf:RDF>
      <cc:Work
         rdf:about="">
        <dc:format>image/svg+xml</dc:format>
        <dc:type
           rdf:resource="http://purl.org/dc/dcmitype/StillImage" />
        <dc:title></dc:title>
      </cc:Work>
    </rdf:RDF>
  </metadata>
  <g
     inkscape:label="Layer 1"
     inkscape:groupmode="layer"
     id="layer1"
     transform="translate(0,-552.36222)">
    <text
       xml:space="preserve"
       style="font-style:normal;font-weight:normal;font-size:40px;line-height:125%;font-family:sans-serif;letter-spacing:0px;word-spacing:0px;fill:#000000;fill-opacity:1;stroke:none;stroke-width:1px;stroke-linecap:butt;stroke-linejoin:miter;stroke-opacity:1"
       x="308.57144"
       y="338.07648"
       id="text3336"
       sodipodi:linespacing="125%"><tspan
         sodipodi:role="line"
         id="tspan3338"
         x="308.57144"
         y="338.07648" /></text>
    <rect
       style="fill:#1c366b;fill-opacity:1"
       id="rect3359"
       width="1000"
       height="500"
       x="0"
       y="552.36218" />
    <g
       style="font-style:normal;font-weight:normal;font-size:40px;line-height:125%;font-family:sans-serif;letter-spacing:0px;word-spacing:0px;fill:#ffffff;fill-opacity:1;stroke:none;stroke-width:1px;stroke-linecap:butt;stroke-linejoin:miter;stroke-opacity:1"
       id="text3361">
      <g
         id="g4238">
        <path
           style="font-style:normal;font-variant:normal;font-weight:bold;font-stretch:normal;font-size:35px;font-family:Montserrat;-inkscape-font-specification:'Montserrat Bold';fill:#ffffff"
           d="M 155.9043 348.2793 L 155.9043 357.41406 C 154.5393 355.87406 152.57953 355.14063 150.26953 355.14062 C 144.94953 355.14062 140.85547 358.92094 140.85547 364.83594 C 140.85547 370.75094 144.94953 374.5293 150.26953 374.5293 C 152.78953 374.5293 154.78539 373.72508 156.15039 372.08008 L 156.15039 374.25 L 161.36523 374.25 L 161.36523 348.2793 L 155.9043 348.2793 z M 190.97461 348.2793 L 190.97461 374.25 L 194.33398 374.25 L 194.33398 364.69531 C 194.33398 360.67031 196.64484 358.53516 200.21484 358.53516 C 203.39984 358.53516 205.21875 360.32094 205.21875 363.96094 L 205.21875 374.25 L 208.58008 374.25 L 208.58008 363.57422 C 208.58008 358.11422 205.39391 355.52539 200.87891 355.52539 C 198.04391 355.52539 195.73398 356.53922 194.33398 358.32422 L 194.33398 348.2793 L 190.97461 348.2793 z M 312.99609 348.2793 L 312.99609 374.25 L 316.35547 374.25 L 316.35547 369.17578 L 320.20508 365.60547 L 327.17188 374.25 L 331.30078 374.25 L 322.72656 363.36523 L 330.53125 355.69922 L 326.4707 355.69922 L 316.35547 364.93945 L 316.35547 348.2793 L 312.99609 348.2793 z M 60.814453 349.33008 C 53.849453 349.33008 50.490234 352.79594 50.490234 356.96094 C 50.490234 366.06094 64.734375 362.90914 64.734375 367.49414 C 64.734375 368.99914 63.369766 370.11914 60.009766 370.11914 C 57.069766 370.11914 53.990781 369.06945 51.925781 367.56445 L 50 371.83594 C 52.17 373.51594 56.089609 374.66992 59.974609 374.66992 C 66.974609 374.66992 70.369141 371.16922 70.369141 367.07422 C 70.369141 358.07922 56.125 361.19469 56.125 356.67969 C 56.125 355.13969 57.419297 353.88086 60.779297 353.88086 C 62.949297 353.88086 65.295312 354.50969 67.570312 355.80469 L 69.320312 351.5 C 67.045312 350.065 63.894453 349.33008 60.814453 349.33008 z M 176.97266 351.64062 L 176.97266 355.69922 L 173.82227 355.69922 L 173.82227 358.46484 L 176.97266 358.46484 L 176.97266 368.65039 C 176.97266 372.39539 179.10656 374.46094 182.85156 374.46094 C 184.35656 374.46094 185.89711 374.03906 186.91211 373.16406 L 185.86328 370.75 C 185.16328 371.31 184.21828 371.625 183.23828 371.625 C 181.38328 371.625 180.33203 370.50477 180.33203 368.50977 L 180.33203 358.46484 L 185.65234 358.46484 L 185.65234 355.69922 L 180.33203 355.69922 L 180.33203 351.64062 L 176.97266 351.64062 z M 85.023438 355.14062 C 82.503438 355.14062 80.474375 355.94484 79.109375 357.58984 L 79.109375 355.41992 L 73.892578 355.41992 L 73.892578 381.03906 L 79.353516 381.03906 L 79.353516 372.25586 C 80.753516 373.79586 82.678437 374.5293 85.023438 374.5293 C 90.308437 374.5293 94.404297 370.75094 94.404297 364.83594 C 94.404297 358.92094 90.308438 355.14063 85.023438 355.14062 z M 106.66992 355.14062 C 100.92992 355.14062 96.625 359.20094 96.625 364.83594 C 96.625 370.43594 100.85914 374.5293 107.36914 374.5293 C 110.76414 374.5293 113.38867 373.47937 115.13867 371.48438 L 112.23438 368.33594 C 110.93937 369.56094 109.50477 370.1543 107.50977 370.1543 C 104.63977 370.1543 102.64414 368.72 102.11914 366.375 L 116.36523 366.375 C 116.40023 365.92 116.46875 365.3243 116.46875 364.9043 C 116.46875 358.8493 112.19992 355.14062 106.66992 355.14062 z M 128.75 355.14062 C 123.01 355.14062 118.70508 359.20094 118.70508 364.83594 C 118.70508 370.43594 122.93922 374.5293 129.44922 374.5293 C 132.84422 374.5293 135.46875 373.47937 137.21875 371.48438 L 134.31445 368.33594 C 133.01945 369.56094 131.58484 370.1543 129.58984 370.1543 C 126.71984 370.1543 124.72422 368.72 124.19922 366.375 L 138.44531 366.375 C 138.48031 365.92 138.54883 365.3243 138.54883 364.9043 C 138.54883 358.8493 134.28 355.14062 128.75 355.14062 z M 222.56445 355.52539 C 217.20945 355.52539 213.25391 359.47961 213.25391 364.97461 C 213.25391 370.50461 217.24352 374.46094 223.22852 374.46094 C 226.30852 374.46094 228.86297 373.40922 230.54297 371.44922 L 228.68945 369.2793 C 227.32445 370.7843 225.50398 371.51953 223.33398 371.51953 C 219.65898 371.51953 217.03328 369.3507 216.61328 366.0957 L 231.66406 366.0957 C 231.69906 365.7807 231.73438 365.36008 231.73438 365.08008 C 231.73438 359.37508 227.91945 355.52539 222.56445 355.52539 z M 284.64258 355.52539 C 279.07758 355.52539 274.98242 359.44461 274.98242 364.97461 C 274.98242 370.50461 279.07758 374.46094 284.64258 374.46094 C 290.20758 374.46094 294.26758 370.50461 294.26758 364.97461 C 294.26758 359.44461 290.20758 355.52539 284.64258 355.52539 z M 308.88867 355.52539 C 305.63367 355.52539 303.32477 356.64445 302.13477 358.81445 L 302.13477 355.69922 L 298.91406 355.69922 L 298.91406 374.25 L 302.27344 374.25 L 302.27344 365.00977 C 302.27344 360.94977 304.51414 358.74414 308.11914 358.74414 C 308.36414 358.74414 308.60867 358.7443 308.88867 358.7793 L 308.88867 355.52539 z M 242.82422 355.69922 L 249.71875 374.25 L 252.93945 374.25 L 258.36328 360.17969 L 263.71875 374.25 L 266.93945 374.25 L 273.86914 355.69922 L 270.85938 355.69922 L 265.32812 370.53906 L 259.83398 355.69922 L 256.99805 355.69922 L 251.39844 370.4707 L 246.00781 355.69922 L 242.82422 355.69922 z M 222.56445 358.35938 C 225.81945 358.35938 228.16367 360.56469 228.51367 363.67969 L 216.61328 363.67969 C 216.96328 360.52969 219.34445 358.35938 222.56445 358.35938 z M 284.64258 358.46484 C 288.21258 358.46484 290.87305 361.01961 290.87305 364.97461 C 290.87305 368.92961 288.21258 371.51953 284.64258 371.51953 C 281.07258 371.51953 278.37695 368.92961 278.37695 364.97461 C 278.37695 361.01961 281.07258 358.46484 284.64258 358.46484 z M 106.70508 359.26953 C 109.15508 359.26953 110.93922 360.80945 111.32422 363.18945 L 102.04883 363.18945 C 102.43383 360.77445 104.22008 359.26953 106.70508 359.26953 z M 128.78516 359.26953 C 131.23516 359.26953 133.0193 360.80945 133.4043 363.18945 L 124.12891 363.18945 C 124.51391 360.77445 126.30016 359.26953 128.78516 359.26953 z M 84.078125 359.61914 C 86.808125 359.61914 88.873047 361.58094 88.873047 364.83594 C 88.873047 368.09094 86.808125 370.05078 84.078125 370.05078 C 81.348125 370.05078 79.283203 368.09094 79.283203 364.83594 C 79.283203 361.58094 81.348125 359.61914 84.078125 359.61914 z M 151.21484 359.61914 C 153.90984 359.61914 156.00977 361.58094 156.00977 364.83594 C 156.00977 368.09094 153.90984 370.05078 151.21484 370.05078 C 148.48484 370.05078 146.38477 368.09094 146.38477 364.83594 C 146.38477 361.58094 148.48484 359.61914 151.21484 359.61914 z M 262.19531 392.0293 L 262.19531 402.25 C 260.65531 400.255 258.34375 399.27539 255.71875 399.27539 C 250.29375 399.27539 246.33984 403.05461 246.33984 408.72461 C 246.33984 414.39461 250.29375 418.21094 255.71875 418.21094 C 258.44875 418.21094 260.82898 417.16055 262.33398 415.06055 L 262.33398 418 L 265.55469 418 L 265.55469 392.0293 L 262.19531 392.0293 z M 133.8418 399.27539 C 128.2768 399.27539 124.18164 403.19461 124.18164 408.72461 C 124.18164 414.25461 128.2768 418.21094 133.8418 418.21094 C 139.4068 418.21094 143.4668 414.25461 143.4668 408.72461 C 143.4668 403.19461 139.4068 399.27539 133.8418 399.27539 z M 191.17188 399.27539 C 188.23188 399.27539 185.85328 400.36 184.48828 402.25 L 184.48828 399.44922 L 181.26758 399.44922 L 181.26758 418 L 184.62695 418 L 184.62695 408.44531 C 184.62695 404.42031 186.93781 402.28516 190.50781 402.28516 C 193.69281 402.28516 195.51172 404.07094 195.51172 407.71094 L 195.51172 418 L 198.87305 418 L 198.87305 407.32422 C 198.87305 401.86422 195.68687 399.27539 191.17188 399.27539 z M 212.85742 399.27539 C 207.50242 399.27539 203.54688 403.22961 203.54688 408.72461 C 203.54688 414.25461 207.53648 418.21094 213.52148 418.21094 C 216.60148 418.21094 219.15594 417.15922 220.83594 415.19922 L 218.98242 413.0293 C 217.61742 414.5343 215.79695 415.26953 213.62695 415.26953 C 209.95195 415.26953 207.32625 413.1007 206.90625 409.8457 L 221.95703 409.8457 C 221.99203 409.5307 222.02734 409.11008 222.02734 408.83008 C 222.02734 403.12508 218.21242 399.27539 212.85742 399.27539 z M 234.25391 399.27539 C 228.89891 399.27539 224.94336 403.22961 224.94336 408.72461 C 224.94336 414.25461 228.93297 418.21094 234.91797 418.21094 C 237.99797 418.21094 240.55242 417.15922 242.23242 415.19922 L 240.37891 413.0293 C 239.01391 414.5343 237.19344 415.26953 235.02344 415.26953 C 231.34844 415.26953 228.72273 413.1007 228.30273 409.8457 L 243.35352 409.8457 C 243.38852 409.5307 243.42383 409.11008 243.42383 408.83008 C 243.42383 403.12508 239.60891 399.27539 234.25391 399.27539 z M 103.63672 399.44922 L 111.82812 417.96484 L 111.23242 419.25977 C 110.32242 421.39477 109.30727 422.13086 107.69727 422.13086 C 106.43727 422.13086 105.28305 421.64062 104.37305 420.76562 L 102.9375 423.28516 C 104.0925 424.40516 105.91227 425 107.69727 425 C 110.53227 425 112.6675 423.77547 114.3125 419.85547 L 123.30664 399.44922 L 120.01758 399.44922 L 113.61328 414.28906 L 107.13672 399.44922 L 103.63672 399.44922 z M 147.9375 399.44922 L 147.9375 410.125 C 147.9375 415.585 151.12297 418.21094 155.91797 418.21094 C 158.54297 418.21094 160.85375 417.12422 162.21875 415.19922 L 162.21875 418 L 165.40234 418 L 165.40234 399.44922 L 162.04297 399.44922 L 162.04297 409.03906 C 162.04297 413.02906 159.80273 415.19922 156.30273 415.19922 C 153.11773 415.19922 151.29883 413.38023 151.29883 409.74023 L 151.29883 399.44922 L 147.9375 399.44922 z M 212.85742 402.10938 C 216.11242 402.10938 218.45664 404.31469 218.80664 407.42969 L 206.90625 407.42969 C 207.25625 404.27969 209.63742 402.10938 212.85742 402.10938 z M 234.25391 402.10938 C 237.50891 402.10938 239.85312 404.31469 240.20312 407.42969 L 228.30273 407.42969 C 228.65273 404.27969 231.03391 402.10938 234.25391 402.10938 z M 133.8418 402.21484 C 137.4118 402.21484 140.07227 404.76961 140.07227 408.72461 C 140.07227 412.67961 137.4118 415.26953 133.8418 415.26953 C 130.2718 415.26953 127.57617 412.67961 127.57617 408.72461 C 127.57617 404.76961 130.2718 402.21484 133.8418 402.21484 z M 256 402.21484 C 259.535 402.21484 262.23047 404.76961 262.23047 408.72461 C 262.23047 412.67961 259.535 415.26953 256 415.26953 C 252.43 415.26953 249.73437 412.67961 249.73438 408.72461 C 249.73438 404.76961 252.43 402.21484 256 402.21484 z M 272.7168 413.41406 C 271.4218 413.41406 270.33789 414.39492 270.33789 415.79492 C 270.33789 417.19492 271.4218 418.21094 272.7168 418.21094 C 273.9768 418.21094 275.02734 417.19492 275.02734 415.79492 C 275.02734 414.39492 273.9768 413.41406 272.7168 413.41406 z "
           transform="translate(0,552.36222)"
           id="path4198" />
      </g>
    </g>
    <g
       style="font-style:normal;font-weight:normal;font-size:40px;line-height:125%;font-family:sans-serif;letter-spacing:0px;word-spacing:0px;fill:#ffffff;fill-opacity:1;stroke:none;stroke-width:1px;stroke-linecap:butt;stroke-linejoin:miter;stroke-opacity:1"
       id="text3361-5">
      <path
         style="font-style:normal;font-variant:normal;font-weight:bold;font-stretch:normal;font-size:35px;font-family:Montserrat;-inkscape-font-specification:'Montserrat Bold';fill:#ffffff"
         d="M 426.13477 346.70508 C 424.10477 346.70508 422.74023 348.035 422.74023 349.75 C 422.74023 351.465 424.10477 352.79492 426.13477 352.79492 C 428.16477 352.79492 429.5293 351.46453 429.5293 349.64453 C 429.5293 347.96453 428.16477 346.70508 426.13477 346.70508 z M 400.43555 348.2793 L 400.43555 374.25 L 405.89648 374.25 L 405.89648 369.45508 L 408.52148 366.86523 L 414.4707 374.25 L 421.08594 374.25 L 412.54492 363.40039 L 420.38477 355.41992 L 413.875 355.41992 L 405.89648 362.98047 L 405.89648 348.2793 L 400.43555 348.2793 z M 483.13281 348.2793 L 483.13281 374.25 L 486.49219 374.25 L 486.49219 364.69531 C 486.49219 360.67031 488.80109 358.53516 492.37109 358.53516 C 495.55609 358.53516 497.37695 360.32094 497.37695 363.96094 L 497.37695 374.25 L 500.73633 374.25 L 500.73633 363.57422 C 500.73633 358.11422 497.55211 355.52539 493.03711 355.52539 C 490.20211 355.52539 487.89219 356.53922 486.49219 358.32422 L 486.49219 348.2793 L 483.13281 348.2793 z M 605.1543 348.2793 L 605.1543 374.25 L 608.51367 374.25 L 608.51367 369.17578 L 612.36328 365.60547 L 619.32812 374.25 L 623.45898 374.25 L 614.88281 363.36523 L 622.6875 355.69922 L 618.62891 355.69922 L 608.51367 364.93945 L 608.51367 348.2793 L 605.1543 348.2793 z M 387.35742 349.33008 C 380.39242 349.33008 377.03125 352.79594 377.03125 356.96094 C 377.03125 366.06094 391.27734 362.90914 391.27734 367.49414 C 391.27734 368.99914 389.91273 370.11914 386.55273 370.11914 C 383.61273 370.11914 380.5318 369.06945 378.4668 367.56445 L 376.54297 371.83594 C 378.71297 373.51594 382.63258 374.66992 386.51758 374.66992 C 393.51758 374.66992 396.91211 371.16922 396.91211 367.07422 C 396.91211 358.07922 382.66797 361.19469 382.66797 356.67969 C 382.66797 355.13969 383.96227 353.88086 387.32227 353.88086 C 389.49227 353.88086 391.83633 354.50969 394.11133 355.80469 L 395.86133 351.5 C 393.58633 350.065 390.43742 349.33008 387.35742 349.33008 z M 469.12891 351.64062 L 469.12891 355.69922 L 465.98047 355.69922 L 465.98047 358.46484 L 469.12891 358.46484 L 469.12891 368.65039 C 469.12891 372.39539 471.26477 374.46094 475.00977 374.46094 C 476.51477 374.46094 478.05531 374.03906 479.07031 373.16406 L 478.01953 370.75 C 477.31953 371.31 476.37453 371.625 475.39453 371.625 C 473.53953 371.625 472.49023 370.50477 472.49023 368.50977 L 472.49023 358.46484 L 477.81055 358.46484 L 477.81055 355.69922 L 472.49023 355.69922 L 472.49023 351.64062 L 469.12891 351.64062 z M 445.0625 355.14062 C 442.5425 355.14062 440.51148 355.94484 439.14648 357.58984 L 439.14648 355.41992 L 433.93164 355.41992 L 433.93164 381.03906 L 439.39258 381.03906 L 439.39258 372.25586 C 440.79258 373.79586 442.7175 374.5293 445.0625 374.5293 C 450.3475 374.5293 454.44141 370.75094 454.44141 364.83594 C 454.44141 358.92094 450.3475 355.14063 445.0625 355.14062 z M 423.4043 355.41992 L 423.4043 374.25 L 428.86523 374.25 L 428.86523 355.41992 L 423.4043 355.41992 z M 514.7207 355.52539 C 509.3657 355.52539 505.41016 359.47961 505.41016 364.97461 C 505.41016 370.50461 509.40172 374.46094 515.38672 374.46094 C 518.46672 374.46094 521.02117 373.40922 522.70117 371.44922 L 520.8457 369.2793 C 519.4807 370.7843 517.66023 371.51953 515.49023 371.51953 C 511.81523 371.51953 509.19148 369.3507 508.77148 366.0957 L 523.82031 366.0957 C 523.85531 365.7807 523.89063 365.36008 523.89062 365.08008 C 523.89062 359.37508 520.0757 355.52539 514.7207 355.52539 z M 576.79883 355.52539 C 571.23383 355.52539 567.13867 359.44461 567.13867 364.97461 C 567.13867 370.50461 571.23383 374.46094 576.79883 374.46094 C 582.36383 374.46094 586.42383 370.50461 586.42383 364.97461 C 586.42383 359.44461 582.36383 355.52539 576.79883 355.52539 z M 601.04688 355.52539 C 597.79188 355.52539 595.48102 356.64445 594.29102 358.81445 L 594.29102 355.69922 L 591.07227 355.69922 L 591.07227 374.25 L 594.43164 374.25 L 594.43164 365.00977 C 594.43164 360.94977 596.67039 358.74414 600.27539 358.74414 C 600.52039 358.74414 600.76688 358.7443 601.04688 358.7793 L 601.04688 355.52539 z M 534.98047 355.69922 L 541.87695 374.25 L 545.0957 374.25 L 550.52148 360.17969 L 555.87695 374.25 L 559.0957 374.25 L 566.02539 355.69922 L 563.01562 355.69922 L 557.48633 370.53906 L 551.99023 355.69922 L 549.15625 355.69922 L 543.55664 370.4707 L 538.16602 355.69922 L 534.98047 355.69922 z M 514.7207 358.35938 C 517.9757 358.35938 520.32188 360.56469 520.67188 363.67969 L 508.77148 363.67969 C 509.12148 360.52969 511.5007 358.35938 514.7207 358.35938 z M 576.79883 358.46484 C 580.36883 358.46484 583.0293 361.01961 583.0293 364.97461 C 583.0293 368.92961 580.36883 371.51953 576.79883 371.51953 C 573.22883 371.51953 570.53516 368.92961 570.53516 364.97461 C 570.53516 361.01961 573.22883 358.46484 576.79883 358.46484 z M 444.11719 359.61914 C 446.84719 359.61914 448.91211 361.58094 448.91211 364.83594 C 448.91211 368.09094 446.84719 370.05078 444.11719 370.05078 C 441.38719 370.05078 439.32227 368.09094 439.32227 364.83594 C 439.32227 361.58094 441.38719 359.61914 444.11719 359.61914 z M 504.00586 392.0293 L 504.00586 402.25 C 502.46586 400.255 500.15625 399.27539 497.53125 399.27539 C 492.10625 399.27539 488.15039 403.05461 488.15039 408.72461 C 488.15039 414.39461 492.10625 418.21094 497.53125 418.21094 C 500.26125 418.21094 502.63953 417.16055 504.14453 415.06055 L 504.14453 418 L 507.36523 418 L 507.36523 392.0293 L 504.00586 392.0293 z M 558.81641 393.5 L 559.02734 402.94922 L 561.51172 402.94922 L 561.75781 393.5 L 558.81641 393.5 z M 567.66992 395.39062 L 567.66992 399.44922 L 564.51953 399.44922 L 564.51953 402.21484 L 567.66992 402.21484 L 567.66992 412.40039 C 567.66992 416.14539 569.80383 418.21094 573.54883 418.21094 C 575.05383 418.21094 576.59438 417.78906 577.60938 416.91406 L 576.56055 414.5 C 575.86055 415.06 574.91555 415.375 573.93555 415.375 C 572.08055 415.375 571.0293 414.25477 571.0293 412.25977 L 571.0293 402.21484 L 576.34961 402.21484 L 576.34961 399.44922 L 571.0293 399.44922 L 571.0293 395.39062 L 567.66992 395.39062 z M 442.43945 399.27539 C 436.87445 399.27539 432.7793 403.19461 432.7793 408.72461 C 432.7793 414.25461 436.87445 418.21094 442.43945 418.21094 C 448.00445 418.21094 452.06445 414.25461 452.06445 408.72461 C 452.06445 403.19461 448.00445 399.27539 442.43945 399.27539 z M 521.66797 399.27539 C 516.10297 399.27539 512.00781 403.19461 512.00781 408.72461 C 512.00781 414.25461 516.10297 418.21094 521.66797 418.21094 C 527.23297 418.21094 531.29297 414.25461 531.29297 408.72461 C 531.29297 403.19461 527.23297 399.27539 521.66797 399.27539 z M 545.84375 399.27539 C 542.90375 399.27539 540.52516 400.36 539.16016 402.25 L 539.16016 399.44922 L 535.93945 399.44922 L 535.93945 418 L 539.29883 418 L 539.29883 408.44531 C 539.29883 404.42031 541.60969 402.28516 545.17969 402.28516 C 548.36469 402.28516 550.18359 404.07094 550.18359 407.71094 L 550.18359 418 L 553.54492 418 L 553.54492 407.32422 C 553.54492 401.86422 550.35875 399.27539 545.84375 399.27539 z M 412.23438 399.44922 L 420.42578 417.96484 L 419.83008 419.25977 C 418.92008 421.39477 417.90492 422.13086 416.29492 422.13086 C 415.03492 422.13086 413.8807 421.64062 412.9707 420.76562 L 411.53516 423.28516 C 412.69016 424.40516 414.50992 425 416.29492 425 C 419.12992 425 421.26516 423.77547 422.91016 419.85547 L 431.90625 399.44922 L 428.61523 399.44922 L 422.21094 414.28906 L 415.73438 399.44922 L 412.23438 399.44922 z M 456.53516 399.44922 L 456.53516 410.125 C 456.53516 415.585 459.72062 418.21094 464.51562 418.21094 C 467.14062 418.21094 469.45141 417.12422 470.81641 415.19922 L 470.81641 418 L 474.00195 418 L 474.00195 399.44922 L 470.64062 399.44922 L 470.64062 409.03906 C 470.64062 413.02906 468.40039 415.19922 464.90039 415.19922 C 461.71539 415.19922 459.89648 413.38023 459.89648 409.74023 L 459.89648 399.44922 L 456.53516 399.44922 z M 442.43945 402.21484 C 446.00945 402.21484 448.66992 404.76961 448.66992 408.72461 C 448.66992 412.67961 446.00945 415.26953 442.43945 415.26953 C 438.86945 415.26953 436.17383 412.67961 436.17383 408.72461 C 436.17383 404.76961 438.86945 402.21484 442.43945 402.21484 z M 497.81055 402.21484 C 501.34555 402.21484 504.04102 404.76961 504.04102 408.72461 C 504.04102 412.67961 501.34555 415.26953 497.81055 415.26953 C 494.24055 415.26953 491.54492 412.67961 491.54492 408.72461 C 491.54492 404.76961 494.24055 402.21484 497.81055 402.21484 z M 521.66797 402.21484 C 525.23797 402.21484 527.89844 404.76961 527.89844 408.72461 C 527.89844 412.67961 525.23797 415.26953 521.66797 415.26953 C 518.09797 415.26953 515.40234 412.67961 515.40234 408.72461 C 515.40234 404.76961 518.09797 402.21484 521.66797 402.21484 z M 582.81836 413.41406 C 581.52336 413.41406 580.43945 414.39492 580.43945 415.79492 C 580.43945 417.19492 581.52336 418.21094 582.81836 418.21094 C 584.07836 418.21094 585.12891 417.19492 585.12891 415.79492 C 585.12891 414.39492 584.07836 413.41406 582.81836 413.41406 z "
         transform="translate(0,552.36222)"
         id="path4262" />
    </g>
    <g
       style="font-style:normal;font-weight:normal;font-size:40px;line-height:125%;font-family:sans-serif;letter-spacing:0px;word-spacing:0px;fill:#ffffff;fill-opacity:1;stroke:none;stroke-width:1px;stroke-linecap:butt;stroke-linejoin:miter;stroke-opacity:1"
       id="text3361-8">
      <path
         style="font-style:normal;font-variant:normal;font-weight:bold;font-stretch:normal;font-size:35px;font-family:montserrat;-inkscape-font-specification:'montserrat Bold';text-align:center;text-anchor:middle;fill:#ffffff"
         d="M 871.78516 348.14062 C 868.18016 348.14062 866.2207 350.30961 866.2207 353.59961 L 866.2207 355.875 L 862.92969 355.875 L 862.92969 357.97461 L 866.2207 357.97461 L 866.2207 374.28516 L 868.70508 374.28516 L 868.70508 357.97461 L 874.30469 357.97461 L 874.30469 355.875 L 868.63477 355.875 L 868.63477 353.70508 C 868.63477 351.43008 869.75562 350.24023 871.89062 350.24023 C 872.94062 350.24023 873.91914 350.55539 874.61914 351.15039 L 875.46094 349.29492 C 874.55094 348.52492 873.15016 348.14062 871.78516 348.14062 z M 744.17969 349.36523 C 737.21469 349.36523 733.85352 352.82914 733.85352 356.99414 C 733.85352 366.09414 748.09961 362.9443 748.09961 367.5293 C 748.09961 369.0343 746.73305 370.1543 743.37305 370.1543 C 740.43305 370.1543 737.35406 369.10461 735.28906 367.59961 L 733.36328 371.86914 C 735.53328 373.54914 739.45289 374.70508 743.33789 374.70508 C 750.33789 374.70508 753.73438 371.20438 753.73438 367.10938 C 753.73438 358.11437 739.48828 361.22984 739.48828 356.71484 C 739.48828 355.17484 740.78453 353.91406 744.14453 353.91406 C 746.31453 353.91406 748.65859 354.54484 750.93359 355.83984 L 752.68359 351.53516 C 750.40859 350.10016 747.25969 349.36523 744.17969 349.36523 z M 757.92188 351.28906 L 757.92188 355.875 L 755.01758 355.875 L 755.01758 360.07422 L 757.92188 360.07422 L 757.92188 367.81055 C 757.92188 372.29055 760.51203 374.56445 764.95703 374.56445 C 766.63703 374.56445 768.28234 374.18 769.40234 373.375 L 767.93164 369.52539 C 767.33664 369.98039 766.53156 370.22461 765.72656 370.22461 C 764.25656 370.22461 763.38281 369.35023 763.38281 367.74023 L 763.38281 360.07422 L 768.07227 360.07422 L 768.07227 355.875 L 763.38281 355.875 L 763.38281 351.28906 L 757.92188 351.28906 z M 780.0957 355.17578 C 777.0857 355.17578 774.04156 355.97922 771.97656 357.44922 L 773.93555 361.26562 C 775.30055 360.18062 777.36633 359.51562 779.36133 359.51562 C 782.30133 359.51562 783.70117 360.87961 783.70117 363.22461 L 779.36133 363.22461 C 773.62133 363.22461 771.27734 365.53437 771.27734 368.85938 C 771.27734 372.11437 773.90055 374.56445 778.31055 374.56445 C 781.07555 374.56445 783.03578 373.65445 784.05078 371.93945 L 784.05078 374.28516 L 789.16211 374.28516 L 789.16211 363.53906 C 789.16211 357.83406 785.8357 355.17578 780.0957 355.17578 z M 805.23242 355.17578 C 802.81742 355.17578 800.71836 356.015 799.31836 357.625 L 799.31836 355.45508 L 794.10352 355.45508 L 794.10352 374.28516 L 799.5625 374.28516 L 799.5625 364.83594 C 799.5625 361.47594 801.27836 359.90039 803.69336 359.90039 C 805.96836 359.90039 807.26367 361.3007 807.26367 364.3457 L 807.26367 374.28516 L 812.72266 374.28516 L 812.72266 364.83594 C 812.72266 361.47594 814.43867 359.90039 816.88867 359.90039 C 819.09367 359.90039 820.45898 361.3007 820.45898 364.3457 L 820.45898 374.28516 L 825.91797 374.28516 L 825.91797 363.50586 C 825.91797 357.76586 822.69875 355.17578 818.21875 355.17578 C 815.38375 355.17578 812.93273 356.33086 811.42773 358.25586 C 810.09773 356.19086 807.85742 355.17578 805.23242 355.17578 z M 841.94141 355.17578 C 839.42141 355.17578 837.39234 355.98 836.02734 357.625 L 836.02734 355.45508 L 830.8125 355.45508 L 830.8125 381.07422 L 836.27148 381.07422 L 836.27148 372.28906 C 837.67148 373.82906 839.59641 374.56445 841.94141 374.56445 C 847.22641 374.56445 851.32227 370.78414 851.32227 364.86914 C 851.32227 358.95414 847.22641 355.17578 841.94141 355.17578 z M 884.87695 355.73438 C 879.48695 355.73438 875.49805 359.62008 875.49805 365.08008 C 875.49805 370.54008 879.48695 374.46094 884.87695 374.46094 C 890.26695 374.46094 894.22266 370.54008 894.22266 365.08008 C 894.22266 359.62008 890.26695 355.73438 884.87695 355.73438 z M 908.57031 355.73438 C 905.17531 355.73438 902.83078 357.03047 901.67578 359.48047 L 901.67578 355.875 L 899.29688 355.875 L 899.29688 374.28516 L 901.78125 374.28516 L 901.78125 364.9043 C 901.78125 360.5643 904.12656 358.11523 907.97656 358.11523 C 908.15156 358.11523 908.36031 358.15039 908.57031 358.15039 L 908.57031 355.73438 z M 884.87695 357.9043 C 888.79695 357.9043 891.70313 360.77508 891.70312 365.08008 C 891.70312 369.38508 888.79695 372.25586 884.87695 372.25586 C 880.95695 372.25586 878.01758 369.38508 878.01758 365.08008 C 878.01758 360.77508 880.95695 357.9043 884.87695 357.9043 z M 840.99609 359.6543 C 843.72609 359.6543 845.79297 361.61414 845.79297 364.86914 C 845.79297 368.12414 843.72609 370.08594 840.99609 370.08594 C 838.26609 370.08594 836.20117 368.12414 836.20117 364.86914 C 836.20117 361.61414 838.26609 359.6543 840.99609 359.6543 z M 779.95703 366.41016 L 783.70117 366.41016 L 783.70117 368.33594 C 783.07117 370.05094 781.49578 370.89062 779.67578 370.89062 C 777.75078 370.89062 776.5957 369.98023 776.5957 368.61523 C 776.5957 367.35523 777.40203 366.41016 779.95703 366.41016 z M 802.01367 392.06445 L 802.01367 403.125 C 800.47367 400.745 797.95367 399.48438 795.01367 399.48438 C 789.76367 399.48438 785.84375 403.26508 785.84375 408.83008 C 785.84375 414.39508 789.76367 418.21094 795.01367 418.21094 C 798.05867 418.21094 800.61414 416.87953 802.11914 414.39453 L 802.11914 418.03516 L 804.5 418.03516 L 804.5 392.06445 L 802.01367 392.06445 z M 855.95117 392.06445 C 854.93617 392.06445 854.13086 392.86945 854.13086 393.81445 C 854.13086 394.79445 854.93617 395.59961 855.95117 395.59961 C 857.00117 395.59961 857.77148 394.7943 857.77148 393.7793 C 857.77148 392.8343 856.96617 392.06445 855.95117 392.06445 z M 864.125 392.06445 L 864.125 418.03516 L 866.50586 418.03516 L 866.50586 414.39453 C 868.01086 416.87953 870.56438 418.21094 873.60938 418.21094 C 878.85938 418.21094 882.7793 414.39508 882.7793 408.83008 C 882.7793 403.26508 878.85937 399.48438 873.60938 399.48438 C 870.66937 399.48438 868.14937 400.745 866.60938 403.125 L 866.60938 392.06445 L 864.125 392.06445 z M 889.10547 392.06445 C 888.09047 392.06445 887.28516 392.86945 887.28516 393.81445 C 887.28516 394.79445 888.09047 395.59961 889.10547 395.59961 C 890.15547 395.59961 890.92578 394.7943 890.92578 393.7793 C 890.92578 392.8343 890.12047 392.06445 889.10547 392.06445 z M 897.2793 392.06445 L 897.2793 418.03516 L 899.76367 418.03516 L 899.76367 392.06445 L 897.2793 392.06445 z M 907.97266 392.06445 C 906.95766 392.06445 906.15234 392.86945 906.15234 393.81445 C 906.15234 394.79445 906.95766 395.59961 907.97266 395.59961 C 909.02266 395.59961 909.79297 394.7943 909.79297 393.7793 C 909.79297 392.8343 908.98766 392.06445 907.97266 392.06445 z M 916.56641 395.59961 L 916.56641 399.625 L 913.27734 399.625 L 913.27734 401.72461 L 916.56641 401.72461 L 916.56641 412.85547 C 916.56641 416.25047 918.49203 418.21094 921.95703 418.21094 C 923.39203 418.21094 924.8618 417.78906 925.8418 416.91406 L 924.9668 415.13086 C 924.2668 415.76086 923.25133 416.07422 922.23633 416.07422 C 920.17133 416.07422 919.05078 414.88484 919.05078 412.71484 L 919.05078 401.72461 L 924.65234 401.72461 L 924.65234 399.625 L 919.05078 399.625 L 919.05078 395.59961 L 916.56641 395.59961 z M 703.11719 399.48438 C 699.72219 399.48438 697.37766 400.78047 696.22266 403.23047 L 696.22266 399.625 L 693.8418 399.625 L 693.8418 418.03516 L 696.32617 418.03516 L 696.32617 408.6543 C 696.32617 404.3143 698.67148 401.86523 702.52148 401.86523 C 702.69648 401.86523 702.90719 401.90039 703.11719 401.90039 L 703.11719 399.48438 z M 714.51758 399.48438 C 709.33758 399.48438 705.52148 403.37008 705.52148 408.83008 C 705.52148 414.29008 709.44164 418.21094 715.18164 418.21094 C 718.08664 418.21094 720.64211 417.15922 722.28711 415.19922 L 720.88672 413.58984 C 719.48672 415.19984 717.49195 416.00586 715.25195 416.00586 C 711.22695 416.00586 708.28781 413.44961 708.00781 409.59961 L 723.40625 409.59961 C 723.40625 409.31961 723.44141 409.04008 723.44141 408.83008 C 723.44141 403.30008 719.69758 399.48438 714.51758 399.48438 z M 737.98438 399.48438 C 734.93938 399.48438 732.38586 400.81563 730.88086 403.26562 L 730.88086 399.625 L 728.5 399.625 L 728.5 424.82422 L 730.98438 424.82422 L 730.98438 414.57031 C 732.52437 416.95031 735.04437 418.21094 737.98438 418.21094 C 743.23438 418.21094 747.1543 414.43008 747.1543 408.83008 C 747.1543 403.26508 743.23437 399.48438 737.98438 399.48438 z M 761.49609 399.48438 C 758.10109 399.48438 755.75656 400.78047 754.60156 403.23047 L 754.60156 399.625 L 752.2207 399.625 L 752.2207 418.03516 L 754.70508 418.03516 L 754.70508 408.6543 C 754.70508 404.3143 757.05039 401.86523 760.90039 401.86523 C 761.07539 401.86523 761.28609 401.90039 761.49609 401.90039 L 761.49609 399.48438 z M 773.28125 399.48438 C 767.89125 399.48438 763.90039 403.37008 763.90039 408.83008 C 763.90039 414.29008 767.89125 418.21094 773.28125 418.21094 C 778.67125 418.21094 782.62695 414.29008 782.62695 408.83008 C 782.62695 403.37008 778.67125 399.48438 773.28125 399.48438 z M 842.63477 399.48438 C 837.13977 399.48438 833.14844 403.33508 833.14844 408.83008 C 833.14844 414.32508 837.13977 418.21094 842.63477 418.21094 C 845.74977 418.21094 848.37375 416.95031 849.84375 414.57031 L 847.98828 413.31055 C 846.72828 415.16555 844.76977 416.00586 842.63477 416.00586 C 838.60977 416.00586 835.66992 413.17008 835.66992 408.83008 C 835.66992 404.52508 838.60977 401.6543 842.63477 401.6543 C 844.76977 401.6543 846.72828 402.52977 847.98828 404.38477 L 849.84375 403.125 C 848.37375 400.71 845.74977 399.48437 842.63477 399.48438 z M 811.24609 399.625 L 811.24609 410.30078 C 811.24609 415.58578 814.32563 418.21094 819.01562 418.21094 C 821.95563 418.21094 824.33586 416.91578 825.63086 414.67578 L 825.63086 418.03516 L 828.00977 418.03516 L 828.00977 399.625 L 825.52539 399.625 L 825.52539 409.28516 C 825.52539 413.48516 823.10977 415.9707 819.25977 415.9707 C 815.75977 415.9707 813.73047 413.97469 813.73047 410.05469 L 813.73047 399.625 L 811.24609 399.625 z M 854.69141 399.625 L 854.69141 418.03516 L 857.17578 418.03516 L 857.17578 399.625 L 854.69141 399.625 z M 887.8457 399.625 L 887.8457 418.03516 L 890.33008 418.03516 L 890.33008 399.625 L 887.8457 399.625 z M 906.71289 399.625 L 906.71289 418.03516 L 909.19727 418.03516 L 909.19727 399.625 L 906.71289 399.625 z M 926.59375 399.625 L 934.81836 418 L 934.01367 419.78516 C 932.96367 422.09516 931.84422 422.86523 930.19922 422.86523 C 928.86922 422.86523 927.74789 422.37484 926.83789 421.46484 L 925.68359 423.32031 C 926.80359 424.44031 928.44906 425 930.16406 425 C 932.78906 425 934.74906 423.84523 936.28906 420.24023 L 945.49414 399.625 L 943.04297 399.625 L 936.11328 415.26953 L 929.18359 399.625 L 926.59375 399.625 z M 714.51758 401.61914 C 718.12258 401.61914 720.7475 404.13914 721.0625 407.74414 L 708.00781 407.74414 C 708.32281 404.13914 710.94758 401.61914 714.51758 401.61914 z M 737.81055 401.6543 C 741.69555 401.6543 744.66992 404.56008 744.66992 408.83008 C 744.66992 413.13508 741.69555 416.00586 737.81055 416.00586 C 733.89055 416.00586 730.95117 413.13508 730.95117 408.83008 C 730.95117 404.56008 733.89055 401.6543 737.81055 401.6543 z M 773.28125 401.6543 C 777.20125 401.6543 780.10547 404.52508 780.10547 408.83008 C 780.10547 413.13508 777.20125 416.00586 773.28125 416.00586 C 769.36125 416.00586 766.42188 413.13508 766.42188 408.83008 C 766.42188 404.52508 769.36125 401.6543 773.28125 401.6543 z M 795.22461 401.6543 C 799.10961 401.6543 802.04883 404.52508 802.04883 408.83008 C 802.04883 413.13508 799.10961 416.00586 795.22461 416.00586 C 791.30461 416.00586 788.36523 413.13508 788.36523 408.83008 C 788.36523 404.52508 791.30461 401.6543 795.22461 401.6543 z M 873.43555 401.6543 C 877.32055 401.6543 880.29492 404.52508 880.29492 408.83008 C 880.29492 413.13508 877.32055 416.00586 873.43555 416.00586 C 869.51555 416.00586 866.57617 413.13508 866.57617 408.83008 C 866.57617 404.52508 869.51555 401.6543 873.43555 401.6543 z M 948.11133 414.39453 C 947.09633 414.39453 946.25586 415.20016 946.25586 416.28516 C 946.25586 417.37016 947.09633 418.21094 948.11133 418.21094 C 949.12633 418.21094 950 417.37016 950 416.28516 C 950 415.20016 949.12633 414.39453 948.11133 414.39453 z "
         transform="translate(0,552.36222)"
         id="path4304" />
    </g>
    <g
       style="clip-rule:evenodd;fill:#ffffff;fill-rule:evenodd;image-rendering:optimizeQuality;shape-rendering:geometricPrecision;text-rendering:geometricPrecision"
       id="g3424"
       transform="matrix(0.25062657,0,0,0.25062657,148.12513,652.36222)">
      <polygon
         style="fill:#ffffff"
         class="fil0"
         points="0,389 198,336 93,798 383,166 187,219 263,0 93,0 "
         id="polygon3426" />
    </g>
    <g
       id="g3445"
       transform="matrix(1.6282048,0,0,1.6282048,739.81532,670.95198)"
       style="fill:#ffffff">
      <path
         style="fill:#ffffff"
         inkscape:connector-curvature="0"
         d="m 76.961,54.103 c 0,14.866 -12.095,26.961 -26.961,26.961 -14.866,0 -26.961,-12.095 -26.961,-26.961 0,-13.299 9.682,-24.372 22.365,-26.561 l 0,7.806 27.199,-15.704 -27.199,-15.707 0,8.462 C 24.422,14.695 8.039,32.519 8.039,54.103 c 0,23.137 18.824,41.96 41.961,41.96 23.138,0 41.961,-18.823 41.961,-41.961 l -15,0 z"
         id="path3447" />
    </g>
    <g
       style="fill:#ffffff;fill-rule:evenodd;stroke:none;stroke-width:1"
       id="g3471"
       transform="matrix(1.1918696,0,0,1.1918716,401.858,676.40215)">
      <g
         style="fill:#ffffff"
         transform="translate(-5443,-2493)"
         id="g3473">
        <path
           inkscape:connector-curvature="0"
           d="m 5605.7394,2504.894 -11.111,-10.034 c -1.679,-1.514 -4.264,-1.382 -5.78,0.295 l -84.505,93.568 -43.877,-39.627 c -1.674,-1.513 -4.263,-1.383 -5.78,0.295 l -10.035,11.11 c -0.727,0.805 -1.105,1.867 -1.049,2.951 0.055,1.084 0.538,2.101 1.344,2.829 l 57.938,52.326 c 0.555,0.501 1.25,0.817 1.984,0.946 0.3,0.07 0.608,0.105 0.92,0.105 0.067,0 0.135,-10e-4 0.202,-0.01 1.086,-0.053 2.107,-0.537 2.835,-1.344 l 97.209,-107.635 c 0.727,-0.805 1.105,-1.867 1.049,-2.951 -0.055,-1.083 -0.538,-2.101 -1.344,-2.829"
           id="path3475"
           style="fill:#ffffff" />
      </g>
    </g>
  </g>
</svg>
