<?xml version="1.0" encoding="UTF-8" standalone="no"?>
<!-- Created with Inkscape (http://www.inkscape.org/) -->

<svg
   xmlns:dc="http://purl.org/dc/elements/1.1/"
   xmlns:cc="http://creativecommons.org/ns#"
   xmlns:rdf="http://www.w3.org/1999/02/22-rdf-syntax-ns#"
   xmlns:svg="http://www.w3.org/2000/svg"
   xmlns="http://www.w3.org/2000/svg"
   xmlns:sodipodi="http://sodipodi.sourceforge.net/DTD/sodipodi-0.dtd"
   xmlns:inkscape="http://www.inkscape.org/namespaces/inkscape"
   width="1000"
   height="400"
   viewBox="0 0 1000 400.00001"
   id="svg2"
   version="1.1"
   inkscape:version="0.91 r13725"
   sodipodi:docname="infographic.svg">
  <defs
     id="defs4">
    <style
       id="style3422"
       type="text/css">
   
    .fil0 {fill:black}
   
  </style>
  </defs>
  <sodipodi:namedview
     id="base"
     pagecolor="#ffffff"
     bordercolor="#666666"
     borderopacity="1.0"
     inkscape:pageopacity="0.0"
     inkscape:pageshadow="2"
     inkscape:zoom="1.16"
     inkscape:cx="555.24559"
     inkscape:cy="278.62069"
     inkscape:document-units="px"
     inkscape:current-layer="layer1"
     showgrid="false"
     units="px"
     inkscape:window-width="1920"
     inkscape:window-height="1055"
     inkscape:window-x="1920"
     inkscape:window-y="0"
     inkscape:window-maximized="1"
     showguides="true" />
  <metadata
     id="metadata7">
    <rdf:RDF>
      <cc:Work
         rdf:about="">
        <dc:format>image/svg+xml</dc:format>
        <dc:type
           rdf:resource="http://purl.org/dc/dcmitype/StillImage" />
        <dc:title />
      </cc:Work>
    </rdf:RDF>
  </metadata>
  <g
     inkscape:label="Layer 1"
     inkscape:groupmode="layer"
     id="layer1"
     transform="translate(0,-652.36222)">
    <text
       xml:space="preserve"
       style="font-style:normal;font-weight:normal;font-size:40px;line-height:125%;font-family:sans-serif;letter-spacing:0px;word-spacing:0px;fill:#000000;fill-opacity:1;stroke:none;stroke-width:1px;stroke-linecap:butt;stroke-linejoin:miter;stroke-opacity:1"
       x="308.57144"
       y="338.07648"
       id="text3336"
       sodipodi:linespacing="125%"><tspan
         sodipodi:role="line"
         id="tspan3338"
         x="308.57144"
         y="338.07648" /></text>
    <rect
       style="fill:#1c366b;fill-opacity:1"
       id="rect3359"
       width="1000"
       height="400"
       x="0"
       y="652.36218" />
    <g
       style="font-style:normal;font-weight:normal;font-size:40px;line-height:125%;font-family:sans-serif;letter-spacing:0px;word-spacing:0px;fill:#ffffff;fill-opacity:1;stroke:none;stroke-width:1px;stroke-linecap:butt;stroke-linejoin:miter;stroke-opacity:1"
       id="text3361">
      <path
         style="font-style:normal;font-variant:normal;font-weight:bold;font-stretch:normal;font-size:27.5px;font-family:Montserrat;-inkscape-font-specification:'Montserrat Bold';fill:#ffffff"
         d="M 163.21094 289.7207 L 163.21094 296.89844 C 162.13844 295.68844 160.5982 295.10938 158.7832 295.10938 C 154.6032 295.10938 151.38477 298.07906 151.38477 302.72656 C 151.38477 307.37406 154.6032 310.3457 158.7832 310.3457 C 160.7632 310.3457 162.32984 309.71242 163.40234 308.41992 L 163.40234 310.125 L 167.5 310.125 L 167.5 289.7207 L 163.21094 289.7207 z M 190.76562 289.7207 L 190.76562 310.125 L 193.40625 310.125 L 193.40625 302.61719 C 193.40625 299.45469 195.22039 297.77734 198.02539 297.77734 C 200.52789 297.77734 201.95898 299.17906 201.95898 302.03906 L 201.95898 310.125 L 204.59766 310.125 L 204.59766 301.73828 C 204.59766 297.44828 202.09633 295.41211 198.54883 295.41211 C 196.32133 295.41211 194.50625 296.21078 193.40625 297.61328 L 193.40625 289.7207 L 190.76562 289.7207 z M 286.64062 289.7207 L 286.64062 310.125 L 289.2793 310.125 L 289.2793 306.13672 L 292.30469 303.33203 L 297.77734 310.125 L 301.02148 310.125 L 294.28516 301.57227 L 300.41797 295.55078 L 297.22656 295.55078 L 289.2793 302.81055 L 289.2793 289.7207 L 286.64062 289.7207 z M 88.498047 290.54492 C 83.025547 290.54492 80.384766 293.26656 80.384766 296.53906 C 80.384766 303.68906 91.578125 301.21586 91.578125 304.81836 C 91.578125 306.00086 90.505234 306.88086 87.865234 306.88086 C 85.555234 306.88086 83.134219 306.05555 81.511719 304.87305 L 80 308.22656 C 81.705 309.54656 84.785391 310.45508 87.837891 310.45508 C 93.337891 310.45508 96.005859 307.70578 96.005859 304.48828 C 96.005859 297.42078 84.8125 299.86781 84.8125 296.32031 C 84.8125 295.11031 85.830703 294.11914 88.470703 294.11914 C 90.175703 294.11914 92.017187 294.61531 93.804688 295.63281 L 95.179688 292.25 C 93.392188 291.1225 90.918047 290.54492 88.498047 290.54492 z M 179.76367 292.35938 L 179.76367 295.55078 L 177.28906 295.55078 L 177.28906 297.72266 L 179.76367 297.72266 L 179.76367 305.72461 C 179.76367 308.66711 181.44227 310.28906 184.38477 310.28906 C 185.56727 310.28906 186.77672 309.96094 187.57422 309.27344 L 186.74805 307.375 C 186.19805 307.815 185.45555 308.0625 184.68555 308.0625 C 183.22805 308.0625 182.4043 307.18273 182.4043 305.61523 L 182.4043 297.72266 L 186.58398 297.72266 L 186.58398 295.55078 L 182.4043 295.55078 L 182.4043 292.35938 L 179.76367 292.35938 z M 107.51758 295.10938 C 105.53758 295.10938 103.94359 295.74266 102.87109 297.03516 L 102.87109 295.33008 L 98.773438 295.33008 L 98.773438 315.46094 L 103.0625 315.46094 L 103.0625 308.55664 C 104.1625 309.76664 105.67508 310.3457 107.51758 310.3457 C 111.67008 310.3457 114.88867 307.37406 114.88867 302.72656 C 114.88867 298.07906 111.67008 295.10938 107.51758 295.10938 z M 124.52539 295.10938 C 120.01539 295.10938 116.63281 298.29906 116.63281 302.72656 C 116.63281 307.12656 119.96117 310.3457 125.07617 310.3457 C 127.74367 310.3457 129.80664 309.52062 131.18164 307.95312 L 128.89844 305.47656 C 127.88094 306.43906 126.75305 306.9082 125.18555 306.9082 C 122.93055 306.9082 121.36367 305.78 120.95117 303.9375 L 132.14258 303.9375 C 132.17008 303.58 132.22656 303.1132 132.22656 302.7832 C 132.22656 298.0257 128.87039 295.10938 124.52539 295.10938 z M 141.875 295.10938 C 137.365 295.10938 133.98242 298.29906 133.98242 302.72656 C 133.98242 307.12656 137.30883 310.3457 142.42383 310.3457 C 145.09133 310.3457 147.1543 309.52062 148.5293 307.95312 L 146.24609 305.47656 C 145.22859 306.43906 144.10266 306.9082 142.53516 306.9082 C 140.28016 306.9082 138.71133 305.78 138.29883 303.9375 L 149.49219 303.9375 C 149.51969 303.58 149.57422 303.1132 149.57422 302.7832 C 149.57422 298.0257 146.22 295.10938 141.875 295.10938 z M 215.58594 295.41211 C 211.37844 295.41211 208.27148 298.52039 208.27148 302.83789 C 208.27148 307.18289 211.40492 310.28906 216.10742 310.28906 C 218.52742 310.28906 220.53547 309.46578 221.85547 307.92578 L 220.39844 306.2207 C 219.32594 307.4032 217.89641 307.98047 216.19141 307.98047 C 213.30391 307.98047 211.24016 306.2743 210.91016 303.7168 L 222.73633 303.7168 C 222.76383 303.4693 222.79102 303.13992 222.79102 302.91992 C 222.79102 298.43742 219.79344 295.41211 215.58594 295.41211 z M 264.36133 295.41211 C 259.98883 295.41211 256.77148 298.49289 256.77148 302.83789 C 256.77148 307.18289 259.98883 310.28906 264.36133 310.28906 C 268.73383 310.28906 271.92383 307.18289 271.92383 302.83789 C 271.92383 298.49289 268.73383 295.41211 264.36133 295.41211 z M 283.41211 295.41211 C 280.85461 295.41211 279.04047 296.29305 278.10547 297.99805 L 278.10547 295.55078 L 275.57617 295.55078 L 275.57617 310.125 L 278.21484 310.125 L 278.21484 302.86523 C 278.21484 299.67523 279.97609 297.94336 282.80859 297.94336 C 283.00109 297.94336 283.19211 297.9432 283.41211 297.9707 L 283.41211 295.41211 z M 231.50391 295.55078 L 236.92188 310.125 L 239.45117 310.125 L 243.71484 299.07031 L 247.92188 310.125 L 250.45117 310.125 L 255.89648 295.55078 L 253.53125 295.55078 L 249.1875 307.21094 L 244.86914 295.55078 L 242.64258 295.55078 L 238.24219 307.1543 L 234.00781 295.55078 L 231.50391 295.55078 z M 215.58594 297.64062 C 218.14344 297.64062 219.98477 299.37281 220.25977 301.82031 L 210.91016 301.82031 C 211.18516 299.34531 213.05594 297.64062 215.58594 297.64062 z M 264.36133 297.72266 C 267.16633 297.72266 269.25586 299.73039 269.25586 302.83789 C 269.25586 305.94539 267.16633 307.98047 264.36133 307.98047 C 261.55633 307.98047 259.43945 305.94539 259.43945 302.83789 C 259.43945 299.73039 261.55633 297.72266 264.36133 297.72266 z M 124.55273 298.35547 C 126.47773 298.35547 127.88109 299.56555 128.18359 301.43555 L 120.89648 301.43555 C 121.19898 299.53805 122.60023 298.35547 124.55273 298.35547 z M 141.90234 298.35547 C 143.82734 298.35547 145.22875 299.56555 145.53125 301.43555 L 138.24414 301.43555 C 138.54664 299.53805 139.94984 298.35547 141.90234 298.35547 z M 106.77539 298.63086 C 108.92039 298.63086 110.54297 300.16906 110.54297 302.72656 C 110.54297 305.28406 108.92039 306.82422 106.77539 306.82422 C 104.63039 306.82422 103.00781 305.28406 103.00781 302.72656 C 103.00781 300.16906 104.63039 298.63086 106.77539 298.63086 z M 159.52539 298.63086 C 161.64289 298.63086 163.29297 300.16906 163.29297 302.72656 C 163.29297 305.28406 161.64289 306.82422 159.52539 306.82422 C 157.38039 306.82422 155.73047 305.28406 155.73047 302.72656 C 155.73047 300.16906 157.38039 298.63086 159.52539 298.63086 z M 246.72461 324.0957 L 246.72461 332.125 C 245.51461 330.5575 243.69922 329.78711 241.63672 329.78711 C 237.37422 329.78711 234.26758 332.75789 234.26758 337.21289 C 234.26758 341.66789 237.37422 344.66406 241.63672 344.66406 C 243.78172 344.66406 245.65148 343.83945 246.83398 342.18945 L 246.83398 344.5 L 249.36523 344.5 L 249.36523 324.0957 L 246.72461 324.0957 z M 145.875 329.78711 C 141.5025 329.78711 138.28516 332.86789 138.28516 337.21289 C 138.28516 341.55789 141.5025 344.66406 145.875 344.66406 C 150.2475 344.66406 153.4375 341.55789 153.4375 337.21289 C 153.4375 332.86789 150.2475 329.78711 145.875 329.78711 z M 190.92188 329.78711 C 188.61187 329.78711 186.74047 330.64 185.66797 332.125 L 185.66797 329.92578 L 183.13867 329.92578 L 183.13867 344.5 L 185.7793 344.5 L 185.7793 336.99219 C 185.7793 333.82969 187.59344 332.15234 190.39844 332.15234 C 192.90094 332.15234 194.33203 333.55406 194.33203 336.41406 L 194.33203 344.5 L 196.9707 344.5 L 196.9707 336.11328 C 196.9707 331.82328 194.46938 329.78711 190.92188 329.78711 z M 207.95898 329.78711 C 203.75148 329.78711 200.64453 332.89539 200.64453 337.21289 C 200.64453 341.55789 203.77797 344.66406 208.48047 344.66406 C 210.90047 344.66406 212.90852 343.84078 214.22852 342.30078 L 212.77148 340.5957 C 211.69898 341.7782 210.26945 342.35547 208.56445 342.35547 C 205.67695 342.35547 203.6132 340.6493 203.2832 338.0918 L 215.10938 338.0918 C 215.13688 337.8443 215.16406 337.51492 215.16406 337.29492 C 215.16406 332.81242 212.16648 329.78711 207.95898 329.78711 z M 224.76953 329.78711 C 220.56203 329.78711 217.45508 332.89539 217.45508 337.21289 C 217.45508 341.55789 220.59047 344.66406 225.29297 344.66406 C 227.71297 344.66406 229.72102 343.84078 231.04102 342.30078 L 229.58203 340.5957 C 228.50953 341.7782 227.08 342.35547 225.375 342.35547 C 222.4875 342.35547 220.4257 340.6493 220.0957 338.0918 L 231.91992 338.0918 C 231.94742 337.8443 231.97461 337.51492 231.97461 337.29492 C 231.97461 332.81242 228.97703 329.78711 224.76953 329.78711 z M 122.14453 329.92578 L 128.57812 344.47266 L 128.11133 345.49023 C 127.39633 347.16773 126.59898 347.74414 125.33398 347.74414 C 124.34398 347.74414 123.4357 347.35938 122.7207 346.67188 L 121.59375 348.65234 C 122.50125 349.53234 123.93148 350 125.33398 350 C 127.56148 350 129.23875 349.03699 130.53125 345.95703 L 137.59961 329.92578 L 135.01367 329.92578 L 129.98047 341.58594 L 124.89453 329.92578 L 122.14453 329.92578 z M 156.95117 329.92578 L 156.95117 338.3125 C 156.95117 342.6025 159.4532 344.66406 163.2207 344.66406 C 165.2832 344.66406 167.09938 343.81328 168.17188 342.30078 L 168.17188 344.5 L 170.67383 344.5 L 170.67383 329.92578 L 168.0332 329.92578 L 168.0332 337.46094 C 168.0332 340.59594 166.27344 342.30078 163.52344 342.30078 C 161.02094 342.30078 159.5918 340.86977 159.5918 338.00977 L 159.5918 329.92578 L 156.95117 329.92578 z M 207.95898 332.01562 C 210.51648 332.01562 212.35781 333.74781 212.63281 336.19531 L 203.2832 336.19531 C 203.5582 333.72031 205.42898 332.01562 207.95898 332.01562 z M 224.76953 332.01562 C 227.32703 332.01562 229.17031 333.74781 229.44531 336.19531 L 220.0957 336.19531 C 220.3707 333.72031 222.23953 332.01562 224.76953 332.01562 z M 145.875 332.09766 C 148.68 332.09766 150.76953 334.10539 150.76953 337.21289 C 150.76953 340.32039 148.68 342.35547 145.875 342.35547 C 143.07 342.35547 140.95312 340.32039 140.95312 337.21289 C 140.95312 334.10539 143.07 332.09766 145.875 332.09766 z M 241.85742 332.09766 C 244.63492 332.09766 246.75195 334.10539 246.75195 337.21289 C 246.75195 340.32039 244.63492 342.35547 241.85742 342.35547 C 239.05242 342.35547 236.93359 340.32039 236.93359 337.21289 C 236.93359 334.10539 239.05242 332.09766 241.85742 332.09766 z M 254.99219 340.89844 C 253.97469 340.89844 253.12109 341.66758 253.12109 342.76758 C 253.12109 343.86758 253.97469 344.66406 254.99219 344.66406 C 255.98219 344.66406 256.80664 343.86758 256.80664 342.76758 C 256.80664 341.66758 255.98219 340.89844 254.99219 340.89844 z "
         transform="translate(0,652.36222)"
         id="path4157" />
    </g>
    <g
       style="font-style:normal;font-weight:normal;font-size:40px;line-height:125%;font-family:sans-serif;letter-spacing:0px;word-spacing:0px;fill:#ffffff;fill-opacity:1;stroke:none;stroke-width:1px;stroke-linecap:butt;stroke-linejoin:miter;stroke-opacity:1"
       id="text3361-5">
      <path
         style="font-style:normal;font-variant:normal;font-weight:bold;font-stretch:normal;font-size:27.5px;font-family:Montserrat;-inkscape-font-specification:'Montserrat Bold';fill:#ffffff"
         d="M 441.96289 288.48242 C 440.36789 288.48242 439.29492 289.5275 439.29492 290.875 C 439.29492 292.2225 440.36789 293.26758 441.96289 293.26758 C 443.55789 293.26758 444.62891 292.22297 444.62891 290.79297 C 444.62891 289.47297 443.55789 288.48242 441.96289 288.48242 z M 421.76953 289.7207 L 421.76953 310.125 L 426.06055 310.125 L 426.06055 306.35742 L 428.12305 304.32227 L 432.79883 310.125 L 437.99609 310.125 L 431.28516 301.59961 L 437.44531 295.33008 L 432.33008 295.33008 L 426.06055 301.26953 L 426.06055 289.7207 L 421.76953 289.7207 z M 486.74609 289.7207 L 486.74609 310.125 L 489.38672 310.125 L 489.38672 302.61719 C 489.38672 299.45469 491.20086 297.77734 494.00586 297.77734 C 496.50836 297.77734 497.93945 299.17906 497.93945 302.03906 L 497.93945 310.125 L 500.57812 310.125 L 500.57812 301.73828 C 500.57812 297.44828 498.0768 295.41211 494.5293 295.41211 C 492.3018 295.41211 490.48672 296.21078 489.38672 297.61328 L 489.38672 289.7207 L 486.74609 289.7207 z M 582.61914 289.7207 L 582.61914 310.125 L 585.25977 310.125 L 585.25977 306.13672 L 588.28516 303.33203 L 593.75781 310.125 L 597.00195 310.125 L 590.26562 301.57227 L 596.39844 295.55078 L 593.20703 295.55078 L 585.25977 302.81055 L 585.25977 289.7207 L 582.61914 289.7207 z M 411.49414 290.54492 C 406.02164 290.54492 403.38281 293.26656 403.38281 296.53906 C 403.38281 303.68906 414.57422 301.21586 414.57422 304.81836 C 414.57422 306.00086 413.50133 306.88086 410.86133 306.88086 C 408.55133 306.88086 406.13227 306.05555 404.50977 304.87305 L 402.99609 308.22656 C 404.70109 309.54656 407.78148 310.45508 410.83398 310.45508 C 416.33398 310.45508 419.00195 307.70578 419.00195 304.48828 C 419.00195 297.42078 407.80859 299.86781 407.80859 296.32031 C 407.80859 295.11031 408.8268 294.11914 411.4668 294.11914 C 413.1718 294.11914 415.01523 294.61531 416.80273 295.63281 L 418.17773 292.25 C 416.39023 291.1225 413.91414 290.54492 411.49414 290.54492 z M 475.74414 292.35938 L 475.74414 295.55078 L 473.26953 295.55078 L 473.26953 297.72266 L 475.74414 297.72266 L 475.74414 305.72461 C 475.74414 308.66711 477.42273 310.28906 480.36523 310.28906 C 481.54773 310.28906 482.75719 309.96094 483.55469 309.27344 L 482.72852 307.375 C 482.17852 307.815 481.43602 308.0625 480.66602 308.0625 C 479.20852 308.0625 478.38477 307.18273 478.38477 305.61523 L 478.38477 297.72266 L 482.56445 297.72266 L 482.56445 295.55078 L 478.38477 295.55078 L 478.38477 292.35938 L 475.74414 292.35938 z M 456.83398 295.10938 C 454.85398 295.10938 453.25805 295.74266 452.18555 297.03516 L 452.18555 295.33008 L 448.08789 295.33008 L 448.08789 315.46094 L 452.37891 315.46094 L 452.37891 308.55664 C 453.47891 309.76664 454.99148 310.3457 456.83398 310.3457 C 460.98648 310.3457 464.20312 307.37406 464.20312 302.72656 C 464.20312 298.07906 460.98648 295.10938 456.83398 295.10938 z M 439.81641 295.33008 L 439.81641 310.125 L 444.10742 310.125 L 444.10742 295.33008 L 439.81641 295.33008 z M 511.56641 295.41211 C 507.35891 295.41211 504.25195 298.52039 504.25195 302.83789 C 504.25195 307.18289 507.38539 310.28906 512.08789 310.28906 C 514.50789 310.28906 516.51594 309.46578 517.83594 307.92578 L 516.37891 306.2207 C 515.30641 307.4032 513.87687 307.98047 512.17188 307.98047 C 509.28438 307.98047 507.22062 306.2743 506.89062 303.7168 L 518.7168 303.7168 C 518.7443 303.4693 518.77148 303.13992 518.77148 302.91992 C 518.77148 298.43742 515.77391 295.41211 511.56641 295.41211 z M 560.3418 295.41211 C 555.9693 295.41211 552.75195 298.49289 552.75195 302.83789 C 552.75195 307.18289 555.9693 310.28906 560.3418 310.28906 C 564.7143 310.28906 567.9043 307.18289 567.9043 302.83789 C 567.9043 298.49289 564.7143 295.41211 560.3418 295.41211 z M 579.39258 295.41211 C 576.83508 295.41211 575.02094 296.29305 574.08594 297.99805 L 574.08594 295.55078 L 571.55469 295.55078 L 571.55469 310.125 L 574.19531 310.125 L 574.19531 302.86523 C 574.19531 299.67523 575.95656 297.94336 578.78906 297.94336 C 578.98156 297.94336 579.17258 297.9432 579.39258 297.9707 L 579.39258 295.41211 z M 527.48438 295.55078 L 532.90234 310.125 L 535.43164 310.125 L 539.69531 299.07031 L 543.90234 310.125 L 546.43164 310.125 L 551.87695 295.55078 L 549.51172 295.55078 L 545.16797 307.21094 L 540.84961 295.55078 L 538.62305 295.55078 L 534.22266 307.1543 L 529.98633 295.55078 L 527.48438 295.55078 z M 511.56641 297.64062 C 514.12391 297.64062 515.96523 299.37281 516.24023 301.82031 L 506.89062 301.82031 C 507.16562 299.34531 509.03641 297.64062 511.56641 297.64062 z M 560.3418 297.72266 C 563.1468 297.72266 565.23633 299.73039 565.23633 302.83789 C 565.23633 305.94539 563.1468 307.98047 560.3418 307.98047 C 557.5368 307.98047 555.41992 305.94539 555.41992 302.83789 C 555.41992 299.73039 557.5368 297.72266 560.3418 297.72266 z M 456.0918 298.63086 C 458.2368 298.63086 459.85937 300.16906 459.85938 302.72656 C 459.85938 305.28406 458.2368 306.82422 456.0918 306.82422 C 453.9468 306.82422 452.32422 305.28406 452.32422 302.72656 C 452.32422 300.16906 453.9468 298.63086 456.0918 298.63086 z M 503.14648 324.0957 L 503.14648 332.125 C 501.93648 330.5575 500.12109 329.78711 498.05859 329.78711 C 493.79609 329.78711 490.68945 332.75789 490.68945 337.21289 C 490.68945 341.66789 493.79609 344.66406 498.05859 344.66406 C 500.20359 344.66406 502.07336 343.83945 503.25586 342.18945 L 503.25586 344.5 L 505.78711 344.5 L 505.78711 324.0957 L 503.14648 324.0957 z M 546.21289 325.25 L 546.37695 332.67578 L 548.33008 332.67578 L 548.52344 325.25 L 546.21289 325.25 z M 553.16797 326.73438 L 553.16797 329.92578 L 550.69336 329.92578 L 550.69336 332.09766 L 553.16797 332.09766 L 553.16797 340.09961 C 553.16797 343.04211 554.84656 344.66406 557.78906 344.66406 C 558.97156 344.66406 560.18102 344.33594 560.97852 343.64844 L 560.1543 341.75 C 559.6043 342.19 558.8618 342.4375 558.0918 342.4375 C 556.6343 342.4375 555.80859 341.55773 555.80859 339.99023 L 555.80859 332.09766 L 559.98828 332.09766 L 559.98828 329.92578 L 555.80859 329.92578 L 555.80859 326.73438 L 553.16797 326.73438 z M 454.77344 329.78711 C 450.40094 329.78711 447.18359 332.86789 447.18359 337.21289 C 447.18359 341.55789 450.40094 344.66406 454.77344 344.66406 C 459.14594 344.66406 462.33594 341.55789 462.33594 337.21289 C 462.33594 332.86789 459.14594 329.78711 454.77344 329.78711 z M 517.02344 329.78711 C 512.65094 329.78711 509.43359 332.86789 509.43359 337.21289 C 509.43359 341.55789 512.65094 344.66406 517.02344 344.66406 C 521.39594 344.66406 524.58594 341.55789 524.58594 337.21289 C 524.58594 332.86789 521.39594 329.78711 517.02344 329.78711 z M 536.01953 329.78711 C 533.70953 329.78711 531.84008 330.64 530.76758 332.125 L 530.76758 329.92578 L 528.23828 329.92578 L 528.23828 344.5 L 530.87695 344.5 L 530.87695 336.99219 C 530.87695 333.82969 532.69305 332.15234 535.49805 332.15234 C 538.00055 332.15234 539.42969 333.55406 539.42969 336.41406 L 539.42969 344.5 L 542.07031 344.5 L 542.07031 336.11328 C 542.07031 331.82328 539.56703 329.78711 536.01953 329.78711 z M 431.04102 329.92578 L 437.47656 344.47266 L 437.00977 345.49023 C 436.29477 347.16773 435.49742 347.74414 434.23242 347.74414 C 433.24242 347.74414 432.33414 347.35938 431.61914 346.67188 L 430.49219 348.65234 C 431.39969 349.53234 432.82992 350 434.23242 350 C 436.45992 350 438.13719 349.03699 439.42969 345.95703 L 446.49609 329.92578 L 443.91211 329.92578 L 438.87891 341.58594 L 433.79102 329.92578 L 431.04102 329.92578 z M 465.84961 329.92578 L 465.84961 338.3125 C 465.84961 342.6025 468.35164 344.66406 472.11914 344.66406 C 474.18164 344.66406 475.99586 343.81328 477.06836 342.30078 L 477.06836 344.5 L 479.57227 344.5 L 479.57227 329.92578 L 476.93164 329.92578 L 476.93164 337.46094 C 476.93164 340.59594 475.17188 342.30078 472.42188 342.30078 C 469.91938 342.30078 468.49023 340.86977 468.49023 338.00977 L 468.49023 329.92578 L 465.84961 329.92578 z M 454.77344 332.09766 C 457.57844 332.09766 459.66797 334.10539 459.66797 337.21289 C 459.66797 340.32039 457.57844 342.35547 454.77344 342.35547 C 451.96844 342.35547 449.85156 340.32039 449.85156 337.21289 C 449.85156 334.10539 451.96844 332.09766 454.77344 332.09766 z M 498.2793 332.09766 C 501.0568 332.09766 503.17383 334.10539 503.17383 337.21289 C 503.17383 340.32039 501.0568 342.35547 498.2793 342.35547 C 495.4743 342.35547 493.35742 340.32039 493.35742 337.21289 C 493.35742 334.10539 495.4743 332.09766 498.2793 332.09766 z M 517.02344 332.09766 C 519.82844 332.09766 521.91992 334.10539 521.91992 337.21289 C 521.91992 340.32039 519.82844 342.35547 517.02344 342.35547 C 514.21844 342.35547 512.10156 340.32039 512.10156 337.21289 C 512.10156 334.10539 514.21844 332.09766 517.02344 332.09766 z M 565.07227 340.89844 C 564.05477 340.89844 563.20117 341.66758 563.20117 342.76758 C 563.20117 343.86758 564.05477 344.66406 565.07227 344.66406 C 566.06227 344.66406 566.88672 343.86758 566.88672 342.76758 C 566.88672 341.66758 566.06227 340.89844 565.07227 340.89844 z "
         transform="translate(0,652.36222)"
         id="path4199" />
    </g>
    <g
       style="font-style:normal;font-weight:normal;font-size:40px;line-height:125%;font-family:sans-serif;letter-spacing:0px;word-spacing:0px;fill:#ffffff;fill-opacity:1;stroke:none;stroke-width:1px;stroke-linecap:butt;stroke-linejoin:miter;stroke-opacity:1"
       id="text3361-8">
      <path
         style="font-style:normal;font-variant:normal;font-weight:bold;font-stretch:normal;font-size:27.5px;font-family:montserrat;-inkscape-font-specification:'montserrat Bold';text-align:center;text-anchor:middle;fill:#ffffff"
         d="M 858.58594 289.60938 C 855.75344 289.60938 854.21289 291.31539 854.21289 293.90039 L 854.21289 295.6875 L 851.62695 295.6875 L 851.62695 297.33789 L 854.21289 297.33789 L 854.21289 310.15234 L 856.16602 310.15234 L 856.16602 297.33789 L 860.56445 297.33789 L 860.56445 295.6875 L 856.10938 295.6875 L 856.10938 293.98242 C 856.10938 292.19492 856.99047 291.25977 858.66797 291.25977 C 859.49297 291.25977 860.2625 291.50711 860.8125 291.97461 L 861.47266 290.51758 C 860.75766 289.91258 859.65844 289.60938 858.58594 289.60938 z M 758.32422 290.57227 C 752.85172 290.57227 750.21094 293.29586 750.21094 296.56836 C 750.21094 303.71836 761.4043 301.2432 761.4043 304.8457 C 761.4043 306.0282 760.33141 306.9082 757.69141 306.9082 C 755.38141 306.9082 752.96039 306.08289 751.33789 304.90039 L 749.82617 308.25586 C 751.53117 309.57586 754.61156 310.48242 757.66406 310.48242 C 763.16406 310.48242 765.83008 307.73312 765.83008 304.51562 C 765.83008 297.44813 754.63867 299.89516 754.63867 296.34766 C 754.63867 295.13766 755.65492 294.14844 758.29492 294.14844 C 759.99992 294.14844 761.84336 294.64266 763.63086 295.66016 L 765.00586 292.27734 C 763.21836 291.14984 760.74422 290.57227 758.32422 290.57227 z M 769.12109 292.08594 L 769.12109 295.6875 L 766.83984 295.6875 L 766.83984 298.98828 L 769.12109 298.98828 L 769.12109 305.06445 C 769.12109 308.58445 771.15594 310.37305 774.64844 310.37305 C 775.96844 310.37305 777.26258 310.07 778.14258 309.4375 L 776.98633 306.41211 C 776.51883 306.76961 775.88641 306.96289 775.25391 306.96289 C 774.09891 306.96289 773.41211 306.27477 773.41211 305.00977 L 773.41211 298.98828 L 777.09766 298.98828 L 777.09766 295.6875 L 773.41211 295.6875 L 773.41211 292.08594 L 769.12109 292.08594 z M 786.54492 295.13672 C 784.17992 295.13672 781.78656 295.77078 780.16406 296.92578 L 781.70508 299.92188 C 782.77758 299.06938 784.3993 298.54688 785.9668 298.54688 C 788.2768 298.54688 789.37695 299.62039 789.37695 301.46289 L 785.9668 301.46289 C 781.4568 301.46289 779.61523 303.27813 779.61523 305.89062 C 779.61523 308.44813 781.67758 310.37305 785.14258 310.37305 C 787.31508 310.37305 788.85484 309.65805 789.65234 308.31055 L 789.65234 310.15234 L 793.66602 310.15234 L 793.66602 301.71094 C 793.66602 297.22844 791.05492 295.13672 786.54492 295.13672 z M 806.29492 295.13672 C 804.39742 295.13672 802.74648 295.7975 801.64648 297.0625 L 801.64648 295.35742 L 797.54883 295.35742 L 797.54883 310.15234 L 801.83984 310.15234 L 801.83984 302.72656 C 801.83984 300.08656 803.18648 298.84961 805.08398 298.84961 C 806.87148 298.84961 807.88867 299.9493 807.88867 302.3418 L 807.88867 310.15234 L 812.17969 310.15234 L 812.17969 302.72656 C 812.17969 300.08656 813.52617 298.84961 815.45117 298.84961 C 817.18367 298.84961 818.25781 299.9493 818.25781 302.3418 L 818.25781 310.15234 L 822.54688 310.15234 L 822.54688 301.68164 C 822.54688 297.17164 820.01609 295.13672 816.49609 295.13672 C 814.26859 295.13672 812.34461 296.04414 811.16211 297.55664 C 810.11711 295.93414 808.35742 295.13672 806.29492 295.13672 z M 835.13672 295.13672 C 833.15672 295.13672 831.56273 295.77 830.49023 297.0625 L 830.49023 295.35742 L 826.39258 295.35742 L 826.39258 315.48828 L 830.68164 315.48828 L 830.68164 308.58594 C 831.78164 309.79594 833.29422 310.37305 835.13672 310.37305 C 839.28922 310.37305 842.50781 307.40336 842.50781 302.75586 C 842.50781 298.10836 839.28922 295.13672 835.13672 295.13672 z M 868.87305 295.57812 C 864.63805 295.57812 861.50195 298.62992 861.50195 302.91992 C 861.50195 307.20992 864.63805 310.28906 868.87305 310.28906 C 873.10805 310.28906 876.21484 307.20992 876.21484 302.91992 C 876.21484 298.62992 873.10805 295.57812 868.87305 295.57812 z M 887.48828 295.57812 C 884.82078 295.57812 882.97781 296.59453 882.07031 298.51953 L 882.07031 295.6875 L 880.20117 295.6875 L 880.20117 310.15234 L 882.1543 310.15234 L 882.1543 302.7832 C 882.1543 299.3732 883.99648 297.44727 887.02148 297.44727 C 887.15898 297.44727 887.32328 297.47461 887.48828 297.47461 L 887.48828 295.57812 z M 868.87305 297.2832 C 871.95305 297.2832 874.23438 299.53742 874.23438 302.91992 C 874.23438 306.30242 871.95305 308.55664 868.87305 308.55664 C 865.79305 308.55664 863.48242 306.30242 863.48242 302.91992 C 863.48242 299.53742 865.79305 297.2832 868.87305 297.2832 z M 834.39453 298.6582 C 836.53953 298.6582 838.16211 300.19836 838.16211 302.75586 C 838.16211 305.31336 836.53953 306.85156 834.39453 306.85156 C 832.24953 306.85156 830.62695 305.31336 830.62695 302.75586 C 830.62695 300.19836 832.24953 298.6582 834.39453 298.6582 z M 786.43359 303.96484 L 789.37695 303.96484 L 789.37695 305.47656 C 788.88195 306.82406 787.64484 307.48438 786.21484 307.48438 C 784.70234 307.48438 783.79492 306.76977 783.79492 305.69727 C 783.79492 304.70727 784.42609 303.96484 786.43359 303.96484 z M 803.76562 324.12305 L 803.76562 332.8125 C 802.55562 330.9425 800.57562 329.95312 798.26562 329.95312 C 794.14062 329.95312 791.06055 332.92242 791.06055 337.29492 C 791.06055 341.66742 794.14062 344.66406 798.26562 344.66406 C 800.65813 344.66406 802.66516 343.62047 803.84766 341.66797 L 803.84766 344.52734 L 805.71875 344.52734 L 805.71875 324.12305 L 803.76562 324.12305 z M 846.14453 324.12305 C 845.34703 324.12305 844.71484 324.75555 844.71484 325.49805 C 844.71484 326.26805 845.34703 326.90039 846.14453 326.90039 C 846.96953 326.90039 847.57422 326.2682 847.57422 325.4707 C 847.57422 324.7282 846.94203 324.12305 846.14453 324.12305 z M 852.56641 324.12305 L 852.56641 344.52734 L 854.4375 344.52734 L 854.4375 341.66797 C 855.62 343.62047 857.62703 344.66406 860.01953 344.66406 C 864.14453 344.66406 867.22461 341.66742 867.22461 337.29492 C 867.22461 332.92242 864.14453 329.95312 860.01953 329.95312 C 857.70953 329.95312 855.72953 330.9425 854.51953 332.8125 L 854.51953 324.12305 L 852.56641 324.12305 z M 872.19531 324.12305 C 871.39781 324.12305 870.76367 324.75555 870.76367 325.49805 C 870.76367 326.26805 871.39781 326.90039 872.19531 326.90039 C 873.02031 326.90039 873.625 326.2682 873.625 325.4707 C 873.625 324.7282 872.99281 324.12305 872.19531 324.12305 z M 878.61719 324.12305 L 878.61719 344.52734 L 880.56836 344.52734 L 880.56836 324.12305 L 878.61719 324.12305 z M 887.01953 324.12305 C 886.22203 324.12305 885.58789 324.75555 885.58789 325.49805 C 885.58789 326.26805 886.22203 326.90039 887.01953 326.90039 C 887.84453 326.90039 888.44922 326.2682 888.44922 325.4707 C 888.44922 324.7282 887.81703 324.12305 887.01953 324.12305 z M 893.77148 326.90039 L 893.77148 330.0625 L 891.18555 330.0625 L 891.18555 331.71289 L 893.77148 331.71289 L 893.77148 340.45703 C 893.77148 343.12453 895.28336 344.66406 898.00586 344.66406 C 899.13336 344.66406 900.28859 344.33594 901.05859 343.64844 L 900.37109 342.24414 C 899.82109 342.73914 899.02406 342.98828 898.22656 342.98828 C 896.60406 342.98828 895.72266 342.05266 895.72266 340.34766 L 895.72266 331.71289 L 900.12305 331.71289 L 900.12305 330.0625 L 895.72266 330.0625 L 895.72266 326.90039 L 893.77148 326.90039 z M 726.06055 329.95312 C 723.39305 329.95312 721.55008 330.96953 720.64258 332.89453 L 720.64258 330.0625 L 718.77344 330.0625 L 718.77344 344.52734 L 720.72461 344.52734 L 720.72461 337.1582 C 720.72461 333.7482 722.56875 331.82227 725.59375 331.82227 C 725.73125 331.82227 725.89555 331.84961 726.06055 331.84961 L 726.06055 329.95312 z M 735.01758 329.95312 C 730.94758 329.95312 727.95117 333.00492 727.95117 337.29492 C 727.95117 341.58492 731.03102 344.66406 735.54102 344.66406 C 737.82352 344.66406 739.83055 343.84078 741.12305 342.30078 L 740.02344 341.03516 C 738.92344 342.30016 737.3557 342.93164 735.5957 342.93164 C 732.4332 342.93164 730.12234 340.92539 729.90234 337.90039 L 742.00195 337.90039 C 742.00195 337.68039 742.0293 337.45992 742.0293 337.29492 C 742.0293 332.94992 739.08758 329.95312 735.01758 329.95312 z M 753.45703 329.95312 C 751.06453 329.95312 749.0575 330.99687 747.875 332.92188 L 747.875 330.0625 L 746.00391 330.0625 L 746.00391 349.86328 L 747.95703 349.86328 L 747.95703 341.80469 C 749.16703 343.67469 751.14703 344.66406 753.45703 344.66406 C 757.58203 344.66406 760.66211 341.69492 760.66211 337.29492 C 760.66211 332.92242 757.58203 329.95312 753.45703 329.95312 z M 771.92969 329.95312 C 769.26219 329.95312 767.41922 330.96953 766.51172 332.89453 L 766.51172 330.0625 L 764.64258 330.0625 L 764.64258 344.52734 L 766.59375 344.52734 L 766.59375 337.1582 C 766.59375 333.7482 768.43789 331.82227 771.46289 331.82227 C 771.60039 331.82227 771.76469 331.84961 771.92969 331.84961 L 771.92969 329.95312 z M 781.18945 329.95312 C 776.95445 329.95312 773.82031 333.00492 773.82031 337.29492 C 773.82031 341.58492 776.95445 344.66406 781.18945 344.66406 C 785.42445 344.66406 788.53125 341.58492 788.53125 337.29492 C 788.53125 333.00492 785.42445 329.95312 781.18945 329.95312 z M 835.68164 329.95312 C 831.36414 329.95312 828.22852 332.97742 828.22852 337.29492 C 828.22852 341.61242 831.36414 344.66406 835.68164 344.66406 C 838.12914 344.66406 840.1907 343.67469 841.3457 341.80469 L 839.88867 340.81445 C 838.89867 342.27195 837.35914 342.93164 835.68164 342.93164 C 832.51914 342.93164 830.20898 340.70492 830.20898 337.29492 C 830.20898 333.91242 832.51914 331.6582 835.68164 331.6582 C 837.35914 331.6582 838.89867 332.34523 839.88867 333.80273 L 841.3457 332.8125 C 840.1907 330.915 838.12914 329.95312 835.68164 329.95312 z M 811.01758 330.0625 L 811.01758 338.44922 C 811.01758 342.60172 813.43805 344.66406 817.12305 344.66406 C 819.43305 344.66406 821.30281 343.64672 822.32031 341.88672 L 822.32031 344.52734 L 824.19141 344.52734 L 824.19141 330.0625 L 822.23828 330.0625 L 822.23828 337.65234 C 822.23828 340.95234 820.34141 342.9043 817.31641 342.9043 C 814.56641 342.9043 812.9707 341.33781 812.9707 338.25781 L 812.9707 330.0625 L 811.01758 330.0625 z M 845.1543 330.0625 L 845.1543 344.52734 L 847.10742 344.52734 L 847.10742 330.0625 L 845.1543 330.0625 z M 871.20508 330.0625 L 871.20508 344.52734 L 873.15625 344.52734 L 873.15625 330.0625 L 871.20508 330.0625 z M 886.0293 330.0625 L 886.0293 344.52734 L 887.98047 344.52734 L 887.98047 330.0625 L 886.0293 330.0625 z M 901.64844 330.0625 L 908.11133 344.5 L 907.47852 345.90234 C 906.65352 347.71733 905.77492 348.32227 904.48242 348.32227 C 903.43742 348.32227 902.5568 347.93765 901.8418 347.22266 L 900.93359 348.67969 C 901.81359 349.55969 903.10758 350 904.45508 350 C 906.51758 350 908.05758 349.09226 909.26758 346.25977 L 916.5 330.0625 L 914.57422 330.0625 L 909.12891 342.35547 L 903.68359 330.0625 L 901.64844 330.0625 z M 735.01758 331.63086 C 737.85008 331.63086 739.91266 333.61086 740.16016 336.44336 L 729.90234 336.44336 C 730.14984 333.61086 732.21258 331.63086 735.01758 331.63086 z M 753.32031 331.6582 C 756.37281 331.6582 758.70898 333.93992 758.70898 337.29492 C 758.70898 340.67742 756.37281 342.93164 753.32031 342.93164 C 750.24031 342.93164 747.92969 340.67742 747.92969 337.29492 C 747.92969 333.93992 750.24031 331.6582 753.32031 331.6582 z M 781.18945 331.6582 C 784.26945 331.6582 786.55273 333.91242 786.55273 337.29492 C 786.55273 340.67742 784.26945 342.93164 781.18945 342.93164 C 778.10945 342.93164 775.79883 340.67742 775.79883 337.29492 C 775.79883 333.91242 778.10945 331.6582 781.18945 331.6582 z M 798.42969 331.6582 C 801.48219 331.6582 803.79297 333.91242 803.79297 337.29492 C 803.79297 340.67742 801.48219 342.93164 798.42969 342.93164 C 795.34969 342.93164 793.04102 340.67742 793.04102 337.29492 C 793.04102 333.91242 795.34969 331.6582 798.42969 331.6582 z M 859.88281 331.6582 C 862.93531 331.6582 865.27148 333.91242 865.27148 337.29492 C 865.27148 340.67742 862.93531 342.93164 859.88281 342.93164 C 856.80281 342.93164 854.49219 340.67742 854.49219 337.29492 C 854.49219 333.91242 856.80281 331.6582 859.88281 331.6582 z M 918.55469 341.66797 C 917.75719 341.66797 917.09766 342.29984 917.09766 343.15234 C 917.09766 344.00484 917.75719 344.66406 918.55469 344.66406 C 919.35219 344.66406 920.04102 344.00484 920.04102 343.15234 C 920.04102 342.29984 919.35219 341.66797 918.55469 341.66797 z "
         transform="translate(0,652.36222)"
         id="path4241" />
    </g>
    <g
       style="clip-rule:evenodd;fill:#ffffff;fill-rule:evenodd;image-rendering:optimizeQuality;shape-rendering:geometricPrecision;text-rendering:geometricPrecision"
       id="g3424"
       transform="matrix(0.25062657,0,0,0.25062657,142.516,702.36222)">
      <polygon
         style="fill:#ffffff"
         class="fil0"
         points="93,798 383,166 187,219 263,0 93,0 0,389 198,336 "
         id="polygon3426" />
    </g>
    <g
       id="g3445"
       transform="matrix(1.6282048,0,0,1.6282048,737.95636,720.95198)"
       style="fill:#ffffff">
      <path
         style="fill:#ffffff"
         inkscape:connector-curvature="0"
         d="m 76.961,54.103 c 0,14.866 -12.095,26.961 -26.961,26.961 -14.866,0 -26.961,-12.095 -26.961,-26.961 0,-13.299 9.682,-24.372 22.365,-26.561 l 0,7.806 27.199,-15.704 -27.199,-15.707 0,8.462 C 24.422,14.695 8.039,32.519 8.039,54.103 c 0,23.137 18.824,41.96 41.961,41.96 23.138,0 41.961,-18.823 41.961,-41.961 l -15,0 z"
         id="path3447" />
    </g>
    <g
       style="fill:#ffffff;fill-rule:evenodd;stroke:none;stroke-width:1"
       id="g3471"
       transform="matrix(1.1918696,0,0,1.1918716,401.858,726.40215)">
      <g
         style="fill:#ffffff"
         transform="translate(-5443,-2493)"
         id="g3473">
        <path
           inkscape:connector-curvature="0"
           d="m 5605.7394,2504.894 -11.111,-10.034 c -1.679,-1.514 -4.264,-1.382 -5.78,0.295 l -84.505,93.568 -43.877,-39.627 c -1.674,-1.513 -4.263,-1.383 -5.78,0.295 l -10.035,11.11 c -0.727,0.805 -1.105,1.867 -1.049,2.951 0.055,1.084 0.538,2.101 1.344,2.829 l 57.938,52.326 c 0.555,0.501 1.25,0.817 1.984,0.946 0.3,0.07 0.608,0.105 0.92,0.105 0.067,0 0.135,-10e-4 0.202,-0.01 1.086,-0.053 2.107,-0.537 2.835,-1.344 l 97.209,-107.635 c 0.727,-0.805 1.105,-1.867 1.049,-2.951 -0.055,-1.083 -0.538,-2.101 -1.344,-2.829"
           id="path3475"
           style="fill:#ffffff" />
      </g>
    </g>
  </g>
</svg>
