<?xml version="1.0" encoding="UTF-8" standalone="no"?>
<!-- Created with Inkscape (http://www.inkscape.org/) -->

<svg
   xmlns:dc="http://purl.org/dc/elements/1.1/"
   xmlns:cc="http://creativecommons.org/ns#"
   xmlns:rdf="http://www.w3.org/1999/02/22-rdf-syntax-ns#"
   xmlns:svg="http://www.w3.org/2000/svg"
   xmlns="http://www.w3.org/2000/svg"
   xmlns:sodipodi="http://sodipodi.sourceforge.net/DTD/sodipodi-0.dtd"
   xmlns:inkscape="http://www.inkscape.org/namespaces/inkscape"
   width="1000"
   height="310"
   viewBox="0 0 1000 310.00001"
   id="svg2"
   version="1.1"
   inkscape:version="0.91 r13725"
   sodipodi:docname="infographic.svg">
  <defs
     id="defs4">
    <style
       id="style3422"
       type="text/css">
   
    .fil0 {fill:black}
   
  </style>
  </defs>
  <sodipodi:namedview
     id="base"
     pagecolor="#ffffff"
     bordercolor="#666666"
     borderopacity="1.0"
     inkscape:pageopacity="0.0"
     inkscape:pageshadow="2"
     inkscape:zoom="5.3182881"
     inkscape:cx="841.05081"
     inkscape:cy="54.892344"
     inkscape:document-units="px"
     inkscape:current-layer="text3361-8"
     showgrid="false"
     units="px"
     inkscape:window-width="1920"
     inkscape:window-height="1019"
     inkscape:window-x="0"
     inkscape:window-y="0"
     inkscape:window-maximized="1"
     showguides="true" />
  <metadata
     id="metadata7">
    <rdf:RDF>
      <cc:Work
         rdf:about="">
        <dc:format>image/svg+xml</dc:format>
        <dc:type
           rdf:resource="http://purl.org/dc/dcmitype/StillImage" />
        <dc:title />
      </cc:Work>
    </rdf:RDF>
  </metadata>
  <g
     inkscape:label="Layer 1"
     inkscape:groupmode="layer"
     id="layer1"
     transform="translate(0,-742.36222)">
    <text
       xml:space="preserve"
       style="font-style:normal;font-weight:normal;font-size:40px;line-height:125%;font-family:sans-serif;letter-spacing:0px;word-spacing:0px;fill:#1c366b;fill-opacity:1;stroke:none;stroke-width:1px;stroke-linecap:butt;stroke-linejoin:miter;stroke-opacity:1"
       x="308.57144"
       y="338.07648"
       id="text3336"
       sodipodi:linespacing="125%"><tspan
         sodipodi:role="line"
         id="tspan3338"
         x="308.57144"
         y="338.07648" /></text>
    <g
       style="font-style:normal;font-weight:normal;font-size:40px;line-height:125%;font-family:sans-serif;letter-spacing:0px;word-spacing:0px;fill:#1c366b;fill-opacity:1;stroke:none;stroke-width:1px;stroke-linecap:butt;stroke-linejoin:miter;stroke-opacity:1"
       id="text3361">
      <path
         style="font-style:normal;font-variant:normal;font-weight:bold;font-stretch:normal;font-family:montserrat;-inkscape-font-specification:'montserrat Bold';fill:#1c366b;fill-opacity:1"
         d="M 121.29102 224.7207 L 121.29102 245.125 L 125.58008 245.125 L 125.58008 224.7207 L 121.29102 224.7207 z M 211.02734 224.7207 L 211.02734 245.125 L 213.66602 245.125 L 213.66602 237.61719 C 213.66602 234.45469 215.48211 232.77734 218.28711 232.77734 C 220.78961 232.77734 222.21875 234.17906 222.21875 237.03906 L 222.21875 245.125 L 224.85938 245.125 L 224.85938 236.73828 C 224.85938 232.44828 222.35609 230.41211 218.80859 230.41211 C 216.58109 230.41211 214.76602 231.21078 213.66602 232.61328 L 213.66602 224.7207 L 211.02734 224.7207 z M 77.767578 225.54492 C 72.295078 225.54492 69.654297 228.26656 69.654297 231.53906 C 69.654297 238.68906 80.847656 236.21586 80.847656 239.81836 C 80.847656 241.00086 79.774766 241.88086 77.134766 241.88086 C 74.824766 241.88086 72.40375 241.05555 70.78125 239.87305 L 69.269531 243.22656 C 70.974531 244.54656 74.054922 245.45508 77.107422 245.45508 C 82.607422 245.45508 85.275391 242.70578 85.275391 239.48828 C 85.275391 232.42078 74.082031 234.86781 74.082031 231.32031 C 74.082031 230.11031 75.100234 229.11914 77.740234 229.11914 C 79.445234 229.11914 81.286719 229.61531 83.074219 230.63281 L 84.449219 227.25 C 82.661719 226.1225 80.187578 225.54492 77.767578 225.54492 z M 200.02539 227.35938 L 200.02539 230.55078 L 197.54883 230.55078 L 197.54883 232.72266 L 200.02539 232.72266 L 200.02539 240.72461 C 200.02539 243.66711 201.70203 245.28906 204.64453 245.28906 C 205.82703 245.28906 207.03648 244.96094 207.83398 244.27344 L 207.00977 242.375 C 206.45977 242.815 205.71727 243.0625 204.94727 243.0625 C 203.48977 243.0625 202.66406 242.18273 202.66406 240.61523 L 202.66406 232.72266 L 206.8457 232.72266 L 206.8457 230.55078 L 202.66406 230.55078 L 202.66406 227.35938 L 200.02539 227.35938 z M 95.193359 230.10938 C 90.380859 230.10938 86.943359 233.27156 86.943359 237.72656 C 86.943359 242.18156 90.380859 245.3457 95.193359 245.3457 C 98.300859 245.3457 100.74781 243.97047 101.82031 241.60547 L 98.492188 239.78906 C 97.694688 241.21906 96.513516 241.82422 95.166016 241.82422 C 92.993516 241.82422 91.287109 240.31156 91.287109 237.72656 C 91.287109 235.14156 92.993516 233.63086 95.166016 233.63086 C 96.513516 233.63086 97.694688 234.26156 98.492188 235.66406 L 101.82031 233.87695 C 100.74781 231.45695 98.300859 230.10938 95.193359 230.10938 z M 110.28516 230.10938 C 107.92016 230.10938 105.5268 230.74344 103.9043 231.89844 L 105.44531 234.89453 C 106.51781 234.04203 108.13953 233.51953 109.70703 233.51953 C 112.01703 233.51953 113.11719 234.59305 113.11719 236.43555 L 109.70703 236.43555 C 105.19703 236.43555 103.35547 238.25078 103.35547 240.86328 C 103.35547 243.42078 105.41781 245.3457 108.88281 245.3457 C 111.05531 245.3457 112.59508 244.6307 113.39258 243.2832 L 113.39258 245.125 L 117.4082 245.125 L 117.4082 236.68164 C 117.4082 232.19914 114.79516 230.10938 110.28516 230.10938 z M 136.35352 230.10938 C 131.84352 230.10938 128.46094 233.29906 128.46094 237.72656 C 128.46094 242.12656 131.7893 245.3457 136.9043 245.3457 C 139.5718 245.3457 141.63477 244.52062 143.00977 242.95312 L 140.72656 240.47656 C 139.70906 241.43906 138.58117 241.9082 137.01367 241.9082 C 134.75867 241.9082 133.1918 240.78 132.7793 238.9375 L 143.9707 238.9375 C 143.9982 238.58 144.05469 238.1132 144.05469 237.7832 C 144.05469 233.0257 140.69852 230.10938 136.35352 230.10938 z M 181.21094 230.41211 C 179.06594 230.41211 177.19422 231.23688 176.01172 232.85938 L 176.01172 230.55078 L 173.48242 230.55078 L 173.48242 250.46094 L 176.12305 250.46094 L 176.12305 242.92578 C 177.33305 244.49328 179.14844 245.28906 181.21094 245.28906 C 185.47344 245.28906 188.58008 242.32039 188.58008 237.83789 C 188.58008 233.38289 185.47344 230.41211 181.21094 230.41211 z M 235.8457 230.41211 C 231.6382 230.41211 228.53125 233.52039 228.53125 237.83789 C 228.53125 242.18289 231.66664 245.28906 236.36914 245.28906 C 238.78914 245.28906 240.79719 244.46578 242.11719 242.92578 L 240.6582 241.2207 C 239.5857 242.4032 238.15617 242.98047 236.45117 242.98047 C 233.56367 242.98047 231.50188 241.2743 231.17188 238.7168 L 242.99609 238.7168 C 243.02359 238.4693 243.05078 238.13992 243.05078 237.91992 C 243.05078 233.43742 240.0532 230.41211 235.8457 230.41211 z M 154.70703 230.55078 L 154.70703 238.9375 C 154.70703 243.2275 157.20906 245.28906 160.97656 245.28906 C 163.03906 245.28906 164.85523 244.43828 165.92773 242.92578 L 165.92773 245.125 L 168.42969 245.125 L 168.42969 230.55078 L 165.78906 230.55078 L 165.78906 238.08594 C 165.78906 241.22094 164.0293 242.92578 161.2793 242.92578 C 158.7768 242.92578 157.34766 241.49477 157.34766 238.63477 L 157.34766 230.55078 L 154.70703 230.55078 z M 235.8457 232.64062 C 238.4032 232.64062 240.24648 234.37281 240.52148 236.82031 L 231.17188 236.82031 C 231.44688 234.34531 233.3157 232.64062 235.8457 232.64062 z M 180.99023 232.72266 C 183.79523 232.72266 185.91211 234.75789 185.91211 237.83789 C 185.91211 240.94539 183.79523 242.98047 180.99023 242.98047 C 178.21273 242.98047 176.0957 240.94539 176.0957 237.83789 C 176.0957 234.75789 178.21273 232.72266 180.99023 232.72266 z M 136.38086 233.35547 C 138.30586 233.35547 139.70922 234.56555 140.01172 236.43555 L 132.72461 236.43555 C 133.02711 234.53805 134.42836 233.35547 136.38086 233.35547 z M 110.17578 238.9375 L 113.11719 238.9375 L 113.11719 240.44922 C 112.62219 241.79672 111.38508 242.45703 109.95508 242.45703 C 108.44258 242.45703 107.53516 241.74242 107.53516 240.66992 C 107.53516 239.67992 108.16828 238.9375 110.17578 238.9375 z M 105.13477 259.0957 L 105.13477 279.5 L 107.77539 279.5 L 107.77539 275.51172 L 110.80078 272.70703 L 116.27344 279.5 L 119.51758 279.5 L 112.78125 270.94727 L 118.91211 264.92578 L 115.72266 264.92578 L 107.77539 272.18555 L 107.77539 259.0957 L 105.13477 259.0957 z M 251.49023 259.0957 L 251.49023 267.125 C 250.28023 265.5575 248.46484 264.78711 246.40234 264.78711 C 242.13984 264.78711 239.03125 267.75789 239.03125 272.21289 C 239.03125 276.66789 242.13984 279.66406 246.40234 279.66406 C 248.54734 279.66406 250.41711 278.83945 251.59961 277.18945 L 251.59961 279.5 L 254.12891 279.5 L 254.12891 259.0957 L 251.49023 259.0957 z M 82.857422 264.78711 C 78.484922 264.78711 75.267578 267.86789 75.267578 272.21289 C 75.267578 276.55789 78.484922 279.66406 82.857422 279.66406 C 87.229922 279.66406 90.419922 276.55789 90.419922 272.21289 C 90.419922 267.86789 87.229922 264.78711 82.857422 264.78711 z M 101.9082 264.78711 C 99.350698 264.78711 97.536562 265.66609 96.601562 267.37109 L 96.601562 264.92578 L 94.070312 264.92578 L 94.070312 279.5 L 96.710938 279.5 L 96.710938 272.24023 C 96.710938 269.05023 98.470229 267.31836 101.30273 267.31836 C 101.49523 267.31836 101.6882 267.31675 101.9082 267.34375 L 101.9082 264.78711 z M 150.64062 264.78711 C 146.26812 264.78711 143.05078 267.86789 143.05078 272.21289 C 143.05078 276.55789 146.26812 279.66406 150.64062 279.66406 C 155.01313 279.66406 158.20312 276.55789 158.20312 272.21289 C 158.20312 267.86789 155.01313 264.78711 150.64062 264.78711 z M 195.68555 264.78711 C 193.37555 264.78711 191.50609 265.64 190.43359 267.125 L 190.43359 264.92578 L 187.9043 264.92578 L 187.9043 279.5 L 190.54297 279.5 L 190.54297 271.99219 C 190.54297 268.82969 192.35906 267.15234 195.16406 267.15234 C 197.66656 267.15234 199.0957 268.55406 199.0957 271.41406 L 199.0957 279.5 L 201.73633 279.5 L 201.73633 271.11328 C 201.73633 266.82328 199.23305 264.78711 195.68555 264.78711 z M 212.72461 264.78711 C 208.51711 264.78711 205.4082 267.89539 205.4082 272.21289 C 205.4082 276.55789 208.54359 279.66406 213.24609 279.66406 C 215.66609 279.66406 217.67414 278.84078 218.99414 277.30078 L 217.53711 275.5957 C 216.46461 276.7782 215.03313 277.35547 213.32812 277.35547 C 210.44063 277.35547 208.37883 275.6493 208.04883 273.0918 L 219.87305 273.0918 C 219.90055 272.8443 219.92969 272.51492 219.92969 272.29492 C 219.92969 267.81242 216.93211 264.78711 212.72461 264.78711 z M 229.53516 264.78711 C 225.32766 264.78711 222.2207 267.89539 222.2207 272.21289 C 222.2207 276.55789 225.35609 279.66406 230.05859 279.66406 C 232.47859 279.66406 234.48469 278.84078 235.80469 277.30078 L 234.34766 275.5957 C 233.27516 276.7782 231.84563 277.35547 230.14062 277.35547 C 227.25313 277.35547 225.19133 275.6493 224.86133 273.0918 L 236.68555 273.0918 C 236.71305 272.8443 236.74023 272.51492 236.74023 272.29492 C 236.74023 267.81242 233.74266 264.78711 229.53516 264.78711 z M 50 264.92578 L 55.417969 279.5 L 57.947266 279.5 L 62.210938 268.44531 L 66.417969 279.5 L 68.947266 279.5 L 74.392578 264.92578 L 72.027344 264.92578 L 67.681641 276.58594 L 63.365234 264.92578 L 61.136719 264.92578 L 56.738281 276.5293 L 52.501953 264.92578 L 50 264.92578 z M 126.9082 264.92578 L 133.34375 279.47266 L 132.87695 280.49023 C 132.16195 282.16773 131.36461 282.74414 130.09961 282.74414 C 129.10961 282.74414 128.20133 282.35938 127.48633 281.67188 L 126.35938 283.65234 C 127.26687 284.53234 128.69711 285 130.09961 285 C 132.32711 285 134.00438 284.03703 135.29688 280.95703 L 142.36328 264.92578 L 139.7793 264.92578 L 134.74609 276.58594 L 129.6582 264.92578 L 126.9082 264.92578 z M 161.7168 264.92578 L 161.7168 273.3125 C 161.7168 277.6025 164.21883 279.66406 167.98633 279.66406 C 170.04883 279.66406 171.865 278.81328 172.9375 277.30078 L 172.9375 279.5 L 175.43945 279.5 L 175.43945 264.92578 L 172.79883 264.92578 L 172.79883 272.46094 C 172.79883 275.59594 171.03906 277.30078 168.28906 277.30078 C 165.78656 277.30078 164.35742 275.86977 164.35742 273.00977 L 164.35742 264.92578 L 161.7168 264.92578 z M 212.72461 267.01562 C 215.28211 267.01562 217.12344 268.74781 217.39844 271.19531 L 208.04883 271.19531 C 208.32383 268.72031 210.19461 267.01562 212.72461 267.01562 z M 229.53516 267.01562 C 232.09266 267.01562 233.93594 268.74781 234.21094 271.19531 L 224.86133 271.19531 C 225.13633 268.72031 227.00516 267.01562 229.53516 267.01562 z M 82.857422 267.09766 C 85.662422 267.09766 87.751953 269.10539 87.751953 272.21289 C 87.751953 275.32039 85.662422 277.35547 82.857422 277.35547 C 80.052422 277.35547 77.935547 275.32039 77.935547 272.21289 C 77.935547 269.10539 80.052422 267.09766 82.857422 267.09766 z M 150.64062 267.09766 C 153.44563 267.09766 155.53516 269.10539 155.53516 272.21289 C 155.53516 275.32039 153.44562 277.35547 150.64062 277.35547 C 147.83562 277.35547 145.71875 275.32039 145.71875 272.21289 C 145.71875 269.10539 147.83562 267.09766 150.64062 267.09766 z M 246.62109 267.09766 C 249.39859 267.09766 251.51758 269.10539 251.51758 272.21289 C 251.51758 275.32039 249.39859 277.35547 246.62109 277.35547 C 243.81609 277.35547 241.69922 275.32039 241.69922 272.21289 C 241.69922 269.10539 243.81609 267.09766 246.62109 267.09766 z M 259.75781 275.89844 C 258.74031 275.89844 257.88672 276.66758 257.88672 277.76758 C 257.88672 278.86758 258.74031 279.66406 259.75781 279.66406 C 260.74781 279.66406 261.57227 278.86758 261.57227 277.76758 C 261.57227 276.66758 260.74781 275.89844 259.75781 275.89844 z "
         transform="translate(0,742.36222)"
         id="path4266" />
    </g>
    <g
       style="font-style:normal;font-weight:normal;font-size:40px;line-height:125%;font-family:sans-serif;letter-spacing:0px;word-spacing:0px;fill:#1c366b;fill-opacity:1;stroke:none;stroke-width:1px;stroke-linecap:butt;stroke-linejoin:miter;stroke-opacity:1"
       id="text3361-5">
      <path
         style="font-style:normal;font-variant:normal;font-weight:bold;font-stretch:normal;font-size:27.5px;font-family:Montserrat;-inkscape-font-specification:'Montserrat Bold';fill:#1c366b;fill-opacity:1"
         d="M 481.45312 223.48242 C 479.85812 223.48242 478.78516 224.5275 478.78516 225.875 C 478.78516 227.2225 479.85812 228.26758 481.45312 228.26758 C 483.04813 228.26758 484.12109 227.22297 484.12109 225.79297 C 484.12109 224.47297 483.04813 223.48242 481.45312 223.48242 z M 461.26172 224.7207 L 461.26172 245.125 L 465.55078 245.125 L 465.55078 241.35742 L 467.61328 239.32227 L 472.28906 245.125 L 477.48633 245.125 L 470.77539 236.59961 L 476.93555 230.33008 L 471.82031 230.33008 L 465.55078 236.26953 L 465.55078 224.7207 L 461.26172 224.7207 z M 526.23633 224.7207 L 526.23633 245.125 L 528.87695 245.125 L 528.87695 237.61719 C 528.87695 234.45469 530.69109 232.77734 533.49609 232.77734 C 535.99859 232.77734 537.42969 234.17906 537.42969 237.03906 L 537.42969 245.125 L 540.06836 245.125 L 540.06836 236.73828 C 540.06836 232.44828 537.56703 230.41211 534.01953 230.41211 C 531.79203 230.41211 529.97695 231.21078 528.87695 232.61328 L 528.87695 224.7207 L 526.23633 224.7207 z M 450.98438 225.54492 C 445.51187 225.54492 442.87305 228.26656 442.87305 231.53906 C 442.87305 238.68906 454.06445 236.21586 454.06445 239.81836 C 454.06445 241.00086 452.99156 241.88086 450.35156 241.88086 C 448.04156 241.88086 445.6225 241.05555 444 239.87305 L 442.48633 243.22656 C 444.19133 244.54656 447.27172 245.45508 450.32422 245.45508 C 455.82422 245.45508 458.49219 242.70578 458.49219 239.48828 C 458.49219 232.42078 447.29883 234.86781 447.29883 231.32031 C 447.29883 230.11031 448.31703 229.11914 450.95703 229.11914 C 452.66203 229.11914 454.50547 229.61531 456.29297 230.63281 L 457.66797 227.25 C 455.88047 226.1225 453.40438 225.54492 450.98438 225.54492 z M 515.23438 227.35938 L 515.23438 230.55078 L 512.75977 230.55078 L 512.75977 232.72266 L 515.23438 232.72266 L 515.23438 240.72461 C 515.23438 243.66711 516.91297 245.28906 519.85547 245.28906 C 521.03797 245.28906 522.24742 244.96094 523.04492 244.27344 L 522.21875 242.375 C 521.66875 242.815 520.92625 243.0625 520.15625 243.0625 C 518.69875 243.0625 517.875 242.18273 517.875 240.61523 L 517.875 232.72266 L 522.05469 232.72266 L 522.05469 230.55078 L 517.875 230.55078 L 517.875 227.35938 L 515.23438 227.35938 z M 496.32422 230.10938 C 494.34422 230.10938 492.74828 230.74266 491.67578 232.03516 L 491.67578 230.33008 L 487.58008 230.33008 L 487.58008 250.46094 L 491.86914 250.46094 L 491.86914 243.55664 C 492.96914 244.76664 494.48172 245.3457 496.32422 245.3457 C 500.47672 245.3457 503.69336 242.37406 503.69336 237.72656 C 503.69336 233.07906 500.47672 230.10938 496.32422 230.10938 z M 479.30859 230.33008 L 479.30859 245.125 L 483.59766 245.125 L 483.59766 230.33008 L 479.30859 230.33008 z M 551.05664 230.41211 C 546.84914 230.41211 543.74219 233.52039 543.74219 237.83789 C 543.74219 242.18289 546.87562 245.28906 551.57812 245.28906 C 553.99812 245.28906 556.00617 244.46578 557.32617 242.92578 L 555.86914 241.2207 C 554.79664 242.4032 553.36711 242.98047 551.66211 242.98047 C 548.77461 242.98047 546.71086 241.2743 546.38086 238.7168 L 558.20703 238.7168 C 558.23453 238.4693 558.26172 238.13992 558.26172 237.91992 C 558.26172 233.43742 555.26414 230.41211 551.05664 230.41211 z M 551.05664 232.64062 C 553.61414 232.64062 555.45547 234.37281 555.73047 236.82031 L 546.38086 236.82031 C 546.65586 234.34531 548.52664 232.64062 551.05664 232.64062 z M 495.58203 233.63086 C 497.72703 233.63086 499.34961 235.16906 499.34961 237.72656 C 499.34961 240.28406 497.72703 241.82422 495.58203 241.82422 C 493.43703 241.82422 491.81445 240.28406 491.81445 237.72656 C 491.81445 235.16906 493.43703 233.63086 495.58203 233.63086 z M 448.75781 259.0957 L 448.75781 279.5 L 451.39844 279.5 L 451.39844 275.51172 L 454.42383 272.70703 L 459.89648 279.5 L 463.14062 279.5 L 456.4043 270.94727 L 462.53516 264.92578 L 459.3457 264.92578 L 451.39844 272.18555 L 451.39844 259.0957 L 448.75781 259.0957 z M 542.63672 259.0957 L 542.63672 267.125 C 541.42672 265.5575 539.61133 264.78711 537.54883 264.78711 C 533.28633 264.78711 530.17969 267.75789 530.17969 272.21289 C 530.17969 276.66789 533.28633 279.66406 537.54883 279.66406 C 539.69383 279.66406 541.56359 278.83945 542.74609 277.18945 L 542.74609 279.5 L 545.27734 279.5 L 545.27734 259.0957 L 542.63672 259.0957 z M 585.70312 260.25 L 585.86914 267.67578 L 587.82031 267.67578 L 588.01367 260.25 L 585.70312 260.25 z M 592.6582 261.73438 L 592.6582 264.92578 L 590.18359 264.92578 L 590.18359 267.09766 L 592.6582 267.09766 L 592.6582 275.09961 C 592.6582 278.04211 594.3368 279.66406 597.2793 279.66406 C 598.4618 279.66406 599.67125 279.33594 600.46875 278.64844 L 599.64453 276.75 C 599.09453 277.19 598.35203 277.4375 597.58203 277.4375 C 596.12453 277.4375 595.29883 276.55773 595.29883 274.99023 L 595.29883 267.09766 L 599.47852 267.09766 L 599.47852 264.92578 L 595.29883 264.92578 L 595.29883 261.73438 L 592.6582 261.73438 z M 426.48047 264.78711 C 422.10797 264.78711 418.89062 267.86789 418.89062 272.21289 C 418.89062 276.55789 422.10797 279.66406 426.48047 279.66406 C 430.85297 279.66406 434.04297 276.55789 434.04297 272.21289 C 434.04297 267.86789 430.85297 264.78711 426.48047 264.78711 z M 445.53125 264.78711 C 442.97375 264.78711 441.15961 265.66609 440.22461 267.37109 L 440.22461 264.92578 L 437.69336 264.92578 L 437.69336 279.5 L 440.33398 279.5 L 440.33398 272.24023 C 440.33398 269.05023 442.09328 267.31836 444.92578 267.31836 C 445.11828 267.31836 445.31125 267.31675 445.53125 267.34375 L 445.53125 264.78711 z M 494.26367 264.78711 C 489.89117 264.78711 486.67383 267.86789 486.67383 272.21289 C 486.67383 276.55789 489.89117 279.66406 494.26367 279.66406 C 498.63617 279.66406 501.82617 276.55789 501.82617 272.21289 C 501.82617 267.86789 498.63617 264.78711 494.26367 264.78711 z M 556.51367 264.78711 C 552.14117 264.78711 548.92383 267.86789 548.92383 272.21289 C 548.92383 276.55789 552.14117 279.66406 556.51367 279.66406 C 560.88617 279.66406 564.07617 276.55789 564.07617 272.21289 C 564.07617 267.86789 560.88617 264.78711 556.51367 264.78711 z M 575.50977 264.78711 C 573.19977 264.78711 571.33031 265.64 570.25781 267.125 L 570.25781 264.92578 L 567.72852 264.92578 L 567.72852 279.5 L 570.36719 279.5 L 570.36719 271.99219 C 570.36719 268.82969 572.18328 267.15234 574.98828 267.15234 C 577.49078 267.15234 578.91992 268.55406 578.91992 271.41406 L 578.91992 279.5 L 581.56055 279.5 L 581.56055 271.11328 C 581.56055 266.82328 579.05727 264.78711 575.50977 264.78711 z M 393.62305 264.92578 L 399.04102 279.5 L 401.57031 279.5 L 405.83398 268.44531 L 410.04102 279.5 L 412.57031 279.5 L 418.01562 264.92578 L 415.65039 264.92578 L 411.30469 276.58594 L 406.98828 264.92578 L 404.75977 264.92578 L 400.36133 276.5293 L 396.125 264.92578 L 393.62305 264.92578 z M 470.53125 264.92578 L 476.9668 279.47266 L 476.5 280.49023 C 475.785 282.16773 474.98766 282.74414 473.72266 282.74414 C 472.73266 282.74414 471.82438 282.35938 471.10938 281.67188 L 469.98242 283.65234 C 470.88992 284.53234 472.32016 285 473.72266 285 C 475.95016 285 477.62742 284.03703 478.91992 280.95703 L 485.98633 264.92578 L 483.40234 264.92578 L 478.36914 276.58594 L 473.28125 264.92578 L 470.53125 264.92578 z M 505.33984 264.92578 L 505.33984 273.3125 C 505.33984 277.6025 507.84188 279.66406 511.60938 279.66406 C 513.67188 279.66406 515.48805 278.81328 516.56055 277.30078 L 516.56055 279.5 L 519.0625 279.5 L 519.0625 264.92578 L 516.42188 264.92578 L 516.42188 272.46094 C 516.42188 275.59594 514.66211 277.30078 511.91211 277.30078 C 509.40961 277.30078 507.98047 275.86977 507.98047 273.00977 L 507.98047 264.92578 L 505.33984 264.92578 z M 426.48047 267.09766 C 429.28547 267.09766 431.375 269.10539 431.375 272.21289 C 431.375 275.32039 429.28547 277.35547 426.48047 277.35547 C 423.67547 277.35547 421.55859 275.32039 421.55859 272.21289 C 421.55859 269.10539 423.67547 267.09766 426.48047 267.09766 z M 494.26367 267.09766 C 497.06867 267.09766 499.1582 269.10539 499.1582 272.21289 C 499.1582 275.32039 497.06867 277.35547 494.26367 277.35547 C 491.45867 277.35547 489.3418 275.32039 489.3418 272.21289 C 489.3418 269.10539 491.45867 267.09766 494.26367 267.09766 z M 537.76953 267.09766 C 540.54703 267.09766 542.66406 269.10539 542.66406 272.21289 C 542.66406 275.32039 540.54703 277.35547 537.76953 277.35547 C 534.96453 277.35547 532.84766 275.32039 532.84766 272.21289 C 532.84766 269.10539 534.96453 267.09766 537.76953 267.09766 z M 556.51367 267.09766 C 559.31867 267.09766 561.41016 269.10539 561.41016 272.21289 C 561.41016 275.32039 559.31867 277.35547 556.51367 277.35547 C 553.70867 277.35547 551.5918 275.32039 551.5918 272.21289 C 551.5918 269.10539 553.70867 267.09766 556.51367 267.09766 z M 604.5625 275.89844 C 603.545 275.89844 602.69141 276.66758 602.69141 277.76758 C 602.69141 278.86758 603.545 279.66406 604.5625 279.66406 C 605.5525 279.66406 606.37695 278.86758 606.37695 277.76758 C 606.37695 276.66758 605.5525 275.89844 604.5625 275.89844 z "
         transform="translate(0,742.36222)"
         id="path4225" />
    </g>
    <g
       style="font-style:normal;font-variant:normal;font-weight:normal;font-stretch:normal;font-size:40px;line-height:125%;font-family:montserrat;-inkscape-font-specification:montserrat;letter-spacing:0px;word-spacing:0px;fill:#1c366b;fill-opacity:1;stroke:none;stroke-width:1px;stroke-linecap:butt;stroke-linejoin:miter;stroke-opacity:1"
       id="text3361-8">
      <path
         style="font-style:normal;font-variant:normal;font-weight:bold;font-stretch:normal;font-family:montserrat;-inkscape-font-specification:'montserrat Bold';fill:#1c366b;fill-opacity:1"
         d="M 823.91406 224.30664 C 822.89656 224.30664 822.12695 225.07656 822.12695 226.03906 C 822.12695 227.00156 822.89656 227.74414 823.91406 227.74414 C 824.95906 227.74414 825.70312 226.97438 825.70312 225.98438 C 825.70312 225.04938 824.93156 224.30664 823.91406 224.30664 z M 947.03125 224.55469 C 943.92375 224.55469 942.21875 226.42531 942.21875 229.25781 L 942.21875 230.55078 L 939.74219 230.55078 L 939.74219 232.72266 L 942.21875 232.72266 L 942.21875 245.125 L 944.85742 245.125 L 944.85742 232.72266 L 949.03711 232.72266 L 949.03711 230.55078 L 944.80273 230.55078 L 944.80273 229.28516 C 944.80273 227.60766 945.60047 226.72656 947.16797 226.72656 C 947.93797 226.72656 948.65313 227.00156 949.20312 227.41406 L 950 225.4082 C 949.2575 224.8307 948.15875 224.55469 947.03125 224.55469 z M 841.38477 224.7207 L 841.38477 232.75 C 840.17477 231.1825 838.35937 230.41211 836.29688 230.41211 C 832.03437 230.41211 828.92773 233.38289 828.92773 237.83789 C 828.92773 242.29289 832.03437 245.28906 836.29688 245.28906 C 838.44187 245.28906 840.31359 244.46445 841.49609 242.81445 L 841.49609 245.125 L 844.02539 245.125 L 844.02539 224.7207 L 841.38477 224.7207 z M 737.7832 225.54492 C 732.3107 225.54492 729.66992 228.26656 729.66992 231.53906 C 729.66992 238.68906 740.86328 236.21586 740.86328 239.81836 C 740.86328 241.00086 739.79039 241.88086 737.15039 241.88086 C 734.84039 241.88086 732.41937 241.05555 730.79688 239.87305 L 729.28516 243.22656 C 730.99016 244.54656 734.07055 245.45508 737.12305 245.45508 C 742.62305 245.45508 745.28906 242.70578 745.28906 239.48828 C 745.28906 232.42078 734.09766 234.86781 734.09766 231.32031 C 734.09766 230.11031 735.11586 229.11914 737.75586 229.11914 C 739.46086 229.11914 741.30234 229.61531 743.08984 230.63281 L 744.46484 227.25 C 742.67734 226.1225 740.2032 225.54492 737.7832 225.54492 z M 754.85156 230.10938 C 750.34156 230.10938 746.95898 233.29906 746.95898 237.72656 C 746.95898 242.12656 750.28539 245.3457 755.40039 245.3457 C 758.06789 245.3457 760.13086 244.52062 761.50586 242.95312 L 759.22266 240.47656 C 758.20516 241.43906 757.07922 241.9082 755.51172 241.9082 C 753.25672 241.9082 751.68789 240.78 751.27539 238.9375 L 762.46875 238.9375 C 762.49625 238.58 762.55078 238.1132 762.55078 237.7832 C 762.55078 233.0257 759.19656 230.10938 754.85156 230.10938 z M 772.19922 230.10938 C 767.68922 230.10938 764.30664 233.29906 764.30664 237.72656 C 764.30664 242.12656 767.635 245.3457 772.75 245.3457 C 775.4175 245.3457 777.48047 244.52062 778.85547 242.95312 L 776.57227 240.47656 C 775.55477 241.43906 774.42688 241.9082 772.85938 241.9082 C 770.60438 241.9082 769.0375 240.78 768.625 238.9375 L 779.81641 238.9375 C 779.84391 238.58 779.90039 238.1132 779.90039 237.7832 C 779.90039 233.0257 776.54422 230.10938 772.19922 230.10938 z M 796.6582 230.41211 C 792.4507 230.41211 789.34375 233.52039 789.34375 237.83789 C 789.34375 242.18289 792.47719 245.28906 797.17969 245.28906 C 799.59969 245.28906 801.60773 244.46578 802.92773 242.92578 L 801.4707 241.2207 C 800.3982 242.4032 798.96867 242.98047 797.26367 242.98047 C 794.37617 242.98047 792.31242 241.2743 791.98242 238.7168 L 803.80859 238.7168 C 803.83609 238.4693 803.86328 238.13992 803.86328 237.91992 C 803.86328 233.43742 800.8657 230.41211 796.6582 230.41211 z M 854.98828 230.41211 C 850.78078 230.41211 847.67383 233.52039 847.67383 237.83789 C 847.67383 242.18289 850.80727 245.28906 855.50977 245.28906 C 857.92977 245.28906 859.93781 244.46578 861.25781 242.92578 L 859.80078 241.2207 C 858.72828 242.4032 857.29875 242.98047 855.59375 242.98047 C 852.70625 242.98047 850.6425 241.2743 850.3125 238.7168 L 862.13867 238.7168 C 862.16617 238.4693 862.19336 238.13992 862.19336 237.91992 C 862.19336 233.43742 859.19578 230.41211 854.98828 230.41211 z M 873.61523 230.41211 C 871.30523 230.41211 869.43383 231.265 868.36133 232.75 L 868.36133 230.55078 L 865.83203 230.55078 L 865.83203 245.125 L 868.47266 245.125 L 868.47266 237.61719 C 868.47266 234.45469 870.2868 232.77734 873.0918 232.77734 C 875.5943 232.77734 877.02539 234.17906 877.02539 237.03906 L 877.02539 245.125 L 879.66406 245.125 L 879.66406 236.73828 C 879.66406 232.44828 877.16273 230.41211 873.61523 230.41211 z M 891.03711 230.41211 C 886.55461 230.41211 883.33789 233.49289 883.33789 237.83789 C 883.33789 242.18289 886.55461 245.28906 891.03711 245.28906 C 893.64961 245.28906 895.82156 244.1893 896.97656 242.1543 L 894.96875 240.89062 C 894.03375 242.32062 892.60477 242.98047 891.00977 242.98047 C 888.14977 242.98047 886.00391 241.00039 886.00391 237.83789 C 886.00391 234.73039 888.14977 232.72266 891.00977 232.72266 C 892.60477 232.72266 894.03375 233.3825 894.96875 234.8125 L 896.97656 233.51953 C 895.82156 231.48453 893.64961 230.41211 891.03711 230.41211 z M 906.12109 230.41211 C 901.91359 230.41211 898.80664 233.52039 898.80664 237.83789 C 898.80664 242.18289 901.94008 245.28906 906.64258 245.28906 C 909.06258 245.28906 911.07062 244.46578 912.39062 242.92578 L 910.93359 241.2207 C 909.86109 242.4032 908.43156 242.98047 906.72656 242.98047 C 903.83906 242.98047 901.77531 241.2743 901.44531 238.7168 L 913.27148 238.7168 C 913.29898 238.4693 913.32617 238.13992 913.32617 237.91992 C 913.32617 233.43742 910.32859 230.41211 906.12109 230.41211 z M 930.61914 230.41211 C 926.24664 230.41211 923.0293 233.49289 923.0293 237.83789 C 923.0293 242.18289 926.24664 245.28906 930.61914 245.28906 C 934.99164 245.28906 938.18164 242.18289 938.18164 237.83789 C 938.18164 233.49289 934.99164 230.41211 930.61914 230.41211 z M 804.67578 230.55078 L 811.05664 245.125 L 813.75 245.125 L 820.13086 230.55078 L 817.54492 230.55078 L 812.43164 242.23828 L 807.42578 230.55078 L 804.67578 230.55078 z M 822.59375 230.55078 L 822.59375 245.125 L 825.23438 245.125 L 825.23438 230.55078 L 822.59375 230.55078 z M 796.6582 232.64062 C 799.2157 232.64062 801.05703 234.37281 801.33203 236.82031 L 791.98242 236.82031 C 792.25742 234.34531 794.1282 232.64062 796.6582 232.64062 z M 854.98828 232.64062 C 857.54578 232.64062 859.38711 234.37281 859.66211 236.82031 L 850.3125 236.82031 C 850.5875 234.34531 852.45828 232.64062 854.98828 232.64062 z M 906.12109 232.64062 C 908.67859 232.64062 910.51992 234.37281 910.79492 236.82031 L 901.44531 236.82031 C 901.72031 234.34531 903.59109 232.64062 906.12109 232.64062 z M 836.51758 232.72266 C 839.29508 232.72266 841.41211 234.73039 841.41211 237.83789 C 841.41211 240.94539 839.29508 242.98047 836.51758 242.98047 C 833.71258 242.98047 831.5957 240.94539 831.5957 237.83789 C 831.5957 234.73039 833.71258 232.72266 836.51758 232.72266 z M 930.61914 232.72266 C 933.42414 232.72266 935.51367 234.73039 935.51367 237.83789 C 935.51367 240.94539 933.42414 242.98047 930.61914 242.98047 C 927.81414 242.98047 925.69727 240.94539 925.69727 237.83789 C 925.69727 234.73039 927.81414 232.72266 930.61914 232.72266 z M 754.87891 233.35547 C 756.80391 233.35547 758.20531 234.56555 758.50781 236.43555 L 751.2207 236.43555 C 751.5232 234.53805 752.92641 233.35547 754.87891 233.35547 z M 772.22656 233.35547 C 774.15156 233.35547 775.55492 234.56555 775.85742 236.43555 L 768.57031 236.43555 C 768.87281 234.53805 770.27406 233.35547 772.22656 233.35547 z M 865.9707 258.68164 C 864.9532 258.68164 864.18359 259.45156 864.18359 260.41406 C 864.18359 261.37656 864.9532 262.11914 865.9707 262.11914 C 867.0157 262.11914 867.75781 261.34938 867.75781 260.35938 C 867.75781 259.42438 866.9882 258.68164 865.9707 258.68164 z M 892.39648 258.68164 C 891.37898 258.68164 890.60937 259.45156 890.60938 260.41406 C 890.60938 261.37656 891.37898 262.11914 892.39648 262.11914 C 893.44148 262.11914 894.18359 261.34938 894.18359 260.35938 C 894.18359 259.42438 893.41398 258.68164 892.39648 258.68164 z M 907.75781 258.68164 C 906.74031 258.68164 905.9707 259.45156 905.9707 260.41406 C 905.9707 261.37656 906.74031 262.11914 907.75781 262.11914 C 908.80281 262.11914 909.54492 261.34938 909.54492 260.35938 C 909.54492 259.42438 908.77531 258.68164 907.75781 258.68164 z M 822.69336 259.0957 L 822.69336 267.125 C 821.48336 265.5575 819.66797 264.78711 817.60547 264.78711 C 813.34297 264.78711 810.23633 267.75789 810.23633 272.21289 C 810.23633 276.66789 813.34297 279.66406 817.60547 279.66406 C 819.75047 279.66406 821.62219 278.83945 822.80469 277.18945 L 822.80469 279.5 L 825.33398 279.5 L 825.33398 259.0957 L 822.69336 259.0957 z M 872.33008 259.0957 L 872.33008 279.5 L 874.86133 279.5 L 874.86133 277.18945 C 876.04383 278.83945 877.91359 279.66406 880.05859 279.66406 C 884.32109 279.66406 887.42773 276.66789 887.42773 272.21289 C 887.42773 267.75789 884.32109 264.78711 880.05859 264.78711 C 877.99609 264.78711 876.1807 265.5575 874.9707 267.125 L 874.9707 259.0957 L 872.33008 259.0957 z M 898.75586 259.0957 L 898.75586 279.5 L 901.39648 279.5 L 901.39648 259.0957 L 898.75586 259.0957 z M 914.50391 261.73438 L 914.50391 264.92578 L 912.02734 264.92578 L 912.02734 267.09766 L 914.50391 267.09766 L 914.50391 275.09961 C 914.50391 278.04211 916.18055 279.66406 919.12305 279.66406 C 920.30555 279.66406 921.515 279.33594 922.3125 278.64844 L 921.48828 276.75 C 920.93828 277.19 920.19578 277.4375 919.42578 277.4375 C 917.96828 277.4375 917.14258 276.55773 917.14258 274.99023 L 917.14258 267.09766 L 921.32227 267.09766 L 921.32227 264.92578 L 917.14258 264.92578 L 917.14258 261.73438 L 914.50391 261.73438 z M 744.49414 264.78711 C 741.93664 264.78711 740.1225 265.66609 739.1875 267.37109 L 739.1875 264.92578 L 736.65625 264.92578 L 736.65625 279.5 L 739.29688 279.5 L 739.29688 272.24023 C 739.29688 269.05023 741.05812 267.31836 743.89062 267.31836 C 744.08312 267.31836 744.27414 267.31675 744.49414 267.34375 L 744.49414 264.78711 z M 753.58203 264.78711 C 749.37453 264.78711 746.26758 267.89539 746.26758 272.21289 C 746.26758 276.55789 749.40102 279.66406 754.10352 279.66406 C 756.52352 279.66406 758.53156 278.84078 759.85156 277.30078 L 758.39453 275.5957 C 757.32203 276.7782 755.8925 277.35547 754.1875 277.35547 C 751.3 277.35547 749.23625 275.6493 748.90625 273.0918 L 760.73242 273.0918 C 760.75992 272.8443 760.78711 272.51492 760.78711 272.29492 C 760.78711 267.81242 757.78953 264.78711 753.58203 264.78711 z M 772.15234 264.78711 C 770.00734 264.78711 768.13758 265.61188 766.95508 267.23438 L 766.95508 264.92578 L 764.42578 264.92578 L 764.42578 284.83594 L 767.06641 284.83594 L 767.06641 277.30078 C 768.27641 278.86828 770.08984 279.66406 772.15234 279.66406 C 776.41484 279.66406 779.52344 276.69539 779.52344 272.21289 C 779.52344 267.75789 776.41484 264.78711 772.15234 264.78711 z M 791.00781 264.78711 C 788.45031 264.78711 786.63617 265.66609 785.70117 267.37109 L 785.70117 264.92578 L 783.16992 264.92578 L 783.16992 279.5 L 785.81055 279.5 L 785.81055 272.24023 C 785.81055 269.05023 787.5718 267.31836 790.4043 267.31836 C 790.5968 267.31836 790.78781 267.31675 791.00781 267.34375 L 791.00781 264.78711 z M 800.37109 264.78711 C 795.99859 264.78711 792.78125 267.86789 792.78125 272.21289 C 792.78125 276.55789 795.99859 279.66406 800.37109 279.66406 C 804.74359 279.66406 807.93359 276.55789 807.93359 272.21289 C 807.93359 267.86789 804.74359 264.78711 800.37109 264.78711 z M 855.31836 264.78711 C 850.83586 264.78711 847.61914 267.86789 847.61914 272.21289 C 847.61914 276.55789 850.83586 279.66406 855.31836 279.66406 C 857.93086 279.66406 860.10477 278.5643 861.25977 276.5293 L 859.25195 275.26562 C 858.31695 276.69562 856.88602 277.35547 855.29102 277.35547 C 852.43102 277.35547 850.28711 275.37539 850.28711 272.21289 C 850.28711 269.10539 852.43102 267.09766 855.29102 267.09766 C 856.88602 267.09766 858.31695 267.7575 859.25195 269.1875 L 861.25977 267.89453 C 860.10477 265.85953 857.93086 264.78711 855.31836 264.78711 z M 830.19141 264.92578 L 830.19141 273.3125 C 830.19141 277.6025 832.69344 279.66406 836.46094 279.66406 C 838.52344 279.66406 840.33961 278.81328 841.41211 277.30078 L 841.41211 279.5 L 843.91406 279.5 L 843.91406 264.92578 L 841.27344 264.92578 L 841.27344 272.46094 C 841.27344 275.59594 839.51367 277.30078 836.76367 277.30078 C 834.26117 277.30078 832.83203 275.86977 832.83203 273.00977 L 832.83203 264.92578 L 830.19141 264.92578 z M 864.65039 264.92578 L 864.65039 279.5 L 867.29102 279.5 L 867.29102 264.92578 L 864.65039 264.92578 z M 891.07617 264.92578 L 891.07617 279.5 L 893.7168 279.5 L 893.7168 264.92578 L 891.07617 264.92578 z M 906.4375 264.92578 L 906.4375 279.5 L 909.07812 279.5 L 909.07812 264.92578 L 906.4375 264.92578 z M 922.67969 264.92578 L 929.11328 279.47266 L 928.64648 280.49023 C 927.93148 282.16773 927.13414 282.74414 925.86914 282.74414 C 924.87914 282.74414 923.97086 282.35938 923.25586 281.67188 L 922.12891 283.65234 C 923.03641 284.53234 924.46664 285 925.86914 285 C 928.09664 285 929.77391 284.03703 931.06641 280.95703 L 938.13281 264.92578 L 935.54883 264.92578 L 930.51562 276.58594 L 925.42969 264.92578 L 922.67969 264.92578 z M 753.58203 267.01562 C 756.13953 267.01562 757.98086 268.74781 758.25586 271.19531 L 748.90625 271.19531 C 749.18125 268.72031 751.05203 267.01562 753.58203 267.01562 z M 771.93359 267.09766 C 774.73859 267.09766 776.85547 269.13289 776.85547 272.21289 C 776.85547 275.32039 774.73859 277.35547 771.93359 277.35547 C 769.15609 277.35547 767.03906 275.32039 767.03906 272.21289 C 767.03906 269.13289 769.15609 267.09766 771.93359 267.09766 z M 800.37109 267.09766 C 803.17609 267.09766 805.26562 269.10539 805.26562 272.21289 C 805.26562 275.32039 803.17609 277.35547 800.37109 277.35547 C 797.56609 277.35547 795.44727 275.32039 795.44727 272.21289 C 795.44727 269.10539 797.56609 267.09766 800.37109 267.09766 z M 817.82617 267.09766 C 820.60367 267.09766 822.7207 269.10539 822.7207 272.21289 C 822.7207 275.32039 820.60367 277.35547 817.82617 277.35547 C 815.02117 277.35547 812.9043 275.32039 812.9043 272.21289 C 812.9043 269.10539 815.02117 267.09766 817.82617 267.09766 z M 879.83789 267.09766 C 882.64289 267.09766 884.76172 269.10539 884.76172 272.21289 C 884.76172 275.32039 882.64289 277.35547 879.83789 277.35547 C 877.06039 277.35547 874.94336 275.32039 874.94336 272.21289 C 874.94336 269.10539 877.06039 267.09766 879.83789 267.09766 z M 940.31641 275.89844 C 939.29891 275.89844 938.44727 276.66758 938.44727 277.76758 C 938.44727 278.86758 939.29891 279.66406 940.31641 279.66406 C 941.30641 279.66406 942.13281 278.86758 942.13281 277.76758 C 942.13281 276.66758 941.30641 275.89844 940.31641 275.89844 z "
         transform="translate(0,742.36222)"
         id="path4166" />
    </g>
    <g
       id="g3445"
       transform="matrix(1.6282048,0,0,1.6282048,758.23235,760.95196)"
       style="fill:#1c366b;fill-opacity:1">
      <path
         style="fill:#1c366b;fill-opacity:1"
         inkscape:connector-curvature="0"
         d="m 76.961,54.103 c 0,14.866 -12.095,26.961 -26.961,26.961 -14.866,0 -26.961,-12.095 -26.961,-26.961 0,-13.299 9.682,-24.372 22.365,-26.561 l 0,7.806 27.199,-15.704 -27.199,-15.707 0,8.462 C 24.422,14.695 8.039,32.519 8.039,54.103 c 0,23.137 18.824,41.96 41.961,41.96 23.138,0 41.961,-18.823 41.961,-41.961 l -15,0 z"
         id="path3447" />
    </g>
    <flowRoot
       xml:space="preserve"
       id="flowRoot4189"
       style="font-style:normal;font-weight:normal;font-size:40px;line-height:125%;font-family:sans-serif;letter-spacing:0px;word-spacing:0px;fill:#1c366b;fill-opacity:1;stroke:none;stroke-width:1px;stroke-linecap:butt;stroke-linejoin:miter;stroke-opacity:1"><flowRegion
         id="flowRegion4191"><rect
           id="rect4193"
           width="26.136364"
           height="203.40909"
           x="103.40909"
           y="-186.36363"
           style="fill:#1c366b;fill-opacity:1" /></flowRegion><flowPara
         id="flowPara4195" /></flowRoot>    <g
       transform="matrix(5.7692308,0,0,5.7692308,-3219.214,-3513.407)"
       id="g4206"
       style="fill:#1c366b;fill-opacity:1">
      <g
         id="g4208"
         style="fill:#1c366b;fill-opacity:1">
        <polygon
           points="598,756 598,742 584,742 584,747 593,747 593,756 "
           id="polygon4210"
           style="fill:#1c366b;fill-opacity:1" />
        <polygon
           points="592,762 592,748 578,748 578,753 587,753 587,762 "
           id="polygon4212"
           style="fill:#1c366b;fill-opacity:1" />
        <rect
           x="572"
           y="754"
           width="14"
           height="14"
           id="rect4214"
           style="fill:#1c366b;fill-opacity:1" />
      </g>
    </g>
    <g
       id="g4266"
       transform="matrix(3.7406484,0,0,3.7406484,375.4312,712.74873)"
       style="fill:#1c366b;fill-opacity:1">
      <polygon
         points="12.2,29.5 7.4,34.6 28.2,54.7 59.2,19.2 54,14.6 27.8,44.5 "
         id="polygon4268"
         style="fill:#1c366b;fill-opacity:1" />
    </g>
  </g>
</svg>
