<?xml version="1.0" encoding="UTF-8" standalone="no"?>
<!-- Created with Inkscape (http://www.inkscape.org/) -->

<svg
   xmlns:dc="http://purl.org/dc/elements/1.1/"
   xmlns:cc="http://creativecommons.org/ns#"
   xmlns:rdf="http://www.w3.org/1999/02/22-rdf-syntax-ns#"
   xmlns:svg="http://www.w3.org/2000/svg"
   xmlns="http://www.w3.org/2000/svg"
   xmlns:sodipodi="http://sodipodi.sourceforge.net/DTD/sodipodi-0.dtd"
   xmlns:inkscape="http://www.inkscape.org/namespaces/inkscape"
   width="1000"
   height="300"
   viewBox="0 0 1000 300.00001"
   id="svg2"
   version="1.1"
   inkscape:version="0.91 r13725"
   sodipodi:docname="infographic.svg">
  <defs
     id="defs4">
    <style
       id="style3422"
       type="text/css">
   
    .fil0 {fill:black}
   
  </style>
  </defs>
  <sodipodi:namedview
     id="base"
     pagecolor="#ffffff"
     bordercolor="#666666"
     borderopacity="1.0"
     inkscape:pageopacity="0.0"
     inkscape:pageshadow="2"
     inkscape:zoom="1"
     inkscape:cx="528.69405"
     inkscape:cy="54.892344"
     inkscape:document-units="px"
     inkscape:current-layer="layer1"
     showgrid="false"
     units="px"
     inkscape:window-width="1920"
     inkscape:window-height="1019"
     inkscape:window-x="0"
     inkscape:window-y="0"
     inkscape:window-maximized="1"
     showguides="true" />
  <metadata
     id="metadata7">
    <rdf:RDF>
      <cc:Work
         rdf:about="">
        <dc:format>image/svg+xml</dc:format>
        <dc:type
           rdf:resource="http://purl.org/dc/dcmitype/StillImage" />
        <dc:title></dc:title>
      </cc:Work>
    </rdf:RDF>
  </metadata>
  <g
     inkscape:label="Layer 1"
     inkscape:groupmode="layer"
     id="layer1"
     transform="translate(0,-752.36222)">
    <text
       xml:space="preserve"
       style="font-style:normal;font-weight:normal;font-size:40px;line-height:125%;font-family:sans-serif;letter-spacing:0px;word-spacing:0px;fill:#1c366b;fill-opacity:1;stroke:none;stroke-width:1px;stroke-linecap:butt;stroke-linejoin:miter;stroke-opacity:1"
       x="308.57144"
       y="338.07648"
       id="text3336"
       sodipodi:linespacing="125%"><tspan
         sodipodi:role="line"
         id="tspan3338"
         x="308.57144"
         y="338.07648" /></text>
    <g
       style="font-style:normal;font-weight:normal;font-size:40px;line-height:125%;font-family:sans-serif;letter-spacing:0px;word-spacing:0px;fill:#1c366b;fill-opacity:1;stroke:none;stroke-width:1px;stroke-linecap:butt;stroke-linejoin:miter;stroke-opacity:1"
       id="text3361"
       transform="translate(25,0)">
      <path
         style="font-style:normal;font-variant:normal;font-weight:bold;font-stretch:normal;font-family:montserrat;-inkscape-font-specification:'montserrat Bold';fill:#1c366b;fill-opacity:1"
         d="m 121.29102,224.7207 0,20.4043 4.28906,0 0,-20.4043 -4.28906,0 z m 89.73632,0 0,20.4043 2.63868,0 0,-7.50781 c 0,-3.1625 1.81609,-4.83985 4.62109,-4.83985 2.5025,0 3.93164,1.40172 3.93164,4.26172 l 0,8.08594 2.64063,0 0,-8.38672 c 0,-4.29 -2.50329,-6.32617 -6.05079,-6.32617 -2.2275,0 -4.04257,0.79867 -5.14257,2.20117 l 0,-7.89258 -2.63868,0 z m -133.259762,0.82422 c -5.4725,0 -8.113281,2.72164 -8.113281,5.99414 0,7.15 11.193359,4.6768 11.193359,8.2793 0,1.1825 -1.07289,2.0625 -3.71289,2.0625 -2.31,0 -4.731016,-0.82531 -6.353516,-2.00781 l -1.511719,3.35351 c 1.705,1.32 4.785391,2.22852 7.837891,2.22852 5.5,0 8.167969,-2.7493 8.167969,-5.9668 0,-7.0675 -11.19336,-4.62047 -11.19336,-8.16797 0,-1.21 1.018203,-2.20117 3.658203,-2.20117 1.705,0 3.546485,0.49617 5.333985,1.51367 l 1.375,-3.38281 c -1.7875,-1.1275 -4.261641,-1.70508 -6.681641,-1.70508 z m 122.257812,1.81446 0,3.1914 -2.47656,0 0,2.17188 2.47656,0 0,8.00195 c 0,2.9425 1.67664,4.56445 4.61914,4.56445 1.1825,0 2.39195,-0.32812 3.18945,-1.01562 l -0.82421,-1.89844 c -0.55,0.44 -1.2925,0.6875 -2.0625,0.6875 -1.4575,0 -2.28321,-0.87977 -2.28321,-2.44727 l 0,-7.89257 4.18164,0 0,-2.17188 -4.18164,0 0,-3.1914 -2.63867,0 z m -104.832031,2.75 c -4.8125,0 -8.25,3.16218 -8.25,7.61718 0,4.455 3.4375,7.61914 8.25,7.61914 3.1075,0 5.554451,-1.37523 6.626951,-3.74023 l -3.328122,-1.81641 c -0.7975,1.43 -1.978672,2.03516 -3.326172,2.03516 -2.1725,0 -3.878907,-1.51266 -3.878907,-4.09766 0,-2.585 1.706407,-4.0957 3.878907,-4.0957 1.3475,0 2.528672,0.6307 3.326172,2.0332 l 3.328122,-1.78711 c -1.0725,-2.42 -3.519451,-3.76757 -6.626951,-3.76757 z m 15.091801,0 c -2.365,0 -4.75836,0.63406 -6.38086,1.78906 l 1.54101,2.99609 c 1.0725,-0.8525 2.69422,-1.375 4.26172,-1.375 2.31,0 3.41016,1.07352 3.41016,2.91602 l -3.41016,0 c -4.51,0 -6.35156,1.81523 -6.35156,4.42773 0,2.5575 2.06234,4.48242 5.52734,4.48242 2.1725,0 3.71227,-0.715 4.50977,-2.0625 l 0,1.8418 4.01562,0 0,-8.44336 c 0,-4.4825 -2.61304,-6.57226 -7.12304,-6.57226 z m 26.06836,0 c -4.51,0 -7.89258,3.18968 -7.89258,7.61718 0,4.4 3.32836,7.61914 8.44336,7.61914 2.6675,0 4.73047,-0.82508 6.10547,-2.39258 l -2.28321,-2.47656 c -1.0175,0.9625 -2.14539,1.43164 -3.71289,1.43164 -2.255,0 -3.82187,-1.1282 -4.23437,-2.9707 l 11.1914,0 c 0.0275,-0.3575 0.084,-0.8243 0.084,-1.1543 0,-4.7575 -3.35617,-7.67382 -7.70117,-7.67382 z m 44.85742,0.30273 c -2.145,0 -4.01672,0.82477 -5.19922,2.44727 l 0,-2.3086 -2.5293,0 0,19.91016 2.64063,0 0,-7.53516 c 1.21,1.5675 3.02539,2.36328 5.08789,2.36328 4.2625,0 7.36914,-2.96867 7.36914,-7.45117 0,-4.455 -3.10664,-7.42578 -7.36914,-7.42578 z m 54.63476,0 c -4.2075,0 -7.31445,3.10828 -7.31445,7.42578 0,4.345 3.13539,7.45117 7.83789,7.45117 2.42,0 4.42805,-0.82328 5.74805,-2.36328 l -1.45899,-1.70508 c -1.0725,1.1825 -2.50203,1.75977 -4.20703,1.75977 -2.8875,0 -4.94929,-1.70617 -5.27929,-4.26367 l 11.82421,0 c 0.0275,-0.2475 0.0547,-0.57688 0.0547,-0.79688 0,-4.4825 -2.99758,-7.50781 -7.20508,-7.50781 z m -81.13867,0.13867 0,8.38672 c 0,4.29 2.50203,6.35156 6.26953,6.35156 2.0625,0 3.87867,-0.85078 4.95117,-2.36328 l 0,2.19922 2.50196,0 0,-14.57422 -2.64063,0 0,7.53516 c 0,3.135 -1.75976,4.83984 -4.50976,4.83984 -2.5025,0 -3.93164,-1.43101 -3.93164,-4.29101 l 0,-8.08399 -2.64063,0 z m 81.13867,2.08984 c 2.5575,0 4.40078,1.73219 4.67578,4.17969 l -9.3496,0 c 0.275,-2.475 2.14382,-4.17969 4.67382,-4.17969 z m -54.85547,0.082 c 2.805,0 4.92188,2.03523 4.92188,5.11523 0,3.1075 -2.11688,5.14258 -4.92188,5.14258 -2.7775,0 -4.89453,-2.03508 -4.89453,-5.14258 0,-3.08 2.11703,-5.11523 4.89453,-5.11523 z m -44.60937,0.63281 c 1.925,0 3.32836,1.21008 3.63086,3.08008 l -7.28711,0 c 0.3025,-1.8975 1.70375,-3.08008 3.65625,-3.08008 z m -26.20508,5.58203 2.94141,0 0,1.51172 c -0.495,1.3475 -1.73211,2.00781 -3.16211,2.00781 -1.5125,0 -2.41992,-0.71461 -2.41992,-1.78711 0,-0.99 0.63312,-1.73242 2.64062,-1.73242 z m -5.04101,20.1582 0,20.4043 2.64062,0 0,-3.98828 3.02539,-2.80469 5.47266,6.79297 3.24414,0 -6.73633,-8.55273 6.13086,-6.02149 -3.18945,0 -7.94727,7.25977 0,-13.08985 -2.64062,0 z m 146.35546,0 0,8.0293 c -1.21,-1.5675 -3.02539,-2.33789 -5.08789,-2.33789 -4.2625,0 -7.37109,2.97078 -7.37109,7.42578 0,4.455 3.10859,7.45117 7.37109,7.45117 2.145,0 4.01477,-0.82461 5.19727,-2.47461 l 0,2.31055 2.5293,0 0,-20.4043 -2.63868,0 z m -168.632808,5.69141 c -4.3725,0 -7.589844,3.08078 -7.589844,7.42578 0,4.345 3.217344,7.45117 7.589844,7.45117 4.3725,0 7.5625,-3.10617 7.5625,-7.45117 0,-4.345 -3.19,-7.42578 -7.5625,-7.42578 z m 19.050778,0 c -2.557502,0 -4.371638,0.87898 -5.306638,2.58398 l 0,-2.44531 -2.53125,0 0,14.57422 2.640626,0 0,-7.25977 c 0,-3.19 1.759291,-4.92187 4.591792,-4.92187 0.1925,0 0.38547,-0.002 0.60547,0.0254 l 0,-2.55664 z m 48.73242,0 c -4.3725,0 -7.58984,3.08078 -7.58984,7.42578 0,4.345 3.21734,7.45117 7.58984,7.45117 4.37251,0 7.5625,-3.10617 7.5625,-7.45117 0,-4.345 -3.18999,-7.42578 -7.5625,-7.42578 z m 45.04493,0 c -2.31,0 -4.17946,0.85289 -5.25196,2.33789 l 0,-2.19922 -2.52929,0 0,14.57422 2.63867,0 0,-7.50781 c 0,-3.1625 1.81609,-4.83985 4.62109,-4.83985 2.5025,0 3.93164,1.40172 3.93164,4.26172 l 0,8.08594 2.64063,0 0,-8.38672 c 0,-4.29 -2.50328,-6.32617 -6.05078,-6.32617 z m 17.03906,0 c -4.2075,0 -7.31641,3.10828 -7.31641,7.42578 0,4.345 3.13539,7.45117 7.83789,7.45117 2.42,0 4.42805,-0.82328 5.74805,-2.36328 l -1.45703,-1.70508 c -1.0725,1.1825 -2.50398,1.75977 -4.20899,1.75977 -2.88749,0 -4.94929,-1.70617 -5.27929,-4.26367 l 11.82422,0 c 0.0275,-0.2475 0.0566,-0.57688 0.0566,-0.79688 0,-4.4825 -2.99758,-7.50781 -7.20508,-7.50781 z m 16.81055,0 c -4.2075,0 -7.31446,3.10828 -7.31446,7.42578 0,4.345 3.13539,7.45117 7.83789,7.45117 2.42,0 4.4261,-0.82328 5.7461,-2.36328 l -1.45703,-1.70508 c -1.0725,1.1825 -2.50203,1.75977 -4.20704,1.75977 -2.88749,0 -4.94929,-1.70617 -5.27929,-4.26367 l 11.82422,0 c 0.0275,-0.2475 0.0547,-0.57688 0.0547,-0.79688 0,-4.4825 -2.99757,-7.50781 -7.20507,-7.50781 z M 50,264.92578 55.417969,279.5 l 2.529297,0 4.263672,-11.05469 4.207031,11.05469 2.529297,0 5.445312,-14.57422 -2.365234,0 -4.345703,11.66016 -4.316407,-11.66016 -2.228515,0 -4.398438,11.60352 -4.236328,-11.60352 -2.501953,0 z m 76.9082,0 6.43555,14.54688 -0.4668,1.01757 c -0.715,1.6775 -1.51234,2.25391 -2.77734,2.25391 -0.99,0 -1.89828,-0.38476 -2.61328,-1.07226 l -1.12695,1.98046 c 0.90749,0.88 2.33773,1.34766 3.74023,1.34766 2.2275,0 3.90477,-0.96297 5.19727,-4.04297 l 7.0664,-16.03125 -2.58398,0 -5.03321,11.66016 -5.08789,-11.66016 -2.75,0 z m 34.8086,0 0,8.38672 c 0,4.29 2.50203,6.35156 6.26953,6.35156 2.0625,0 3.87867,-0.85078 4.95117,-2.36328 l 0,2.19922 2.50195,0 0,-14.57422 -2.64062,0 0,7.53516 c 0,3.135 -1.75977,4.83984 -4.50977,4.83984 -2.5025,0 -3.93164,-1.43101 -3.93164,-4.29101 l 0,-8.08399 -2.64062,0 z m 51.00781,2.08984 c 2.5575,0 4.39883,1.73219 4.67383,4.17969 l -9.34961,0 c 0.275,-2.475 2.14578,-4.17969 4.67578,-4.17969 z m 16.81055,0 c 2.5575,0 4.40078,1.73219 4.67578,4.17969 l -9.34961,0 c 0.275,-2.475 2.14383,-4.17969 4.67383,-4.17969 z m -146.677738,0.082 c 2.805,0 4.894531,2.00773 4.894531,5.11523 0,3.1075 -2.089531,5.14258 -4.894531,5.14258 -2.805,0 -4.921875,-2.03508 -4.921875,-5.14258 0,-3.1075 2.116875,-5.11523 4.921875,-5.11523 z m 67.783198,0 c 2.80501,0 4.89454,2.00773 4.89454,5.11523 0,3.1075 -2.08954,5.14258 -4.89454,5.14258 -2.805,0 -4.92187,-2.03508 -4.92187,-5.14258 0,-3.1075 2.11687,-5.11523 4.92187,-5.11523 z m 95.98047,0 c 2.7775,0 4.89649,2.00773 4.89649,5.11523 0,3.1075 -2.11899,5.14258 -4.89649,5.14258 -2.805,0 -4.92187,-2.03508 -4.92187,-5.14258 0,-3.1075 2.11687,-5.11523 4.92187,-5.11523 z m 13.13672,8.80078 c -1.0175,0 -1.87109,0.76914 -1.87109,1.86914 0,1.1 0.85359,1.89648 1.87109,1.89648 0.99,0 1.81446,-0.79648 1.81446,-1.89648 0,-1.1 -0.82446,-1.86914 -1.81446,-1.86914 z"
         transform="translate(0,742.36222)"
         id="path4266"
         inkscape:connector-curvature="0" />
    </g>
    <g
       style="font-style:normal;font-weight:normal;font-size:40px;line-height:125%;font-family:sans-serif;letter-spacing:0px;word-spacing:0px;fill:#1c366b;fill-opacity:1;stroke:none;stroke-width:1px;stroke-linecap:butt;stroke-linejoin:miter;stroke-opacity:1"
       id="text3361-5">
      <path
         style="font-style:normal;font-variant:normal;font-weight:bold;font-stretch:normal;font-size:27.5px;font-family:Montserrat;-inkscape-font-specification:'Montserrat Bold';fill:#1c366b;fill-opacity:1"
         d="m 481.45312,223.48242 c -1.595,0 -2.66796,1.04508 -2.66796,2.39258 0,1.3475 1.07296,2.39258 2.66796,2.39258 1.59501,0 2.66797,-1.04461 2.66797,-2.47461 0,-1.32 -1.07296,-2.31055 -2.66797,-2.31055 z m -20.1914,1.23828 0,20.4043 4.28906,0 0,-3.76758 2.0625,-2.03515 4.67578,5.80273 5.19727,0 -6.71094,-8.52539 6.16016,-6.26953 -5.11524,0 -6.26953,5.93945 0,-11.54883 -4.28906,0 z m 64.97461,0 0,20.4043 2.64062,0 0,-7.50781 c 0,-3.1625 1.81414,-4.83985 4.61914,-4.83985 2.5025,0 3.9336,1.40172 3.9336,4.26172 l 0,8.08594 2.63867,0 0,-8.38672 c 0,-4.29 -2.50133,-6.32617 -6.04883,-6.32617 -2.2275,0 -4.04258,0.79867 -5.14258,2.20117 l 0,-7.89258 -2.64062,0 z m -75.25195,0.82422 c -5.47251,0 -8.11133,2.72164 -8.11133,5.99414 0,7.15 11.1914,4.6768 11.1914,8.2793 0,1.1825 -1.07289,2.0625 -3.71289,2.0625 -2.31,0 -4.72906,-0.82531 -6.35156,-2.00781 l -1.51367,3.35351 c 1.705,1.32 4.78539,2.22852 7.83789,2.22852 5.5,0 8.16797,-2.7493 8.16797,-5.9668 0,-7.0675 -11.19336,-4.62047 -11.19336,-8.16797 0,-1.21 1.0182,-2.20117 3.6582,-2.20117 1.705,0 3.54844,0.49617 5.33594,1.51367 l 1.375,-3.38281 c -1.7875,-1.1275 -4.26359,-1.70508 -6.68359,-1.70508 z m 64.25,1.81446 0,3.1914 -2.47461,0 0,2.17188 2.47461,0 0,8.00195 c 0,2.9425 1.67859,4.56445 4.62109,4.56445 1.1825,0 2.39195,-0.32812 3.18945,-1.01562 l -0.82617,-1.89844 c -0.55,0.44 -1.2925,0.6875 -2.0625,0.6875 -1.4575,0 -2.28125,-0.87977 -2.28125,-2.44727 l 0,-7.89257 4.17969,0 0,-2.17188 -4.17969,0 0,-3.1914 -2.64062,0 z m -18.91016,2.75 c -1.98,0 -3.57594,0.63328 -4.64844,1.92578 l 0,-1.70508 -4.0957,0 0,20.13086 4.28906,0 0,-6.9043 c 1.1,1.21 2.61258,1.78906 4.45508,1.78906 4.1525,0 7.36914,-2.97164 7.36914,-7.61914 0,-4.6475 -3.21664,-7.61718 -7.36914,-7.61718 z m -17.01563,0.2207 0,14.79492 4.28907,0 0,-14.79492 -4.28907,0 z m 71.74805,0.082 c -4.2075,0 -7.31445,3.10828 -7.31445,7.42578 0,4.345 3.13343,7.45117 7.83593,7.45117 2.42,0 4.42805,-0.82328 5.74805,-2.36328 l -1.45703,-1.70508 c -1.0725,1.1825 -2.50203,1.75977 -4.20703,1.75977 -2.8875,0 -4.95125,-1.70617 -5.28125,-4.26367 l 11.82617,0 c 0.0275,-0.2475 0.0547,-0.57688 0.0547,-0.79688 0,-4.4825 -2.99758,-7.50781 -7.20508,-7.50781 z m 0,2.22851 c 2.5575,0 4.39883,1.73219 4.67383,4.17969 l -9.34961,0 c 0.275,-2.475 2.14578,-4.17969 4.67578,-4.17969 z m -55.47461,0.99024 c 2.145,0 3.76758,1.5382 3.76758,4.0957 0,2.5575 -1.62258,4.09766 -3.76758,4.09766 -2.145,0 -3.76758,-1.54016 -3.76758,-4.09766 0,-2.5575 1.62258,-4.0957 3.76758,-4.0957 z m -46.82422,25.46484 0,20.4043 2.64063,0 0,-3.98828 3.02539,-2.80469 5.47265,6.79297 3.24414,0 -6.73632,-8.55273 6.13086,-6.02149 -3.18946,0 -7.94726,7.25977 0,-13.08985 -2.64063,0 z m 93.87891,0 0,8.0293 c -1.21,-1.5675 -3.02539,-2.33789 -5.08789,-2.33789 -4.2625,0 -7.36914,2.97078 -7.36914,7.42578 0,4.455 3.10664,7.45117 7.36914,7.45117 2.145,0 4.01476,-0.82461 5.19726,-2.47461 l 0,2.31055 2.53125,0 0,-20.4043 -2.64062,0 z m 43.0664,1.1543 0.16602,7.42578 1.95117,0 0.19336,-7.42578 -2.31055,0 z m 6.95508,1.48438 0,3.1914 -2.47461,0 0,2.17188 2.47461,0 0,8.00195 c 0,2.9425 1.6786,4.56445 4.6211,4.56445 1.1825,0 2.39195,-0.32812 3.18945,-1.01562 L 599.64453,276.75 c -0.55,0.44 -1.2925,0.6875 -2.0625,0.6875 -1.4575,0 -2.2832,-0.87977 -2.2832,-2.44727 l 0,-7.89257 4.17969,0 0,-2.17188 -4.17969,0 0,-3.1914 -2.64063,0 z m -166.17773,3.05273 c -4.3725,0 -7.58985,3.08078 -7.58985,7.42578 0,4.345 3.21735,7.45117 7.58985,7.45117 4.3725,0 7.5625,-3.10617 7.5625,-7.45117 0,-4.345 -3.19,-7.42578 -7.5625,-7.42578 z m 19.05078,0 c -2.5575,0 -4.37164,0.87898 -5.30664,2.58398 l 0,-2.44531 -2.53125,0 0,14.57422 2.64062,0 0,-7.25977 c 0,-3.19 1.7593,-4.92187 4.5918,-4.92187 0.1925,0 0.38547,-0.002 0.60547,0.0254 l 0,-2.55664 z m 48.73242,0 c -4.3725,0 -7.58984,3.08078 -7.58984,7.42578 0,4.345 3.21734,7.45117 7.58984,7.45117 4.3725,0 7.5625,-3.10617 7.5625,-7.45117 0,-4.345 -3.19,-7.42578 -7.5625,-7.42578 z m 62.25,0 c -4.3725,0 -7.58984,3.08078 -7.58984,7.42578 0,4.345 3.21734,7.45117 7.58984,7.45117 4.3725,0 7.5625,-3.10617 7.5625,-7.45117 0,-4.345 -3.19,-7.42578 -7.5625,-7.42578 z m 18.9961,0 c -2.31,0 -4.17946,0.85289 -5.25196,2.33789 l 0,-2.19922 -2.52929,0 0,14.57422 2.63867,0 0,-7.50781 c 0,-3.1625 1.81609,-4.83985 4.62109,-4.83985 2.5025,0 3.93164,1.40172 3.93164,4.26172 l 0,8.08594 2.64063,0 0,-8.38672 c 0,-4.29 -2.50328,-6.32617 -6.05078,-6.32617 z m -181.88672,0.13867 5.41797,14.57422 2.52929,0 4.26367,-11.05469 4.20704,11.05469 2.52929,0 5.44531,-14.57422 -2.36523,0 -4.3457,11.66016 -4.31641,-11.66016 -2.22851,0 -4.39844,11.60352 -4.23633,-11.60352 -2.50195,0 z m 76.9082,0 6.43555,14.54688 -0.4668,1.01757 c -0.715,1.6775 -1.51234,2.25391 -2.77734,2.25391 -0.99,0 -1.89828,-0.38476 -2.61328,-1.07226 l -1.12696,1.98046 c 0.9075,0.88 2.33774,1.34766 3.74024,1.34766 2.2275,0 3.90476,-0.96297 5.19726,-4.04297 l 7.06641,-16.03125 -2.58399,0 -5.0332,11.66016 -5.08789,-11.66016 -2.75,0 z m 34.80859,0 0,8.38672 c 0,4.29 2.50204,6.35156 6.26954,6.35156 2.0625,0 3.87867,-0.85078 4.95117,-2.36328 l 0,2.19922 2.50195,0 0,-14.57422 -2.64062,0 0,7.53516 c 0,3.135 -1.75977,4.83984 -4.50977,4.83984 -2.5025,0 -3.93164,-1.43101 -3.93164,-4.29101 l 0,-8.08399 -2.64063,0 z m -78.85937,2.17188 c 2.805,0 4.89453,2.00773 4.89453,5.11523 0,3.1075 -2.08953,5.14258 -4.89453,5.14258 -2.805,0 -4.92188,-2.03508 -4.92188,-5.14258 0,-3.1075 2.11688,-5.11523 4.92188,-5.11523 z m 67.7832,0 c 2.805,0 4.89453,2.00773 4.89453,5.11523 0,3.1075 -2.08953,5.14258 -4.89453,5.14258 -2.805,0 -4.92187,-2.03508 -4.92187,-5.14258 0,-3.1075 2.11687,-5.11523 4.92187,-5.11523 z m 43.50586,0 c 2.7775,0 4.89453,2.00773 4.89453,5.11523 0,3.1075 -2.11703,5.14258 -4.89453,5.14258 -2.805,0 -4.92187,-2.03508 -4.92187,-5.14258 0,-3.1075 2.11687,-5.11523 4.92187,-5.11523 z m 18.74414,0 c 2.805,0 4.89649,2.00773 4.89649,5.11523 0,3.1075 -2.09149,5.14258 -4.89649,5.14258 -2.805,0 -4.92187,-2.03508 -4.92187,-5.14258 0,-3.1075 2.11687,-5.11523 4.92187,-5.11523 z m 48.04883,8.80078 c -1.0175,0 -1.87109,0.76914 -1.87109,1.86914 0,1.1 0.85359,1.89648 1.87109,1.89648 0.99,0 1.81445,-0.79648 1.81445,-1.89648 0,-1.1 -0.82445,-1.86914 -1.81445,-1.86914 z"
         transform="translate(0,742.36222)"
         id="path4225"
         inkscape:connector-curvature="0" />
    </g>
    <g
       style="font-style:normal;font-variant:normal;font-weight:normal;font-stretch:normal;font-size:40px;line-height:125%;font-family:montserrat;-inkscape-font-specification:montserrat;letter-spacing:0px;word-spacing:0px;fill:#1c366b;fill-opacity:1;stroke:none;stroke-width:1px;stroke-linecap:butt;stroke-linejoin:miter;stroke-opacity:1"
       id="text3361-8"
       transform="translate(-25.00016,0)">
      <path
         style="font-style:normal;font-variant:normal;font-weight:bold;font-stretch:normal;font-family:montserrat;-inkscape-font-specification:'montserrat Bold';fill:#1c366b;fill-opacity:1"
         d="m 823.91406,224.30664 c -1.0175,0 -1.78711,0.76992 -1.78711,1.73242 0,0.9625 0.76961,1.70508 1.78711,1.70508 1.045,0 1.78906,-0.76976 1.78906,-1.75976 0,-0.935 -0.77156,-1.67774 -1.78906,-1.67774 z m 123.11719,0.24805 c -3.1075,0 -4.8125,1.87062 -4.8125,4.70312 l 0,1.29297 -2.47656,0 0,2.17188 2.47656,0 0,12.40234 2.63867,0 0,-12.40234 4.17969,0 0,-2.17188 -4.23438,0 0,-1.26562 c 0,-1.6775 0.79774,-2.5586 2.36524,-2.5586 0.77,0 1.48516,0.275 2.03515,0.6875 L 950,225.4082 c -0.7425,-0.5775 -1.84125,-0.85351 -2.96875,-0.85351 z m -105.64648,0.16601 0,8.0293 c -1.21,-1.5675 -3.0254,-2.33789 -5.08789,-2.33789 -4.26251,0 -7.36915,2.97078 -7.36915,7.42578 0,4.455 3.10664,7.45117 7.36915,7.45117 2.14499,0 4.01671,-0.82461 5.19921,-2.47461 l 0,2.31055 2.5293,0 0,-20.4043 -2.64062,0 z m -103.60157,0.82422 c -5.4725,0 -8.11328,2.72164 -8.11328,5.99414 0,7.15 11.19336,4.6768 11.19336,8.2793 0,1.1825 -1.07289,2.0625 -3.71289,2.0625 -2.31,0 -4.73102,-0.82531 -6.35351,-2.00781 l -1.51172,3.35351 c 1.705,1.32 4.78539,2.22852 7.83789,2.22852 5.5,0 8.16601,-2.7493 8.16601,-5.9668 0,-7.0675 -11.1914,-4.62047 -11.1914,-8.16797 0,-1.21 1.0182,-2.20117 3.6582,-2.20117 1.705,0 3.54648,0.49617 5.33398,1.51367 l 1.375,-3.38281 c -1.7875,-1.1275 -4.26164,-1.70508 -6.68164,-1.70508 z m 17.06836,4.56446 c -4.51,0 -7.89258,3.18968 -7.89258,7.61718 0,4.4 3.32641,7.61914 8.44141,7.61914 2.6675,0 4.73047,-0.82508 6.10547,-2.39258 l -2.2832,-2.47656 c -1.0175,0.9625 -2.14344,1.43164 -3.71094,1.43164 -2.255,0 -3.82383,-1.1282 -4.23633,-2.9707 l 11.19336,0 c 0.0275,-0.3575 0.082,-0.8243 0.082,-1.1543 0,-4.7575 -3.35422,-7.67382 -7.69922,-7.67382 z m 17.34766,0 c -4.51,0 -7.89258,3.18968 -7.89258,7.61718 0,4.4 3.32836,7.61914 8.44336,7.61914 2.6675,0 4.73047,-0.82508 6.10547,-2.39258 l -2.2832,-2.47656 c -1.0175,0.9625 -2.14539,1.43164 -3.71289,1.43164 -2.255,0 -3.82188,-1.1282 -4.23438,-2.9707 l 11.19141,0 c 0.0275,-0.3575 0.084,-0.8243 0.084,-1.1543 0,-4.7575 -3.35617,-7.67382 -7.70117,-7.67382 z m 24.45898,0.30273 c -4.2075,0 -7.31445,3.10828 -7.31445,7.42578 0,4.345 3.13344,7.45117 7.83594,7.45117 2.42,0 4.42804,-0.82328 5.74804,-2.36328 l -1.45703,-1.70508 c -1.0725,1.1825 -2.50203,1.75977 -4.20703,1.75977 -2.8875,0 -4.95125,-1.70617 -5.28125,-4.26367 l 11.82617,0 c 0.0275,-0.2475 0.0547,-0.57688 0.0547,-0.79688 0,-4.4825 -2.99758,-7.50781 -7.20508,-7.50781 z m 58.33008,0 c -4.2075,0 -7.31445,3.10828 -7.31445,7.42578 0,4.345 3.13344,7.45117 7.83594,7.45117 2.42,0 4.42804,-0.82328 5.74804,-2.36328 l -1.45703,-1.70508 c -1.0725,1.1825 -2.50203,1.75977 -4.20703,1.75977 -2.8875,0 -4.95125,-1.70617 -5.28125,-4.26367 l 11.82617,0 c 0.0275,-0.2475 0.0547,-0.57688 0.0547,-0.79688 0,-4.4825 -2.99758,-7.50781 -7.20508,-7.50781 z m 18.62695,0 c -2.31,0 -4.1814,0.85289 -5.2539,2.33789 l 0,-2.19922 -2.5293,0 0,14.57422 2.64063,0 0,-7.50781 c 0,-3.1625 1.81414,-4.83985 4.61914,-4.83985 2.5025,0 3.93359,1.40172 3.93359,4.26172 l 0,8.08594 2.63867,0 0,-8.38672 c 0,-4.29 -2.50133,-6.32617 -6.04883,-6.32617 z m 17.42188,0 c -4.4825,0 -7.69922,3.08078 -7.69922,7.42578 0,4.345 3.21672,7.45117 7.69922,7.45117 2.6125,0 4.78445,-1.09976 5.93945,-3.13476 l -2.00781,-1.26368 c -0.935,1.43 -2.36398,2.08985 -3.95898,2.08985 -2.86,0 -5.00586,-1.98008 -5.00586,-5.14258 0,-3.1075 2.14586,-5.11523 5.00586,-5.11523 1.595,0 3.02398,0.65984 3.95898,2.08984 l 2.00781,-1.29297 c -1.155,-2.035 -3.32695,-3.10742 -5.93945,-3.10742 z m 15.08398,0 c -4.2075,0 -7.31445,3.10828 -7.31445,7.42578 0,4.345 3.13344,7.45117 7.83594,7.45117 2.42,0 4.42804,-0.82328 5.74804,-2.36328 l -1.45703,-1.70508 c -1.0725,1.1825 -2.50203,1.75977 -4.20703,1.75977 -2.8875,0 -4.95125,-1.70617 -5.28125,-4.26367 l 11.82617,0 c 0.0275,-0.2475 0.0547,-0.57688 0.0547,-0.79688 0,-4.4825 -2.99758,-7.50781 -7.20508,-7.50781 z m 24.49805,0 c -4.3725,0 -7.58984,3.08078 -7.58984,7.42578 0,4.345 3.21734,7.45117 7.58984,7.45117 4.3725,0 7.5625,-3.10617 7.5625,-7.45117 0,-4.345 -3.19,-7.42578 -7.5625,-7.42578 z m -125.94336,0.13867 6.38086,14.57422 2.69336,0 6.38086,-14.57422 -2.58594,0 -5.11328,11.6875 -5.00586,-11.6875 -2.75,0 z m 17.91797,0 0,14.57422 2.64063,0 0,-14.57422 -2.64063,0 z m -25.93555,2.08984 c 2.5575,0 4.39883,1.73219 4.67383,4.17969 l -9.34961,0 c 0.275,-2.475 2.14578,-4.17969 4.67578,-4.17969 z m 58.33008,0 c 2.5575,0 4.39883,1.73219 4.67383,4.17969 l -9.34961,0 c 0.275,-2.475 2.14578,-4.17969 4.67578,-4.17969 z m 51.13281,0 c 2.5575,0 4.39883,1.73219 4.67383,4.17969 l -9.34961,0 c 0.275,-2.475 2.14578,-4.17969 4.67578,-4.17969 z m -69.60351,0.082 c 2.7775,0 4.89453,2.00773 4.89453,5.11523 0,3.1075 -2.11703,5.14258 -4.89453,5.14258 -2.805,0 -4.92188,-2.03508 -4.92188,-5.14258 0,-3.1075 2.11688,-5.11523 4.92188,-5.11523 z m 94.10156,0 c 2.805,0 4.89453,2.00773 4.89453,5.11523 0,3.1075 -2.08953,5.14258 -4.89453,5.14258 -2.805,0 -4.92187,-2.03508 -4.92187,-5.14258 0,-3.1075 2.11687,-5.11523 4.92187,-5.11523 z m -175.74023,0.63281 c 1.925,0 3.3264,1.21008 3.6289,3.08008 l -7.28711,0 c 0.3025,-1.8975 1.70571,-3.08008 3.65821,-3.08008 z m 17.34765,0 c 1.925,0 3.32836,1.21008 3.63086,3.08008 l -7.28711,0 c 0.3025,-1.8975 1.70375,-3.08008 3.65625,-3.08008 z m 93.74414,25.32617 c -1.0175,0 -1.78711,0.76992 -1.78711,1.73242 0,0.9625 0.76961,1.70508 1.78711,1.70508 1.045,0 1.78711,-0.76976 1.78711,-1.75976 0,-0.935 -0.76961,-1.67774 -1.78711,-1.67774 z m 26.42578,0 c -1.0175,0 -1.78711,0.76992 -1.7871,1.73242 0,0.9625 0.7696,1.70508 1.7871,1.70508 1.045,0 1.78711,-0.76976 1.78711,-1.75976 0,-0.935 -0.76961,-1.67774 -1.78711,-1.67774 z m 15.36133,0 c -1.0175,0 -1.78711,0.76992 -1.78711,1.73242 0,0.9625 0.76961,1.70508 1.78711,1.70508 1.045,0 1.78711,-0.76976 1.78711,-1.75976 0,-0.935 -0.76961,-1.67774 -1.78711,-1.67774 z m -85.06445,0.41406 0,8.0293 c -1.21,-1.5675 -3.02539,-2.33789 -5.08789,-2.33789 -4.2625,0 -7.36914,2.97078 -7.36914,7.42578 0,4.455 3.10664,7.45117 7.36914,7.45117 2.145,0 4.01672,-0.82461 5.19922,-2.47461 l 0,2.31055 2.52929,0 0,-20.4043 -2.64062,0 z m 49.63672,0 0,20.4043 2.53125,0 0,-2.31055 c 1.1825,1.65 3.05226,2.47461 5.19726,2.47461 4.2625,0 7.36914,-2.99617 7.36914,-7.45117 0,-4.455 -3.10664,-7.42578 -7.36914,-7.42578 -2.0625,0 -3.87789,0.77039 -5.08789,2.33789 l 0,-8.0293 -2.64062,0 z m 26.42578,0 0,20.4043 2.64062,0 0,-20.4043 -2.64062,0 z m 15.74805,2.63868 0,3.1914 -2.47657,0 0,2.17188 2.47657,0 0,8.00195 c 0,2.9425 1.67664,4.56445 4.61914,4.56445 1.1825,0 2.39195,-0.32812 3.18945,-1.01562 l -0.82422,-1.8984 c -0.55,0.44 -1.2925,0.6875 -2.0625,0.6875 -1.4575,0 -2.2832,-0.87977 -2.2832,-2.44727 l 0,-7.89257 4.17969,0 0,-2.17188 -4.17969,0 0,-3.1914 -2.63867,0 z m -170.00977,3.05273 c -2.5575,0 -4.37164,0.87898 -5.30664,2.58398 l 0,-2.44531 -2.53125,0 0,14.57422 2.64063,0 0,-7.25977 c 0,-3.19 1.76124,-4.92187 4.59374,-4.92187 0.1925,0 0.38352,-0.002 0.60352,0.0254 l 0,-2.55664 z m 9.08789,0 c -4.2075,0 -7.31445,3.10828 -7.31445,7.42578 0,4.345 3.13344,7.45117 7.83594,7.45117 2.42,0 4.42804,-0.82328 5.74804,-2.36328 l -1.45703,-1.70508 c -1.0725,1.1825 -2.50203,1.75977 -4.20703,1.75977 -2.8875,0 -4.95125,-1.70617 -5.28125,-4.26367 l 11.82617,0 c 0.0275,-0.2475 0.0547,-0.57688 0.0547,-0.79688 0,-4.4825 -2.99758,-7.50781 -7.20508,-7.50781 z m 18.57031,0 c -2.145,0 -4.01476,0.82477 -5.19726,2.44727 l 0,-2.3086 -2.5293,0 0,19.91016 2.64063,0 0,-7.53516 c 1.21,1.5675 3.02343,2.36328 5.08593,2.36328 4.2625,0 7.3711,-2.96867 7.3711,-7.45117 0,-4.455 -3.1086,-7.42578 -7.3711,-7.42578 z m 18.85547,0 c -2.5575,0 -4.37164,0.87898 -5.30664,2.58398 l 0,-2.44531 -2.53125,0 0,14.57422 2.64063,0 0,-7.25977 c 0,-3.19 1.76125,-4.92187 4.59375,-4.92187 0.1925,0 0.38351,-0.002 0.60351,0.0254 l 0,-2.55664 z m 9.36328,0 c -4.3725,0 -7.58984,3.08078 -7.58984,7.42578 0,4.345 3.21734,7.45117 7.58984,7.45117 4.3725,0 7.5625,-3.10617 7.5625,-7.45117 0,-4.345 -3.19,-7.42578 -7.5625,-7.42578 z m 54.94727,0 c -4.4825,0 -7.69922,3.08078 -7.69922,7.42578 0,4.345 3.21672,7.45117 7.69922,7.45117 2.6125,0 4.78641,-1.09976 5.94141,-3.13476 l -2.00782,-1.26368 c -0.935,1.43 -2.36593,2.08985 -3.96093,2.08985 -2.86,0 -5.00391,-1.98008 -5.00391,-5.14258 0,-3.1075 2.14391,-5.11523 5.00391,-5.11523 1.595,0 3.02593,0.65984 3.96093,2.08984 l 2.00782,-1.29297 c -1.155,-2.035 -3.32891,-3.10742 -5.94141,-3.10742 z m -25.12695,0.13867 0,8.38672 c 0,4.29 2.50203,6.35156 6.26953,6.35156 2.0625,0 3.87867,-0.85078 4.95117,-2.36328 l 0,2.19922 2.50195,0 0,-14.57422 -2.64062,0 0,7.53516 c 0,3.135 -1.75977,4.83984 -4.50977,4.83984 -2.5025,0 -3.93164,-1.43101 -3.93164,-4.29101 l 0,-8.08399 -2.64062,0 z m 34.45898,0 0,14.57422 2.64063,0 0,-14.57422 -2.64063,0 z m 26.42578,0 0,14.57422 2.64063,0 0,-14.57422 -2.64063,0 z m 15.36133,0 0,14.57422 2.64062,0 0,-14.57422 -2.64062,0 z m 16.24219,0 6.43359,14.54688 -0.4668,1.01757 c -0.715,1.6775 -1.51234,2.25391 -2.77734,2.25391 -0.99,0 -1.89828,-0.38476 -2.61328,-1.07226 l -1.12695,1.98046 c 0.9075,0.88 2.33773,1.34766 3.74023,1.34766 2.2275,0 3.90477,-0.96297 5.19727,-4.04297 l 7.0664,-16.03125 -2.58398,0 -5.03321,11.66016 -5.08593,-11.66016 -2.75,0 z m -169.09766,2.08984 c 2.5575,0 4.39883,1.73219 4.67383,4.17969 l -9.34961,0 c 0.275,-2.475 2.14578,-4.17969 4.67578,-4.17969 z m 18.35156,0.082 c 2.805,0 4.92188,2.03523 4.92188,5.11523 0,3.1075 -2.11688,5.14258 -4.92188,5.14258 -2.7775,0 -4.89453,-2.03508 -4.89453,-5.14258 0,-3.08 2.11703,-5.11523 4.89453,-5.11523 z m 28.4375,0 c 2.805,0 4.89453,2.00773 4.89453,5.11523 0,3.1075 -2.08953,5.14258 -4.89453,5.14258 -2.805,0 -4.92382,-2.03508 -4.92382,-5.14258 0,-3.1075 2.11882,-5.11523 4.92382,-5.11523 z m 17.45508,0 c 2.7775,0 4.89453,2.00773 4.89453,5.11523 0,3.1075 -2.11703,5.14258 -4.89453,5.14258 -2.805,0 -4.92187,-2.03508 -4.92187,-5.14258 0,-3.1075 2.11687,-5.11523 4.92187,-5.11523 z m 62.01172,0 c 2.805,0 4.92383,2.00773 4.92383,5.11523 0,3.1075 -2.11883,5.14258 -4.92383,5.14258 -2.7775,0 -4.89453,-2.03508 -4.89453,-5.14258 0,-3.1075 2.11703,-5.11523 4.89453,-5.11523 z m 60.47852,8.80078 c -1.0175,0 -1.86914,0.76914 -1.86914,1.86914 0,1.1 0.85164,1.89648 1.86914,1.89648 0.99,0 1.8164,-0.79648 1.8164,-1.89648 0,-1.1 -0.8264,-1.86914 -1.8164,-1.86914 z"
         transform="translate(0,742.36222)"
         id="path4166"
         inkscape:connector-curvature="0" />
    </g>
    <g
       id="g3445"
       transform="matrix(1.6282048,0,0,1.6282048,733.23219,770.95198)"
       style="fill:#1c366b;fill-opacity:1">
      <path
         style="fill:#1c366b;fill-opacity:1"
         inkscape:connector-curvature="0"
         d="m 76.961,54.103 c 0,14.866 -12.095,26.961 -26.961,26.961 -14.866,0 -26.961,-12.095 -26.961,-26.961 0,-13.299 9.682,-24.372 22.365,-26.561 l 0,7.806 27.199,-15.704 -27.199,-15.707 0,8.462 C 24.422,14.695 8.039,32.519 8.039,54.103 c 0,23.137 18.824,41.96 41.961,41.96 23.138,0 41.961,-18.823 41.961,-41.961 l -15,0 z"
         id="path3447" />
    </g>
    <flowRoot
       xml:space="preserve"
       id="flowRoot4189"
       style="font-style:normal;font-weight:normal;font-size:40px;line-height:125%;font-family:sans-serif;letter-spacing:0px;word-spacing:0px;fill:#1c366b;fill-opacity:1;stroke:none;stroke-width:1px;stroke-linecap:butt;stroke-linejoin:miter;stroke-opacity:1"><flowRegion
         id="flowRegion4191"><rect
           id="rect4193"
           width="26.136364"
           height="203.40909"
           x="103.40909"
           y="-186.36363"
           style="fill:#1c366b;fill-opacity:1" /></flowRegion><flowPara
         id="flowPara4195" /></flowRoot>    <g
       transform="matrix(5.7692308,0,0,5.7692308,-3194.214,-3503.407)"
       id="g4206"
       style="fill:#1c366b;fill-opacity:1">
      <g
         id="g4208"
         style="fill:#1c366b;fill-opacity:1">
        <polygon
           points="593,756 598,756 598,742 584,742 584,747 593,747 "
           id="polygon4210"
           style="fill:#1c366b;fill-opacity:1" />
        <polygon
           points="587,762 592,762 592,748 578,748 578,753 587,753 "
           id="polygon4212"
           style="fill:#1c366b;fill-opacity:1" />
        <rect
           x="572"
           y="754"
           width="14"
           height="14"
           id="rect4214"
           style="fill:#1c366b;fill-opacity:1" />
      </g>
    </g>
    <g
       id="g4266"
       transform="matrix(3.7406484,0,0,3.7406484,375.4312,722.74875)"
       style="fill:#1c366b;fill-opacity:1">
      <polygon
         points="54,14.6 27.8,44.5 12.2,29.5 7.4,34.6 28.2,54.7 59.2,19.2 "
         id="polygon4268"
         style="fill:#1c366b;fill-opacity:1" />
    </g>
  </g>
</svg>
